<svg width="22" height="20" viewBox="0 0 22 20" fill="none" xmlns="http://www.w3.org/2000/svg">
<path fill-rule="evenodd" clip-rule="evenodd" d="M15.5532 1.60009e-05C14.1056 0 13.1724 0.171383 12.1027 0.691711C11.7066 0.884353 11.335 1.11635 10.99 1.38701C10.6582 1.13153 10.3015 0.910178 9.92181 0.723571C8.83132 0.187592 7.85028 0 6.45455 0C2.71644 0 0 3.07786 0 7.07526C0 10.0941 1.69383 13.0102 4.84884 15.8301C6.50489 17.3102 8.61932 18.7749 10.1336 19.5542L11 20L11.8664 19.5542C13.3807 18.7749 15.4951 17.3102 17.1512 15.8301C20.3062 13.0102 22 10.0941 22 7.07526C22 3.12017 19.2579 0.0152621 15.5532 1.60009e-05ZM20 7.11988C20 9.4999 18.5862 11.9493 15.8137 14.4429C14.3022 15.8023 12.359 17.1609 11 17.8737C9.64104 17.1609 7.69782 15.8023 6.18628 14.4429C3.41382 11.9493 2 9.4999 2 7.11988C2 4.14772 3.88364 2 6.45455 2C7.56428 2 8.24813 2.13159 9.03514 2.52084C9.50001 2.75077 9.91088 3.05437 10.2665 3.43377L11.0023 4.2187L11.7315 3.42755C12.0951 3.03295 12.512 2.72244 12.9819 2.49243C13.7459 2.11849 14.387 2 15.5491 2.00001C18.0882 2.01053 20 4.18896 20 7.11988Z" fill="white"/>
</svg>
