<svg width="13" height="16" viewBox="0 0 13 16" fill="none" xmlns="http://www.w3.org/2000/svg">
<path fill-rule="evenodd" clip-rule="evenodd" d="M6.4 16L6.86772 15.5884C10.8008 12.1276 12.8 9.1057 12.8 6.44943C12.8 2.68774 9.88654 0 6.4 0C2.91346 0 0 2.68774 0 6.44943C0 9.1057 1.99915 12.1276 5.93228 15.5884L6.4 16ZM6.39998 14.0908C3.06246 11.0597 1.4222 8.49119 1.4222 6.44942C1.4222 3.50892 3.67224 1.43321 6.39998 1.43321C9.12772 1.43321 11.3778 3.50892 11.3778 6.44942C11.3778 8.49119 9.7375 11.0597 6.39998 14.0908ZM6.40002 2.86641C8.3637 2.86641 9.95558 4.47058 9.95558 6.44942C9.95558 8.42827 8.3637 10.0324 6.40002 10.0324C4.43634 10.0324 2.84447 8.42827 2.84447 6.44942C2.84447 4.47058 4.43634 2.86641 6.40002 2.86641ZM4.26667 6.44943C4.26667 5.26212 5.22179 4.29962 6.4 4.29962C7.57821 4.29962 8.53333 5.26212 8.53333 6.44943C8.53333 7.63673 7.57821 8.59923 6.4 8.59923C5.22179 8.59923 4.26667 7.63673 4.26667 6.44943Z" fill="#E0E0E0"/>
</svg>
