<svg width="124" height="37" viewBox="0 0 124 37" xmlns="http://www.w3.org/2000/svg">
<path d="M0.8 36V31.55L15.2 9.6H2.15V3.4H24.25V7.85L9.85 29.8H24.4V36H0.8ZM29.3008 36V11.2H35.3008L35.8008 14.4H36.0008C37.0341 13.3667 38.1341 12.4833 39.3008 11.75C40.4674 10.9833 41.8674 10.6 43.5008 10.6C45.2674 10.6 46.6841 10.9667 47.7508 11.7C48.8508 12.4 49.7174 13.4167 50.3508 14.75C51.4508 13.6167 52.6175 12.65 53.8508 11.85C55.0841 11.0167 56.5175 10.6 58.1508 10.6C60.8175 10.6 62.7675 11.5 64.0008 13.3C65.2675 15.0667 65.9008 17.5 65.9008 20.6V36H58.5508V21.55C58.5508 19.75 58.3008 18.5167 57.8008 17.85C57.3341 17.1833 56.5675 16.85 55.5008 16.85C54.2675 16.85 52.8508 17.65 51.2508 19.25V36H43.9008V21.55C43.9008 19.75 43.6508 18.5167 43.1508 17.85C42.6841 17.1833 41.9174 16.85 40.8508 16.85C39.6174 16.85 38.2174 17.65 36.6508 19.25V36H29.3008ZM78.4219 36.6C76.1552 36.6 74.3552 35.8833 73.0219 34.45C71.6885 32.9833 71.0219 31.2 71.0219 29.1C71.0219 26.5 72.1219 24.4667 74.3219 23C76.5219 21.5333 80.0719 20.55 84.9719 20.05C84.9052 18.95 84.5719 18.0833 83.9719 17.45C83.4052 16.7833 82.4385 16.45 81.0719 16.45C80.0385 16.45 78.9885 16.65 77.9219 17.05C76.8552 17.45 75.7219 18 74.5219 18.7L71.8719 13.85C73.4385 12.8833 75.1052 12.1 76.8719 11.5C78.6719 10.9 80.5385 10.6 82.4719 10.6C85.6385 10.6 88.0719 11.5167 89.7719 13.35C91.4719 15.1833 92.3219 18 92.3219 21.8V36H86.3219L85.8219 33.45H85.6219C84.5885 34.3833 83.4719 35.15 82.2719 35.75C81.1052 36.3167 79.8219 36.6 78.4219 36.6ZM80.9219 30.9C81.7552 30.9 82.4719 30.7167 83.0719 30.35C83.7052 29.95 84.3385 29.4333 84.9719 28.8V24.45C82.3719 24.7833 80.5719 25.3167 79.5719 26.05C78.5719 26.75 78.0719 27.5833 78.0719 28.55C78.0719 29.35 78.3219 29.95 78.8219 30.35C79.3552 30.7167 80.0552 30.9 80.9219 30.9ZM105.289 36.6C102.756 36.6 100.989 35.85 99.9891 34.35C99.0224 32.8167 98.5391 30.8 98.5391 28.3V0.949998H105.889V28.6C105.889 29.3667 106.022 29.9 106.289 30.2C106.589 30.5 106.889 30.65 107.189 30.65C107.356 30.65 107.489 30.65 107.589 30.65C107.722 30.6167 107.889 30.5833 108.089 30.55L108.989 36C108.589 36.1667 108.072 36.3 107.439 36.4C106.839 36.5333 106.122 36.6 105.289 36.6ZM119.596 36.6C117.062 36.6 115.296 35.85 114.296 34.35C113.329 32.8167 112.846 30.8 112.846 28.3V0.949998H120.196V28.6C120.196 29.3667 120.329 29.9 120.596 30.2C120.896 30.5 121.196 30.65 121.496 30.65C121.662 30.65 121.796 30.65 121.896 30.65C122.029 30.6167 122.196 30.5833 122.396 30.55L123.296 36C122.896 36.1667 122.379 36.3 121.746 36.4C121.146 36.5333 120.429 36.6 119.596 36.6Z" />
</svg>
