<svg width="162" height="48" viewBox="0 0 162 48" fill="none" xmlns="http://www.w3.org/2000/svg">
<g clip-path="url(#clip0_61_1522)">
<path d="M156 0H6C2.68629 0 0 2.68629 0 6V42C0 45.3137 2.68629 48 6 48H156C159.314 48 162 45.3137 162 42V6C162 2.68629 159.314 0 156 0Z" fill="black"/>
<path d="M156 0.96C157.337 0.96 158.619 1.491 159.564 2.43618C160.509 3.38137 161.04 4.66331 161.04 6V42C161.04 43.3367 160.509 44.6186 159.564 45.5638C158.619 46.509 157.337 47.04 156 47.04H6C4.66331 47.04 3.38137 46.509 2.43618 45.5638C1.491 44.6186 0.96 43.3367 0.96 42V6C0.96 4.66331 1.491 3.38137 2.43618 2.43618C3.38137 1.491 4.66331 0.96 6 0.96H156ZM156 0H6C4.4087 0 2.88258 0.632141 1.75736 1.75736C0.632141 2.88258 0 4.4087 0 6V42C0 43.5913 0.632141 45.1174 1.75736 46.2426C2.88258 47.3679 4.4087 48 6 48H156C157.591 48 159.117 47.3679 160.243 46.2426C161.368 45.1174 162 43.5913 162 42V6C162 4.4087 161.368 2.88258 160.243 1.75736C159.117 0.632141 157.591 0 156 0Z" fill="black"/>
<path d="M81.7682 26.0998C80.7605 26.1045 79.7769 26.4077 78.9414 26.9709C78.1058 27.5342 77.4559 28.3324 77.0736 29.2647C76.6912 30.197 76.5937 31.2217 76.7931 32.2094C76.9926 33.1971 77.4802 34.1036 78.1944 34.8144C78.9086 35.5253 79.8174 36.0086 80.806 36.2035C81.7947 36.3983 82.8189 36.2959 83.7494 35.9092C84.6799 35.5225 85.475 34.8689 86.0343 34.0307C86.5937 33.1925 86.8922 32.2075 86.8922 31.1998C86.902 30.5253 86.776 29.8558 86.5216 29.231C86.2673 28.6063 85.8898 28.0391 85.4117 27.5632C84.9336 27.0873 84.3647 26.7126 83.7387 26.4611C83.1128 26.2097 82.4426 26.0868 81.7682 26.0998ZM81.7682 34.2958C81.1485 34.3391 80.5301 34.1951 79.9934 33.8823C79.4566 33.5695 79.0264 33.1025 78.7586 32.5419C78.4908 31.9814 78.3979 31.3533 78.4918 30.7392C78.5857 30.1251 78.8622 29.5535 79.2854 29.0986C79.7085 28.6438 80.2586 28.3268 80.8643 28.1887C81.47 28.0507 82.1032 28.0981 82.6816 28.3247C83.26 28.5513 83.7569 28.9467 84.1076 29.4594C84.4583 29.9722 84.6467 30.5786 84.6482 31.1998C84.6675 31.5934 84.6078 31.9869 84.4727 32.3571C84.3375 32.7273 84.1296 33.0667 83.8612 33.3552C83.5927 33.6438 83.2693 33.8756 82.9098 34.0372C82.5504 34.1987 82.1622 34.2867 81.7682 34.2958ZM70.5962 26.0998C69.588 26.1022 68.6032 26.4033 67.7661 26.9651C66.929 27.527 66.2771 28.3243 65.893 29.2564C65.5088 30.1885 65.4095 31.2136 65.6077 32.2021C65.8058 33.1906 66.2925 34.0982 67.0062 34.8103C67.7199 35.5223 68.6287 36.0069 69.6176 36.2027C70.6066 36.3985 71.6314 36.2968 72.5626 35.9104C73.4938 35.5241 74.2897 34.8704 74.8495 34.032C75.4094 33.1935 75.7082 32.208 75.7082 31.1998C75.718 30.5253 75.5919 29.8558 75.3376 29.231C75.0833 28.6063 74.7058 28.0391 74.2277 27.5632C73.7496 27.0873 73.1806 26.7126 72.5547 26.4611C71.9288 26.2097 71.2586 26.0868 70.5842 26.0998H70.5962ZM70.5962 34.2958C69.9762 34.3416 69.3568 34.1996 68.8186 33.8885C68.2803 33.5773 67.8483 33.1113 67.5786 32.5511C67.309 31.9909 67.2142 31.3626 67.3066 30.7478C67.3991 30.133 67.6745 29.5603 68.097 29.1042C68.5195 28.6482 69.0695 28.3298 69.6754 28.1907C70.2813 28.0516 70.9151 28.0981 71.4942 28.3242C72.0733 28.5503 72.571 28.9456 72.9223 29.4584C73.2737 29.9713 73.4625 30.5781 73.4642 31.1998C73.4835 31.5934 73.4238 31.9869 73.2887 32.3571C73.1535 32.7273 72.9456 33.0667 72.6772 33.3552C72.4087 33.6438 72.0853 33.8756 71.7258 34.0372C71.3664 34.1987 70.9782 34.2867 70.5842 34.2958H70.5962ZM57.2882 27.6718V29.8318H62.4722C62.3909 30.8492 61.968 31.8092 61.2722 32.5558C60.7536 33.0841 60.1301 33.4979 59.4419 33.7707C58.7536 34.0436 58.0159 34.1693 57.2762 34.1398C55.7485 34.1398 54.2835 33.5329 53.2033 32.4527C52.123 31.3725 51.5162 29.9074 51.5162 28.3798C51.5162 26.8522 52.123 25.3871 53.2033 24.3069C54.2835 23.2267 55.7485 22.6198 57.2762 22.6198C58.7375 22.596 60.1487 23.1527 61.2002 24.1678L62.7242 22.6438C62.0144 21.925 61.1675 21.3561 60.2337 20.9706C59.3 20.5851 58.2983 20.391 57.2882 20.3998C56.2214 20.3583 55.1572 20.5325 54.1593 20.9122C53.1615 21.2918 52.2506 21.8689 51.4811 22.609C50.7116 23.3491 50.0995 24.2369 49.6814 25.2192C49.2633 26.2016 49.0477 27.2582 49.0477 28.3258C49.0477 29.3934 49.2633 30.45 49.6814 31.4324C50.0995 32.4147 50.7116 33.3025 51.4811 34.0426C52.2506 34.7827 53.1615 35.3598 54.1593 35.7394C55.1572 36.1191 56.2214 36.2933 57.2882 36.2518C58.3153 36.2982 59.3405 36.1241 60.2947 35.7412C61.2489 35.3582 62.1101 34.7754 62.8202 34.0318C64.0774 32.6505 64.7486 30.8347 64.6922 28.9678C64.6961 28.513 64.6559 28.0589 64.5722 27.6118L57.2882 27.6718ZM111.66 29.3518C111.347 28.4311 110.762 27.6271 109.982 27.0464C109.202 26.4657 108.264 26.1356 107.292 26.0998C106.636 26.0985 105.986 26.2319 105.383 26.4916C104.78 26.7514 104.237 27.132 103.787 27.61C103.338 28.088 102.991 28.6532 102.768 29.2707C102.545 29.8881 102.451 30.5447 102.492 31.1998C102.478 31.8705 102.598 32.5372 102.847 33.1602C103.096 33.7832 103.468 34.3497 103.941 34.8257C104.413 35.3017 104.977 35.6776 105.598 35.9309C106.22 36.1842 106.885 36.3096 107.556 36.2998C108.396 36.3043 109.223 36.1006 109.964 35.7069C110.706 35.3132 111.338 34.7418 111.804 34.0438L110.064 32.8438C109.805 33.2767 109.437 33.6348 108.997 33.8831C108.558 34.1313 108.061 34.2611 107.556 34.2598C107.036 34.2796 106.523 34.1426 106.082 33.8665C105.641 33.5904 105.293 33.1881 105.084 32.7118L111.912 29.8918L111.66 29.3518ZM104.7 31.0558C104.676 30.6846 104.726 30.3123 104.847 29.9607C104.969 29.6091 105.159 29.2853 105.407 29.0081C105.655 28.731 105.956 28.5061 106.292 28.3467C106.628 28.1873 106.993 28.0966 107.364 28.0798C107.751 28.0543 108.137 28.1431 108.474 28.3351C108.811 28.5271 109.085 28.8138 109.26 29.1598L104.7 31.0558ZM99.1562 35.9998H101.4V20.9998H99.1562V35.9998ZM95.4842 27.2398H95.4002C95.062 26.8617 94.6477 26.5593 94.1845 26.3525C93.7212 26.1457 93.2195 26.0391 92.7122 26.0398C91.4008 26.1034 90.1642 26.6691 89.2586 27.6197C88.353 28.5703 87.8478 29.8329 87.8478 31.1458C87.8478 32.4587 88.353 33.7213 89.2586 34.6719C90.1642 35.6225 91.4008 36.1882 92.7122 36.2518C93.2207 36.2604 93.7249 36.1573 94.1893 35.95C94.6537 35.7427 95.0671 35.4361 95.4002 35.0518H95.4722V35.7838C95.4722 37.7398 94.4282 38.7838 92.7482 38.7838C92.1887 38.7707 91.6457 38.5914 91.1884 38.2687C90.731 37.946 90.3801 37.4946 90.1802 36.9718L88.2242 37.7878C88.5924 38.6834 89.2198 39.4486 90.0258 39.9853C90.8319 40.522 91.7799 40.8056 92.7482 40.7998C95.3762 40.7998 97.5482 39.2518 97.5482 35.4838V26.3998H95.4842V27.2398ZM92.9162 34.2958C92.1421 34.2276 91.4217 33.8719 90.8969 33.2988C90.3721 32.7257 90.081 31.9769 90.081 31.1998C90.081 30.4227 90.3721 29.6739 90.8969 29.1008C91.4217 28.5277 92.1421 28.172 92.9162 28.1038C93.3 28.1235 93.6759 28.2198 94.0219 28.387C94.3679 28.5543 94.677 28.7891 94.9308 29.0776C95.1847 29.3661 95.3782 29.7025 95.5 30.067C95.6219 30.4315 95.6695 30.8166 95.6402 31.1998C95.6729 31.5846 95.6273 31.9721 95.506 32.3388C95.3847 32.7055 95.1903 33.0437 94.9346 33.3331C94.6788 33.6226 94.367 33.8571 94.018 34.0225C93.669 34.188 93.2901 34.281 92.9042 34.2958H92.9162ZM122.172 20.9998H116.808V35.9998H119.052V30.3118H122.184C122.824 30.3577 123.466 30.2714 124.071 30.0583C124.675 29.8451 125.23 29.5096 125.699 29.0728C126.168 28.6359 126.543 28.1071 126.799 27.5192C127.055 26.9313 127.187 26.297 127.187 25.6558C127.187 25.0146 127.055 24.3803 126.799 23.7924C126.543 23.2045 126.168 22.6757 125.699 22.2388C125.23 21.802 124.675 21.4665 124.071 21.2533C123.466 21.0402 122.824 20.9539 122.184 20.9998H122.172ZM122.172 28.1998H119.04V23.0878H122.22C122.903 23.0878 123.558 23.359 124.04 23.8417C124.523 24.3244 124.794 24.9791 124.794 25.6618C124.794 26.3445 124.523 26.9992 124.04 27.4819C123.558 27.9646 122.903 28.2358 122.22 28.2358L122.172 28.1998ZM136.008 26.0398C135.191 25.991 134.378 26.1819 133.668 26.5891C132.958 26.9963 132.383 27.602 132.012 28.3318L134.004 29.1598C134.201 28.7978 134.498 28.5007 134.86 28.3047C135.222 28.1087 135.634 28.0222 136.044 28.0558C136.329 28.0225 136.618 28.0463 136.893 28.1258C137.169 28.2053 137.426 28.3388 137.649 28.5187C137.873 28.6985 138.058 28.921 138.194 29.1733C138.331 29.4255 138.416 29.7024 138.444 29.9878V30.1438C137.723 29.7622 136.92 29.5644 136.104 29.5678C133.956 29.5678 131.784 30.7678 131.784 32.9398C131.805 33.4029 131.919 33.8571 132.119 34.2755C132.319 34.6938 132.6 35.0679 132.947 35.3756C133.294 35.6832 133.699 35.9182 134.138 36.0667C134.577 36.2151 135.042 36.274 135.504 36.2398C136.069 36.2804 136.635 36.1681 137.142 35.9147C137.648 35.6613 138.078 35.2762 138.384 34.7998H138.456V35.9998H140.616V30.2278C140.616 27.5998 138.624 26.0758 136.068 26.0758L136.008 26.0398ZM135.732 34.2598C135 34.2598 133.98 33.8878 133.98 32.9878C133.98 31.7878 135.252 31.3918 136.38 31.3918C137.093 31.3742 137.798 31.5483 138.42 31.8958C138.345 32.5455 138.038 33.1462 137.555 33.5872C137.072 34.0282 136.446 34.2799 135.792 34.2958L135.732 34.2598ZM148.488 26.3998L145.92 32.9038H145.848L143.184 26.3998H140.784L144.78 35.4958L142.5 40.5478H144.84L150.984 26.3998H148.488ZM128.316 35.9998H130.56V20.9998H128.316V35.9998Z" fill="white"/>
<path d="M50.5323 17.1239H49.6443V14.7239H50.4003C50.745 14.3586 51.0053 13.9221 51.1629 13.4452C51.3205 12.9683 51.3715 12.4627 51.3123 11.9639V8.3999H56.1123V14.7119H56.9163V17.1119H56.0283V15.5999H50.5323V17.1239ZM52.2003 11.9999C52.2563 12.9679 52.0178 13.9301 51.5163 14.7599H55.1163V9.2879H52.2003V11.9999ZM64.0923 14.6639C63.3908 15.3615 62.4416 15.7531 61.4523 15.7531C60.4629 15.7531 59.5138 15.3615 58.8123 14.6639C58.1304 13.9421 57.7505 12.9868 57.7505 11.9939C57.7505 11.001 58.1304 10.0457 58.8123 9.3239C59.1581 8.97559 59.5694 8.69915 60.0225 8.5105C60.4755 8.32186 60.9615 8.22474 61.4523 8.22474C61.9431 8.22474 62.429 8.32186 62.8821 8.5105C63.3352 8.69915 63.7465 8.97559 64.0923 9.3239C64.7769 10.0443 65.1586 11.0001 65.1586 11.9939C65.1586 12.9877 64.7769 13.9435 64.0923 14.6639ZM59.4963 14.0639C60.0158 14.5812 60.7191 14.8717 61.4523 14.8717C62.1855 14.8717 62.8888 14.5812 63.4083 14.0639C63.921 13.4987 64.205 12.763 64.205 11.9999C64.205 11.2368 63.921 10.5011 63.4083 9.9359C62.8888 9.41855 62.1855 9.12809 61.4523 9.12809C60.7191 9.12809 60.0158 9.41855 59.4963 9.9359C58.9836 10.5011 58.6996 11.2368 58.6996 11.9999C58.6996 12.763 58.9836 13.4987 59.4963 14.0639ZM69.8163 15.7559C69.3209 15.7657 68.8286 15.6752 68.3692 15.4898C67.9097 15.3044 67.4925 15.0279 67.1427 14.677C66.7929 14.326 66.5177 13.908 66.3338 13.4479C66.1498 12.9878 66.0609 12.4953 66.0723 11.9999C66.0609 11.5045 66.1498 11.012 66.3338 10.5519C66.5177 10.0918 66.7929 9.67376 67.1427 9.32283C67.4925 8.97191 67.9097 8.69541 68.3692 8.50999C68.8286 8.32456 69.3209 8.23405 69.8163 8.2439C70.3184 8.23147 70.8168 8.33298 71.274 8.54082C71.7313 8.74866 72.1355 9.05742 72.4563 9.4439L71.8083 10.0679C71.5713 9.76699 71.2657 9.52719 70.917 9.36853C70.5684 9.20987 70.1869 9.13696 69.8043 9.1559C69.4359 9.14632 69.0695 9.21158 68.7271 9.34771C68.3847 9.48384 68.0735 9.68802 67.8123 9.9479C67.292 10.5165 67.0034 11.2592 67.0034 12.0299C67.0034 12.8006 67.292 13.5433 67.8123 14.1119C68.0735 14.3718 68.3847 14.576 68.7271 14.7121C69.0695 14.8482 69.4359 14.9135 69.8043 14.9039C70.2267 14.9001 70.6429 14.8023 71.0228 14.6176C71.4026 14.4328 71.7365 14.1658 72.0003 13.8359L72.6483 14.4839C72.3217 14.88 71.912 15.1996 71.4483 15.4199C70.9361 15.6519 70.3785 15.7667 69.8163 15.7559ZM76.4163 15.5999H75.4923V9.2879H73.4763V8.3999H78.4203V9.2879H76.4163V15.5999ZM84.7803 8.3999L82.0563 14.4719C81.9473 14.8311 81.7294 15.1475 81.4327 15.3776C81.1361 15.6076 80.7753 15.7398 80.4003 15.7559C80.1523 15.7527 79.9074 15.6997 79.6803 15.5999L79.9203 14.7479C80.0661 14.8328 80.2315 14.8783 80.4003 14.8799C80.5767 14.8932 80.7528 14.8512 80.9043 14.7599C81.0489 14.6375 81.1603 14.4807 81.2283 14.3039L81.4923 13.7279L79.0923 8.4119H80.1843L81.9603 12.5399L83.6883 8.3999H84.7803ZM85.8243 15.5999V8.3999H91.0323V15.5999H90.1083V9.2879H86.7483V15.5999H85.8243ZM92.6763 15.5999V8.3999H93.6003V11.4839H97.2003V8.3999H98.1243V15.5999H97.2003V12.3479H93.6003V15.5999H92.6763ZM105.672 14.6639C104.971 15.3615 104.022 15.7531 103.032 15.7531C102.043 15.7531 101.094 15.3615 100.392 14.6639C99.7104 13.9421 99.3305 12.9868 99.3305 11.9939C99.3305 11.001 99.7104 10.0457 100.392 9.3239C100.738 8.97559 101.149 8.69915 101.602 8.5105C102.056 8.32186 102.541 8.22474 103.032 8.22474C103.523 8.22474 104.009 8.32186 104.462 8.5105C104.915 8.69915 105.327 8.97559 105.672 9.3239C106.357 10.0443 106.739 11.0001 106.739 11.9939C106.739 12.9877 106.357 13.9435 105.672 14.6639ZM101.076 14.0639C101.596 14.5812 102.299 14.8717 103.032 14.8717C103.765 14.8717 104.469 14.5812 104.988 14.0639C105.501 13.4987 105.785 12.763 105.785 11.9999C105.785 11.2368 105.501 10.5011 104.988 9.9359C104.469 9.41855 103.765 9.12809 103.032 9.12809C102.299 9.12809 101.596 9.41855 101.076 9.9359C100.564 10.5011 100.28 11.2368 100.28 11.9999C100.28 12.763 100.564 13.4987 101.076 14.0639ZM110.508 15.5999V8.3999H113.112C113.653 8.38969 114.177 8.58726 114.576 8.9519C114.777 9.12591 114.937 9.34187 115.044 9.58449C115.152 9.8271 115.205 10.0904 115.2 10.3559C115.206 10.6758 115.114 10.9897 114.936 11.2559C114.76 11.5144 114.515 11.7182 114.228 11.8439C114.576 11.9591 114.882 12.1766 115.104 12.4679C115.335 12.7619 115.458 13.1262 115.452 13.4999C115.458 13.7765 115.404 14.0511 115.292 14.3042C115.18 14.5572 115.013 14.7824 114.804 14.9639C114.386 15.3493 113.837 15.5598 113.268 15.5519L110.508 15.5999ZM111.432 11.4839H113.112C113.269 11.4904 113.426 11.4627 113.571 11.4026C113.716 11.3425 113.846 11.2515 113.952 11.1359C114.059 11.0396 114.144 10.9228 114.204 10.7926C114.265 10.6624 114.298 10.5214 114.302 10.3781C114.307 10.2347 114.282 10.092 114.23 9.95826C114.179 9.82456 114.1 9.70268 114 9.5999C113.9 9.48647 113.776 9.39649 113.637 9.33635C113.498 9.27621 113.348 9.24737 113.196 9.2519H111.48L111.432 11.4839ZM111.432 14.7119H113.292C113.455 14.7174 113.617 14.6868 113.766 14.6225C113.915 14.5582 114.049 14.4617 114.156 14.3399C114.368 14.1204 114.488 13.8287 114.492 13.5239C114.492 13.2056 114.366 12.9004 114.141 12.6754C113.916 12.4503 113.611 12.3239 113.292 12.3239H111.468L111.432 14.7119Z" fill="white"/>
<path fill-rule="evenodd" clip-rule="evenodd" d="M61.4523 8.34474C60.9773 8.34474 60.5071 8.43872 60.0686 8.62128C59.6306 8.80365 59.2329 9.07081 58.8985 9.40739C58.2383 10.1068 57.8705 11.0321 57.8705 11.9939C57.8705 12.9556 58.2382 13.8808 58.8982 14.5801C59.5771 15.2546 60.4953 15.6331 61.4523 15.6331C62.4094 15.6331 63.3275 15.2545 64.0065 14.58C64.6691 13.8821 65.0386 12.9564 65.0386 11.9939C65.0386 11.0313 64.669 10.1055 64.0062 9.40751C63.6718 9.07088 63.2741 8.80368 62.836 8.62128C62.3975 8.43872 61.9273 8.34474 61.4523 8.34474ZM59.9763 8.39972C60.444 8.20499 60.9457 8.10474 61.4523 8.10474C61.9589 8.10474 62.4605 8.20499 62.9283 8.39972C63.396 8.59445 63.8205 8.87981 64.1775 9.23935L64.1793 9.24122C64.8851 9.98391 65.2786 10.9693 65.2786 11.9939C65.2786 13.0185 64.885 14.0039 64.1793 14.7466L64.1769 14.749C63.4529 15.469 62.4733 15.8731 61.4523 15.8731C60.4312 15.8731 59.4517 15.469 58.7277 14.749L58.725 14.7463C58.0221 14.0023 57.6305 13.0175 57.6305 11.9939C57.6305 10.9703 58.0221 9.98554 58.7251 9.24149L58.7271 9.23933C59.084 8.87979 59.5086 8.59445 59.9763 8.39972ZM103.032 8.34474C102.557 8.34474 102.087 8.43872 101.649 8.62128C101.211 8.80364 100.813 9.07078 100.479 9.40733C99.8183 10.1067 99.4505 11.0321 99.4505 11.9939C99.4505 12.9556 99.8182 13.8808 100.478 14.5801C101.157 15.2546 102.075 15.6331 103.032 15.6331C103.989 15.6331 104.908 15.2545 105.587 14.5799C106.249 13.882 106.619 12.9563 106.619 11.9939C106.619 11.0313 106.249 10.1055 105.586 9.40754C105.252 9.07089 104.854 8.80368 104.416 8.62128C103.978 8.43872 103.507 8.34474 103.032 8.34474ZM101.556 8.39972C102.024 8.20499 102.526 8.10474 103.032 8.10474C103.539 8.10474 104.041 8.20499 104.508 8.39972C104.976 8.59445 105.401 8.87981 105.757 9.23935L105.759 9.24122C106.465 9.98393 106.859 10.9693 106.859 11.9939C106.859 13.0185 106.465 14.0039 105.759 14.7466L105.757 14.749C105.033 15.469 104.053 15.8731 103.032 15.8731C102.011 15.8731 101.032 15.469 100.308 14.749L100.305 14.7463C99.6021 14.0023 99.2105 13.0175 99.2105 11.9939C99.2105 10.9703 99.6021 9.98554 100.305 9.24149L100.307 9.23933C100.664 8.87979 101.089 8.59445 101.556 8.39972ZM71.2244 8.65006C70.7837 8.44973 70.3032 8.35188 69.8193 8.36386L69.8139 8.36399C69.3347 8.35447 68.8585 8.4419 68.4141 8.62127C67.9696 8.80063 67.566 9.0681 67.2277 9.40755C66.8893 9.74701 66.6231 10.1514 66.4452 10.5965C66.2672 11.0415 66.1812 11.518 66.1923 11.9971L66.1924 12.0027C66.1813 12.4818 66.2672 12.9583 66.4452 13.4033C66.6231 13.8484 66.8893 14.2528 67.2277 14.5922C67.566 14.9317 67.9696 15.1992 68.4141 15.3785C68.8585 15.5579 69.3347 15.6454 69.8139 15.6359L69.8163 15.7559L69.8186 15.6359C70.3626 15.6464 70.9021 15.5354 71.3978 15.3111C71.8124 15.1139 72.1823 14.8346 72.4851 14.4904L72.0081 14.0134C71.748 14.3103 71.431 14.5525 71.0752 14.7255C70.6797 14.9179 70.2462 15.0198 69.8064 15.0239C69.4222 15.0337 69.0399 14.9656 68.6828 14.8236C68.3253 14.6815 68.0004 14.4683 67.7277 14.197L67.7237 14.193C67.1831 13.6023 66.8834 12.8306 66.8834 12.0299C66.8834 11.2292 67.1832 10.4576 67.7238 9.86689L67.7276 9.86274C68.0003 9.59141 68.3253 9.37833 68.6828 9.2362C69.0388 9.09463 69.4198 9.02648 69.8029 9.03582C70.2031 9.01674 70.6021 9.09334 70.9668 9.25931C71.2926 9.40761 71.5827 9.62344 71.818 9.89193L72.2914 9.43612C71.9946 9.10291 71.6313 8.83503 71.2244 8.65006ZM69.8163 15.8759C69.3055 15.8858 68.798 15.7923 68.3242 15.6011C67.8497 15.4096 67.4189 15.1241 67.0577 14.7617C66.6964 14.3993 66.4123 13.9675 66.2223 13.4924C66.0327 13.0182 65.9408 12.5105 65.9523 11.9999C65.9408 11.4893 66.0327 10.9816 66.2223 10.5074C66.4123 10.0323 66.6964 9.60051 67.0577 9.23812C67.4189 8.87573 67.8497 8.59019 68.3242 8.39871C68.7979 8.20756 69.3053 8.11408 69.816 8.12387C70.3353 8.11141 70.8508 8.2166 71.3237 8.43158C71.7975 8.64692 72.2163 8.96682 72.5486 9.36726L72.6198 9.45302L71.796 10.2463L71.714 10.1422C71.4889 9.85629 71.1985 9.62848 70.8673 9.47775C70.5361 9.32703 70.1737 9.25776 69.8102 9.27575L69.8012 9.2762C69.449 9.26705 69.0988 9.32908 68.7714 9.45922C68.445 9.58901 68.1482 9.7835 67.8989 10.031C67.4001 10.5772 67.1234 11.2901 67.1234 12.0299C67.1234 12.7697 67.4001 13.4826 67.8989 14.0288C68.1482 14.2763 68.445 14.4708 68.7714 14.6006C69.0988 14.7307 69.4491 14.7931 69.8012 14.7839L69.8032 14.7839C70.2078 14.7803 70.6064 14.6866 70.9703 14.5097C71.3341 14.3327 71.6539 14.077 71.9066 13.761L71.9903 13.6562L72.8102 14.4761L72.7409 14.5602C72.4031 14.9699 71.9794 15.3004 71.4998 15.5283L71.4978 15.5292C70.97 15.7683 70.3956 15.8867 69.8163 15.8759ZM114.495 9.04051C114.119 8.69659 113.625 8.51025 113.115 8.51988L113.112 8.5199H110.628V15.4778L113.266 15.4319L113.27 15.4319C113.808 15.4394 114.328 15.2403 114.723 14.8757L114.726 14.8733C114.921 14.7034 115.077 14.4925 115.182 14.2556C115.287 14.0187 115.338 13.7616 115.332 13.5026L115.332 13.4981C115.337 13.1519 115.224 12.8144 115.01 12.542L115.009 12.5408C114.801 12.2686 114.516 12.0655 114.191 11.9578L113.894 11.8596L114.18 11.734C114.446 11.6174 114.673 11.4285 114.837 11.1889C115.001 10.9432 115.086 10.6533 115.08 10.358V10.3535C115.085 10.1057 115.035 9.85977 114.935 9.63322C114.834 9.40667 114.685 9.20502 114.498 9.04253L114.495 9.04051ZM114.656 8.86231C114.235 8.47783 113.682 8.26942 113.111 8.2799H110.388V15.722L113.267 15.6719L113.269 15.6719C113.866 15.6797 114.445 15.4584 114.884 15.0533C115.106 14.8605 115.282 14.6213 115.401 14.3527C115.52 14.0843 115.578 13.793 115.572 13.4995L115.572 13.5017L115.452 13.4999L115.572 13.4972L115.572 13.4995C115.578 13.0993 115.446 12.7093 115.199 12.3944C115.016 12.1545 114.78 11.9616 114.51 11.8297C114.718 11.6994 114.897 11.5273 115.035 11.3235L115.036 11.3225C115.227 11.0366 115.326 10.6995 115.32 10.356L115.32 10.3582L115.2 10.3559L115.32 10.3538L115.32 10.356C115.326 10.0737 115.269 9.79374 115.154 9.53575C115.039 9.27755 114.869 9.04767 114.656 8.86231ZM51.1923 8.2799H56.2323V14.5919H57.0363V17.2319H55.9083V15.7199H50.6523V17.2439H49.5243V14.6039H50.348C50.6633 14.2592 50.9023 13.8515 51.049 13.4076C51.2011 12.9473 51.2503 12.4594 51.1931 11.978L51.1923 11.971V8.2799ZM51.4323 8.5199V11.9569C51.4922 12.4707 51.4392 12.9916 51.2769 13.4829C51.1138 13.9764 50.8443 14.4282 50.4876 14.8063L50.452 14.8439H49.7643V17.0039H50.4123V15.4799H56.1483V16.9919H56.7963V14.8319H55.9923V8.5199H51.4323ZM73.3563 8.2799H78.5403V9.4079H76.5363V15.7199H75.3723V9.4079H73.3563V8.2799ZM73.5963 8.5199V9.1679H75.6123V15.4799H76.2963V9.1679H78.3003V8.5199H73.5963ZM83.6083 8.2799H84.9656L82.1688 14.5142C82.0519 14.8941 81.8205 15.2287 81.5062 15.4724C81.19 15.7176 80.8053 15.8586 80.4054 15.8758L80.3988 15.8761C80.1346 15.8727 79.8739 15.816 79.632 15.7098L79.5365 15.6678L79.8468 14.5662L79.9807 14.6442C80.1085 14.7186 80.2535 14.7585 80.4014 14.7599L80.4093 14.76C80.5577 14.7712 80.7059 14.7371 80.8341 14.662C80.9597 14.5536 81.0567 14.4158 81.1163 14.2608L81.119 14.2538L81.3605 13.7275L78.9065 8.2919H80.2633L81.9586 12.2324L83.6083 8.2799ZM83.7682 8.5199L81.962 12.8474L80.1053 8.5319H79.2781L81.6241 13.7283L81.3389 14.3506C81.2635 14.5447 81.1408 14.7169 80.9818 14.8515L80.9745 14.8577L80.9663 14.8627C80.7946 14.9662 80.5951 15.0141 80.3952 14.9998C80.2581 14.9981 80.1229 14.9705 79.9968 14.919L79.8249 15.529C80.0084 15.5968 80.2024 15.633 80.3985 15.6359C80.7475 15.6202 81.0831 15.4968 81.3592 15.2827C81.6362 15.0679 81.8396 14.7724 81.9415 14.437L81.9437 14.4297L84.5949 8.5199H83.7682ZM85.7043 8.2799H91.1523V15.7199H89.9883V9.4079H86.8683V15.7199H85.7043V8.2799ZM85.9443 8.5199V15.4799H86.6283V9.1679H90.2283V15.4799H90.9123V8.5199H85.9443ZM92.5563 8.2799H93.7203V11.3639H97.0803V8.2799H98.2443V15.7199H97.0803V12.4679H93.7203V15.7199H92.5563V8.2799ZM92.7963 8.5199V15.4799H93.4803V12.2279H97.3203V15.4799H98.0043V8.5199H97.3203V11.6039H93.4803V8.5199H92.7963ZM59.4116 9.85087C59.9536 9.31113 60.6874 9.00809 61.4523 9.00809C62.2172 9.00809 62.951 9.31113 63.493 9.85087L63.4973 9.85517C64.03 10.4424 64.325 11.207 64.325 11.9999C64.325 12.7928 64.0299 13.5573 63.4972 14.1445L63.4931 14.149C62.9511 14.6888 62.2172 14.9917 61.4523 14.9917C60.6874 14.9917 59.9536 14.6887 59.4116 14.1489L59.4963 14.0639L59.4074 14.1445C58.8747 13.5573 58.5796 12.7928 58.5796 11.9999C58.5796 11.207 58.8747 10.4425 59.4074 9.85527L59.4116 9.85087ZM59.5831 13.981C60.0799 14.4746 60.7519 14.7517 61.4523 14.7517C62.1527 14.7517 62.8246 14.4746 63.3215 13.981C63.8128 13.4382 64.085 12.7321 64.085 11.9999C64.085 11.2677 63.8128 10.5616 63.3215 10.0188C62.8246 9.52517 62.1527 9.24809 61.4523 9.24809C60.7519 9.24809 60.0799 9.52517 59.5831 10.0188C59.0918 10.5616 58.8196 11.2677 58.8196 11.9999C58.8196 12.7321 59.0918 13.4382 59.5831 13.981ZM100.992 9.85087C101.534 9.31113 102.267 9.00809 103.032 9.00809C103.797 9.00809 104.531 9.31113 105.073 9.85087L105.077 9.85517C105.61 10.4424 105.905 11.207 105.905 11.9999C105.905 12.7928 105.61 13.5573 105.077 14.1445L105.073 14.149C104.531 14.6888 103.797 14.9917 103.032 14.9917C102.267 14.9917 101.534 14.6887 100.992 14.1489L101.076 14.0639L100.987 14.1445C100.455 13.5573 100.16 12.7928 100.16 11.9999C100.16 11.207 100.455 10.4425 100.987 9.85527L100.992 9.85087ZM101.163 13.981C101.66 14.4746 102.332 14.7517 103.032 14.7517C103.733 14.7517 104.405 14.4746 104.901 13.981C105.393 13.4382 105.665 12.7321 105.665 11.9999C105.665 11.2676 105.393 10.5616 104.901 10.0188C104.405 9.52517 103.733 9.24809 103.032 9.24809C102.332 9.24809 101.66 9.52517 101.163 10.0188C100.672 10.5616 100.4 11.2676 100.4 11.9999C100.4 12.7321 100.672 13.4382 101.163 13.981ZM113.195 9.1319C113.363 9.12714 113.53 9.15933 113.685 9.22622C113.839 9.29299 113.977 9.39269 114.088 9.51833C114.199 9.63222 114.285 9.76703 114.342 9.91483C114.4 10.0636 114.427 10.2224 114.422 10.3818C114.417 10.5413 114.38 10.6981 114.313 10.8429C114.247 10.9861 114.153 11.1147 114.037 11.2211C113.919 11.3477 113.776 11.4474 113.617 11.5135C113.456 11.5799 113.283 11.6108 113.11 11.6039H111.31L111.363 9.1319H113.195ZM113.589 9.44647C113.467 9.39333 113.334 9.36785 113.2 9.37184L113.196 9.3719H111.598L111.555 11.3639H113.117C113.257 11.3697 113.396 11.3452 113.525 11.2917C113.654 11.2383 113.769 11.1574 113.864 11.0547L113.868 11.0507L113.872 11.047C113.966 10.9615 114.042 10.8579 114.095 10.7423C114.149 10.6267 114.178 10.5016 114.182 10.3743C114.186 10.2471 114.165 10.1204 114.119 10.0017C114.073 9.883 114.003 9.77482 113.914 9.68359L113.91 9.67947C113.822 9.57923 113.712 9.49962 113.589 9.44647ZM52.0803 9.1679H55.2363V14.8799H51.3036L51.4136 14.6978C51.9026 13.8888 52.1351 12.9506 52.0805 12.0068L52.0801 11.9999L52.0803 9.1679ZM52.3203 9.4079V11.9965C52.3729 12.9174 52.1655 13.8332 51.7238 14.6399H54.9963V9.4079H52.3203ZM111.35 12.2039H113.292C113.642 12.2039 113.978 12.343 114.226 12.5905C114.473 12.8381 114.612 13.1738 114.612 13.5239L114.612 13.5256C114.608 13.86 114.476 14.1802 114.244 14.4214C114.125 14.5555 113.978 14.6618 113.813 14.7327C113.648 14.8038 113.47 14.8376 113.29 14.8319H111.31L111.35 12.2039ZM111.586 12.4439L111.554 14.5919H113.296C113.441 14.5968 113.585 14.5696 113.718 14.5123C113.852 14.455 113.97 14.369 114.066 14.2604L114.07 14.2565C114.26 14.0592 114.368 13.7971 114.372 13.523C114.372 13.2369 114.258 12.9626 114.056 12.7602C113.853 12.5577 113.579 12.4439 113.292 12.4439H111.586Z" fill="white"/>
<path d="M12.5279 9.04787C12.1368 9.5172 11.9394 10.118 11.9759 10.7279V37.2719C11.9394 37.8817 12.1368 38.4825 12.5279 38.9519L12.6119 39.0359L27.4799 24.1799V23.8319L12.6119 8.96387L12.5279 9.04787Z" fill="url(#paint0_linear_61_1522)"/>
<path d="M32.4 29.136L27.48 24.18V23.832L32.4 18.864L32.508 18.924L38.4 22.272C40.08 23.22 40.08 24.78 38.4 25.74L32.532 29.076L32.4 29.136Z" fill="url(#paint1_linear_61_1522)"/>
<path d="M32.544 29.064L27.48 24L12.528 38.952C12.8705 39.253 13.3073 39.425 13.763 39.4381C14.2188 39.4513 14.6648 39.3048 15.024 39.024L32.556 29.064" fill="url(#paint2_linear_61_1522)"/>
<path d="M32.544 18.936L15.012 8.97596C14.6528 8.69518 14.2068 8.5487 13.751 8.56185C13.2953 8.575 12.8584 8.74694 12.516 9.04796L27.48 24L32.544 18.936Z" fill="url(#paint3_linear_61_1522)"/>
<path opacity="0.2" d="M32.4 28.9561L15.012 38.8561C14.6656 39.1151 14.2446 39.2551 13.812 39.2551C13.3794 39.2551 12.9585 39.1151 12.612 38.8561L12.528 38.9401L12.612 39.024C12.9577 39.2849 13.379 39.4261 13.812 39.4261C14.2451 39.4261 14.6663 39.2849 15.012 39.024L32.544 29.0641L32.4 28.9561Z" fill="black"/>
<path opacity="0.12" d="M12.5279 38.784C12.1368 38.3147 11.9394 37.7138 11.9759 37.104V37.284C11.9394 37.8938 12.1368 38.4947 12.5279 38.964L12.6119 38.88L12.5279 38.784ZM38.3999 25.56L32.3999 28.956L32.5079 29.064L38.3999 25.728C38.7342 25.571 39.0212 25.3285 39.2319 25.0251C39.4426 24.7217 39.5695 24.3681 39.5999 24C39.5324 24.3344 39.3892 24.649 39.1812 24.9194C38.9731 25.1898 38.7059 25.409 38.3999 25.56Z" fill="black"/>
<path opacity="0.25" d="M15.0121 9.14344L38.4001 22.4394C38.706 22.5905 38.9733 22.8096 39.1813 23.08C39.3893 23.3505 39.5326 23.665 39.6001 23.9994C39.5697 23.6313 39.4427 23.2777 39.232 22.9743C39.0214 22.6709 38.7344 22.4285 38.4001 22.2714L15.0121 8.97544C13.3321 8.02744 11.9641 8.81944 11.9641 10.7394V10.9194C12.0001 8.98744 13.3441 8.19544 15.0121 9.14344Z" fill="white"/>
</g>
<defs>
<linearGradient id="paint0_linear_61_1522" x1="26.1599" y1="10.4519" x2="6.02392" y2="30.5879" gradientUnits="userSpaceOnUse">
<stop stop-color="#00A0FF"/>
<stop offset="0.01" stop-color="#00A1FF"/>
<stop offset="0.26" stop-color="#00BEFF"/>
<stop offset="0.51" stop-color="#00D2FF"/>
<stop offset="0.76" stop-color="#00DFFF"/>
<stop offset="1" stop-color="#00E3FF"/>
</linearGradient>
<linearGradient id="paint1_linear_61_1522" x1="40.596" y1="24" x2="11.568" y2="24" gradientUnits="userSpaceOnUse">
<stop stop-color="#FFE000"/>
<stop offset="0.41" stop-color="#FFBD00"/>
<stop offset="0.78" stop-color="#FFA500"/>
<stop offset="1" stop-color="#FF9C00"/>
</linearGradient>
<linearGradient id="paint2_linear_61_1522" x1="29.796" y1="26.76" x2="2.48401" y2="54.06" gradientUnits="userSpaceOnUse">
<stop stop-color="#FF3A44"/>
<stop offset="1" stop-color="#C31162"/>
</linearGradient>
<linearGradient id="paint3_linear_61_1522" x1="8.75999" y1="0.215962" x2="20.952" y2="12.408" gradientUnits="userSpaceOnUse">
<stop stop-color="#32A071"/>
<stop offset="0.07" stop-color="#2DA771"/>
<stop offset="0.48" stop-color="#15CF74"/>
<stop offset="0.8" stop-color="#06E775"/>
<stop offset="1" stop-color="#00F076"/>
</linearGradient>
<clipPath id="clip0_61_1522">
<rect width="162" height="48" fill="white"/>
</clipPath>
</defs>
</svg>
