<svg width="48" height="48" viewBox="0 0 48 48" fill="none" xmlns="http://www.w3.org/2000/svg">
<g clip-path="url(#clip0_61_1519)">
<rect width="48" height="48" rx="24" fill="#EE8208"/>
<path d="M23.9997 12.8402C25.8854 12.8402 27.4192 14.374 27.4192 16.2596C27.4192 18.1436 25.885 19.6774 23.9997 19.6774C22.1153 19.6774 20.5811 18.1436 20.5811 16.2596C20.5807 14.3736 22.1157 12.8402 23.9997 12.8402ZM23.9997 24.5152C28.5545 24.5152 32.2585 20.8124 32.2585 16.2596C32.2585 11.7044 28.5549 8 23.9997 8C19.4454 8 15.7409 11.7048 15.7409 16.2596C15.7409 20.8124 19.4454 24.5152 23.9997 24.5152ZM27.3409 31.2517C29.0399 30.8648 30.6612 30.1934 32.1364 29.266C32.6795 28.9244 33.0646 28.3809 33.207 27.7553C33.3494 27.1297 33.2375 26.4731 32.8958 25.93C32.7268 25.6609 32.5064 25.4276 32.2472 25.2437C31.988 25.0598 31.6951 24.9287 31.3852 24.8581C31.0754 24.7875 30.7546 24.7786 30.4413 24.832C30.128 24.8855 29.8283 25.0001 29.5594 25.1695C26.1759 27.2966 21.8212 27.295 18.4405 25.1695C18.1716 25.0001 17.8719 24.8854 17.5587 24.8319C17.2454 24.7785 16.9246 24.7873 16.6148 24.858C16.3049 24.9286 16.0121 25.0597 15.7529 25.2436C15.4937 25.4276 15.2734 25.6608 15.1045 25.93C14.7627 26.473 14.6506 27.1294 14.7928 27.755C14.935 28.3807 15.3198 28.9242 15.8627 29.266C17.3378 30.1931 18.9588 30.8644 20.6574 31.2517L16.0406 35.8693C15.5869 36.3232 15.3321 36.9387 15.3322 37.5804C15.3323 38.2222 15.5873 38.8376 16.0412 39.2913C16.495 39.745 17.1106 39.9998 17.7523 39.9997C18.3941 39.9996 19.0095 39.7446 19.4632 39.2907L23.999 34.7541L28.5375 39.2911C28.7619 39.5158 29.0284 39.6941 29.3218 39.8157C29.6151 39.9374 29.9296 40 30.2472 40C30.5648 40 30.8793 39.9374 31.1726 39.8157C31.466 39.6941 31.7325 39.5158 31.9569 39.2911C32.182 39.0667 32.3606 38.8001 32.4824 38.5066C32.6042 38.2131 32.667 37.8984 32.667 37.5806C32.667 37.2628 32.6042 36.9481 32.4824 36.6546C32.3606 36.361 32.182 36.0945 31.9569 35.8701L27.3409 31.2517Z" fill="white"/>
</g>
<defs>
<clipPath id="clip0_61_1519">
<rect width="48" height="48" fill="white"/>
</clipPath>
</defs>
</svg>
