<svg width="56" height="45" viewBox="0 0 56 45" fill="none" xmlns="http://www.w3.org/2000/svg">
<path d="M25.3737 1.77344H17.7847C17.354 2.24137 17.0835 2.85496 17.0835 3.53344C17.0835 4.21191 17.354 4.82508 17.7847 5.29344H25.3728C25.8044 4.82508 26.074 4.21191 26.074 3.53344C26.074 2.85496 25.8044 2.24137 25.3737 1.77344Z" fill="#00CCDB"/>
<path d="M14.3861 22.8943V20.2543H6.46997C5.22576 21.3259 4.22214 22.6811 3.58028 24.2521L1.61826 29.0543H8.09219C11.5618 29.0543 14.3861 26.2901 14.3861 22.8943Z" fill="#00CCDB"/>
<path d="M27.8731 28.1743H17.0835V24.6543C17.0835 22.7104 18.6939 21.1343 20.6801 21.1343H31.4696V24.6543C31.4696 26.5982 29.8593 28.1743 27.8731 28.1743Z" fill="#00CCDB"/>
<path d="M55.9987 17.6143H50.819L47.2225 22.0143H35.9017C35.507 19.3214 33.3228 17.191 30.5705 16.8039V16.7343C30.5705 14.793 28.9575 13.2143 26.974 13.2143H24.9777L24.0795 9.69429H22.4783V6.17429H38.6627C41.1415 6.17429 43.1584 4.2003 43.1584 1.77429V0.894287H4.49566C2.0169 0.894287 0 2.86784 0 5.29429V6.17429H20.6801V9.69429H19.0789L18.1807 13.2143H16.9531C15.582 13.2143 14.3492 13.9602 13.7359 15.1599L12.9189 16.7588C8.39337 17.0114 4.44693 19.7649 2.74613 23.9255L0.333663 29.8269C0.112392 30.3687 0 30.9402 0 31.5254C0 34.0447 2.09417 36.0943 4.6682 36.0943H8.99133V39.6143H7.19306V37.8543H1.79827V39.6143C1.79827 42.5263 4.21776 44.8943 7.19306 44.8943H28.7723C31.7476 44.8943 34.167 42.5263 34.167 39.6143V37.8543H28.7723V39.6143H26.974V36.0943H29.757C31.6909 36.0943 33.4479 34.9028 34.1284 33.1294L35.6892 29.0543H47.2225L50.819 33.4543H56L53.977 25.5343L55.9987 17.6143ZM4.49566 2.65429H41.2065C40.835 3.67866 39.8354 4.41429 38.6627 4.41429H1.95193C2.32335 3.38991 3.32302 2.65429 4.49566 2.65429ZM20.4829 11.4543H22.6754L23.1259 13.2143H20.0334L20.4829 11.4543ZM16.9523 14.9743H26.974C27.9658 14.9743 28.7723 15.7636 28.7723 16.7343H14.9419L15.3437 15.9467C15.6501 15.3473 16.2669 14.9743 16.9523 14.9743ZM10.7896 36.0943H12.5879V39.6143H10.7896V36.0943ZM14.3861 39.6143V36.0943H21.5792V39.6143H14.3861ZM30.5705 39.6143H32.3688C32.3688 41.5556 30.7558 43.1343 28.7723 43.1343H7.19306C5.20953 43.1343 3.59653 41.5556 3.59653 39.6143H5.3948C5.3948 40.5849 6.20129 41.3743 7.19306 41.3743H28.7723C29.764 41.3743 30.5705 40.5849 30.5705 39.6143ZM25.1757 39.6143H23.3775V36.0943H25.1757V39.6143ZM53.6955 31.6943H51.6821L48.0856 27.2943H34.4432L32.4443 32.5107C32.0263 33.6012 30.9463 34.3343 29.757 34.3343H4.6682C3.08594 34.3343 1.79827 33.074 1.79827 31.5254C1.79827 31.1645 1.86763 30.8143 2.00417 30.4809L4.41664 24.5787C5.92602 20.8825 9.5309 18.4943 13.5985 18.4943H29.6714C32.1501 18.4943 34.167 20.4678 34.167 22.8943V23.7743H48.0856L51.6821 19.3743H53.6942L52.1207 25.5343L53.6955 31.6943Z" fill="#2A2349"/>
<path d="M16.1844 24.6543V29.0543H27.8731C30.3519 29.0543 32.3688 27.0803 32.3688 24.6543V20.2543H20.6801C18.2013 20.2543 16.1844 22.2278 16.1844 24.6543ZM17.9827 24.6543C17.9827 23.1985 19.1931 22.0143 20.6801 22.0143H24.6199L21.9225 27.2943H17.9827V24.6543ZM30.5705 24.6543C30.5705 26.1096 29.3601 27.2943 27.8731 27.2943H23.9333L26.6307 22.0143H30.5705V24.6543Z" fill="#2A2349"/>
<path d="M16.1844 30.8143H17.9827V32.5743H16.1844V30.8143Z" fill="#2A2349"/>
<path d="M19.7809 30.8143H21.5792V32.5743H19.7809V30.8143Z" fill="#2A2349"/>
<path d="M23.3774 30.8143H25.1757V32.5743H23.3774V30.8143Z" fill="#2A2349"/>
</svg>
