<svg width="48" height="48" viewBox="0 0 48 48" fill="none" xmlns="http://www.w3.org/2000/svg">
<path d="M10.4999 9.74874C10.4999 6.08407 12.1666 3.13198 12.9999 2.11402C12.6666 1.94436 11.5 1.91043 9.5 3.13198C7.00005 4.65893 4.99995 7.20383 2.49995 10.2577C0.499948 12.7008 0.999948 20.098 1.49995 23.4912C2.16661 22.3036 3.99995 19.7248 5.99995 18.9104C7.99995 18.096 10.8333 18.9104 11.9999 19.4194C11.4999 17.7228 10.4999 13.4134 10.4999 9.74874Z" fill="#00CCDB"/>
<path d="M36.5 30.1081C33.7 32.144 32.3333 34.6889 32 35.7069L33.5 36.7248L36 39.7787L37.5 39.2697L42.5 35.1979L45 30.1081V28.0722C44.6667 27.7328 43.9 27.0542 43.5 27.0542C43 27.0542 40 27.5632 36.5 30.1081Z" fill="#00CCDB"/>
<path fill-rule="evenodd" clip-rule="evenodd" d="M43.1224 42.9444C43.9704 43.6981 44.7167 44.6015 45.3264 45.6206L45.4269 45.7877L45.4271 45.7881C45.7774 46.37 46.08 46.8727 45.7503 47.4538C45.4755 47.9384 45.0194 48 44.6054 48C44.5324 48 44.4607 47.9981 44.3915 47.9963L44.3807 47.996C44.2707 47.9931 44.1417 47.9897 43.9928 47.9897H24.5V47.99H4.80545C3.50073 48.0148 2.6387 48.0298 2.17801 47.2924C1.72164 46.5618 2.14417 45.6866 2.39673 45.1637C4.04664 41.7454 6.94032 39.4963 10.2264 39.038C11.5622 35.1726 14.9205 32.4565 18.7652 32.2025C19.4865 32.1545 20.2028 32.195 20.9019 32.3177L16.9543 17.3122C15.6384 17.8831 14.5312 18.8714 13.7553 20.1755C13.7908 20.4019 13.7484 20.6418 13.6164 20.8495C13.4354 21.1341 13.1318 21.2891 12.8217 21.2891C12.6458 21.2891 12.4676 21.2391 12.3088 21.1345C12.1433 21.0254 11.9839 20.8883 11.8306 20.7247C10.2228 19.816 8.41492 19.5713 6.69489 20.0401C4.84417 20.5446 3.30929 21.8158 2.37329 23.6194C2.20839 23.9372 1.88504 24.1323 1.53761 24.1323C1.50254 24.1323 1.46711 24.1302 1.43148 24.1262C1.04504 24.0819 0.7247 23.8012 0.624012 23.4188C-1.98046 13.5183 3.80711 3.30331 13.5268 0.638315L13.5388 0.63488L13.5446 0.633257C16.7532 -0.241645 20.1196 -0.204429 23.277 0.710447L23.2819 0.694649C23.6663 0.812044 24.0424 0.940904 24.4099 1.0798C24.9961 1.29261 25.5732 1.53662 26.1387 1.81158C26.2026 1.84263 26.2615 1.88003 26.315 1.92268C29.6649 3.62806 32.0819 6.08031 33.1912 7.85597C34.4403 9.65253 35.3569 11.6462 35.919 13.7914C36.0192 14.1739 35.8793 14.5798 35.5661 14.8145C35.2531 15.0491 34.8308 15.0649 34.5018 14.8541C32.8087 13.7692 30.8578 13.4491 29.009 13.9529C27.2868 14.422 25.8388 15.5557 24.8914 17.1639C24.839 17.3826 24.7683 17.5815 24.6788 17.7596C24.5114 18.0923 24.18 18.2837 23.8364 18.2837C23.6913 18.2837 23.5442 18.2496 23.4063 18.1777C23.19 18.065 23.0355 17.8788 22.9551 17.6647C21.6432 16.9312 20.2001 16.6392 18.7811 16.8141L23.0314 32.9704C24.274 33.5239 25.4075 34.3561 26.3463 35.428C26.7771 35.2269 27.2214 35.0687 27.6768 34.9529C27.4318 31.9302 28.4989 28.9266 30.6232 26.7659C32.5448 24.8078 35.1009 23.729 37.8202 23.729C40.5394 23.729 43.0961 24.8086 45.0184 26.7674C46.9409 28.7241 48 31.3265 48 34.095C48 36.8638 46.9407 39.4666 45.0172 41.4239C44.4437 42.0097 43.8095 42.5178 43.1224 42.9444ZM31.5834 8.87644C31.6509 8.98491 31.7117 9.08919 31.7655 9.18871L31.7895 9.17554C32.4339 10.1329 32.9746 11.1512 33.4076 12.222C31.8212 11.7023 30.1425 11.6514 28.52 12.0933C27.0996 12.4803 25.8271 13.2165 24.7805 14.2373C24.7209 13.9529 24.6506 13.6575 24.5669 13.3484C24.0875 11.5786 23.2532 9.59479 22.2178 7.76246C21.4116 6.33582 19.6671 3.60039 17.349 1.95215C19.836 1.80916 22.3349 2.24368 24.6461 3.2382C27.7441 4.62067 30.0323 6.74258 31.1988 8.3147C31.2271 8.37654 31.2623 8.43624 31.3045 8.49272C31.3994 8.61946 31.4924 8.74738 31.5834 8.87644ZM24.3949 46.0651H4.79701L4.77929 46.0653C4.54801 46.0697 4.28992 46.0741 4.06529 46.0733C4.07448 46.0538 4.08414 46.0337 4.09426 46.0128C5.55001 42.9962 8.13179 41.082 11.0005 40.892C11.3994 40.8655 11.7389 40.5866 11.8484 40.1952C12.8046 36.7785 15.6336 34.3384 18.8885 34.1233C21.3696 33.958 23.7849 35.1162 25.3489 37.2223C25.6386 37.6123 26.1694 37.7192 26.5833 37.471C27.3798 36.993 28.2447 36.7195 29.1533 36.6581C31.727 36.4883 34.0635 38.1128 35.0422 40.6274C35.046 40.6379 35.0499 40.6484 35.0541 40.6588C35.1769 40.9791 35.279 41.3128 35.3556 41.6599C35.4577 42.1225 35.8779 42.4403 36.3397 42.4095C37.9122 42.305 39.4356 42.7134 40.7717 43.5532C40.8184 43.5891 40.8674 43.6213 40.9195 43.6477C41.8398 44.2545 42.6669 45.0688 43.3536 46.0648H24.3949V46.0651ZM10.4921 18.1351C10.4042 17.8584 10.32 17.5669 10.2408 17.2564C9.78704 15.4789 9.5357 13.3356 9.53307 11.2214C9.53092 9.57523 9.69929 6.3175 10.8986 3.70995C4.73907 6.87178 1.11704 13.7361 2.03157 20.7803C3.15217 19.5218 4.58232 18.6233 6.20589 18.1808C7.62451 17.794 9.08626 17.7843 10.4921 18.1351ZM11.424 11.2189C11.4279 14.3598 12.0049 17.0064 12.6243 18.4391C13.8084 16.8122 15.4496 15.659 17.3596 15.1377C19.2697 14.6165 21.2576 14.7796 23.0827 15.5858C22.9163 14.03 22.1169 11.4444 20.5787 8.72234C18.5535 5.13879 16.1389 2.86823 14.0515 2.5574C12.3956 3.88908 11.4188 7.08459 11.424 11.2189ZM31.9605 28.127C30.2472 29.8696 29.3795 32.2852 29.5566 34.7229C30.1353 34.7253 30.7021 34.7944 31.2497 34.9255C32.0683 33.5033 33.1805 32.0613 34.5015 30.716C36.3309 28.8546 38.3532 27.3928 40.1963 26.5996C40.4706 26.4816 40.738 26.3802 40.9982 26.2948C40.0042 25.8745 38.9289 25.654 37.8202 25.654C35.6064 25.654 33.5254 26.5323 31.9605 28.127ZM33.0516 35.6122C34.4191 36.345 35.5715 37.4961 36.3489 38.9385C37.5084 38.2092 38.6857 37.2457 39.7981 36.1108C41.4594 34.4203 42.7522 32.579 43.4391 30.9252C43.9789 29.6255 44.0735 28.5274 43.6807 28.1278C43.2871 27.7266 42.209 27.8233 40.9327 28.3725C39.3086 29.0714 37.4994 30.3871 35.8386 32.0771C34.7372 33.1987 33.7724 34.4259 33.0516 35.6122ZM37.471 40.494C38.8377 40.5938 40.1769 41.0043 41.4037 41.7057C42.2501 41.293 43.0143 40.7427 43.6791 40.0638C45.2466 38.4688 46.109 36.3495 46.109 34.095C46.109 32.9661 45.8926 31.8712 45.4801 30.8591C45.3963 31.1237 45.2967 31.3958 45.1809 31.6749C44.4012 33.5519 42.9647 35.6105 41.1358 37.4714C39.9628 38.6682 38.7139 39.6961 37.471 40.494Z" fill="#2A2349"/>
</svg>
