<svg width="48" height="48" viewBox="0 0 48 48" fill="none" xmlns="http://www.w3.org/2000/svg">
<path d="M43.8621 6.75854H4.13792C2.31723 6.75854 0.827576 8.2482 0.827576 10.0689V19.9999C0.827576 21.8206 2.31723 23.3103 4.13792 23.3103H17.3793H27.3103H43.8621C45.6828 23.3103 47.1724 21.8206 47.1724 19.9999V10.0689C47.1724 8.2482 45.6828 6.75854 43.8621 6.75854Z" fill="#00CCDB"/>
<path d="M43.8621 5.6703H34.6759C34.2621 3.7383 32.6069 2.3103 30.6207 2.3103H17.3793C15.3931 2.3103 13.7379 3.7383 13.3241 5.6703H4.13793C1.82069 5.6703 0 7.5183 0 9.8703V19.9503V40.1103C0 42.4623 1.82069 44.3103 4.13793 44.3103H43.8621C46.1793 44.3103 48 42.4623 48 40.1103V19.9503V9.8703C48 7.5183 46.1793 5.6703 43.8621 5.6703ZM46.3448 9.8703V12.3903H40.5517C40.0552 12.3903 39.7241 12.7263 39.7241 13.2303C39.7241 13.7343 40.0552 14.0703 40.5517 14.0703H46.3448V15.7503H43.8621C43.3655 15.7503 43.0345 16.0863 43.0345 16.5903C43.0345 17.0943 43.3655 17.4303 43.8621 17.4303H46.3448V19.9503C46.3448 21.3783 45.269 22.4703 43.8621 22.4703H28.1379V9.8703C28.1379 9.3663 27.8069 9.0303 27.3103 9.0303C26.8138 9.0303 26.4828 9.3663 26.4828 9.8703V31.3743L24.5793 29.4423C24.2483 29.1063 23.7517 29.1063 23.4207 29.4423L21.5172 31.3743V7.3503H43.8621C45.269 7.3503 46.3448 8.4423 46.3448 9.8703ZM17.3793 3.9903H30.6207C31.6966 3.9903 32.6069 4.6623 32.9379 5.6703H15.0621C15.3931 4.6623 16.3034 3.9903 17.3793 3.9903ZM43.8621 42.6303H4.13793C2.73103 42.6303 1.65517 41.5383 1.65517 40.1103V23.3103C2.31724 23.8143 3.22759 24.1503 4.13793 24.1503H17.3793C17.8759 24.1503 18.2069 23.8143 18.2069 23.3103C18.2069 22.8063 17.8759 22.4703 17.3793 22.4703H4.13793C2.73103 22.4703 1.65517 21.3783 1.65517 19.9503V17.4303H4.13793C4.63448 17.4303 4.96552 17.0943 4.96552 16.5903C4.96552 16.0863 4.63448 15.7503 4.13793 15.7503H1.65517V14.0703H7.44828C7.94483 14.0703 8.27586 13.7343 8.27586 13.2303C8.27586 12.7263 7.94483 12.3903 7.44828 12.3903H1.65517V9.8703C1.65517 8.4423 2.73103 7.3503 4.13793 7.3503H19.8621V33.3903C19.8621 33.7263 20.0276 34.0623 20.3586 34.1463C20.6897 34.3143 21.0207 34.2303 21.269 33.9783L24 31.2063L26.731 33.9783C26.8966 34.1463 27.0621 34.2303 27.3103 34.2303C27.3931 34.2303 27.5586 34.2303 27.6414 34.1463C27.9724 33.9783 28.1379 33.7263 28.1379 33.3903V24.1503H43.8621C44.7724 24.1503 45.6828 23.8143 46.3448 23.3103V40.1103C46.3448 41.5383 45.269 42.6303 43.8621 42.6303Z" fill="#2A2349"/>
<path d="M24 28.3502C24.9141 28.3502 25.6552 27.5981 25.6552 26.6702C25.6552 25.7424 24.9141 24.9902 24 24.9902C23.0859 24.9902 22.3448 25.7424 22.3448 26.6702C22.3448 27.5981 23.0859 28.3502 24 28.3502Z" fill="#2A2349"/>
<path d="M43.8621 35.9103C43.3655 35.9103 43.0345 36.2463 43.0345 36.7503C43.0345 39.1023 40.9655 39.2703 40.5518 39.2703H37.2414C36.7449 39.2703 36.4138 39.6063 36.4138 40.1103C36.4138 40.6143 36.7449 40.9503 37.2414 40.9503H40.5518C41.9586 40.9503 44.6897 40.1103 44.6897 36.7503C44.6897 36.2463 44.3586 35.9103 43.8621 35.9103Z" fill="#2A2349"/>
</svg>
