<svg width="38" height="48" viewBox="0 0 38 48" fill="none" xmlns="http://www.w3.org/2000/svg">
<path d="M29.8931 29.1228C28.6163 26.0889 26.601 23.423 24.0307 21.3668V20.5131H13.0641V21.3668C10.4942 23.423 8.47776 26.0889 7.20179 29.1228L2.88086 39.3833C3.79959 39.7501 4.55423 40.4378 5.00365 41.3191L5.06102 41.4327C5.64622 42.5786 6.82427 43.3 8.11133 43.3C8.78718 43.3 9.44774 43.0995 10.01 42.7251L10.5669 42.3537C11.1739 41.9487 11.8868 41.7333 12.6162 41.7333C13.416 41.7333 14.1936 41.9926 14.8331 42.4723L15.7274 43.1435C16.5405 43.7536 17.5308 44.0833 18.5474 44.0833C19.5641 44.0833 20.5536 43.7536 21.3675 43.1435L22.2629 42.473C22.902 41.9934 23.6807 41.7341 24.4798 41.7341C25.2088 41.7341 25.9217 41.9498 26.5287 42.3545L27.0906 42.7297C27.649 43.1011 28.3061 43.3 28.9774 43.3C30.2667 43.3 31.444 42.5717 32.0216 41.4193C32.4274 40.6061 33.086 39.9475 33.8992 39.5417L34.214 39.3833L29.8931 29.1228Z" fill="#00CCDB"/>
<path d="M13.0642 18.2334H24.0308V21.3667H13.0642V18.2334Z" fill="#00CCDB"/>
<path d="M13.0603 18.2334H18.5474C19.4122 18.2334 20.1141 18.9353 20.1141 19.8001C20.1141 20.6649 19.4122 21.3667 18.5474 21.3667H13.0603V18.2334Z" fill="#00CCDB"/>
<path d="M33.8866 40.4611C34.004 40.3819 34.1226 40.3047 34.2492 40.2404L35.2215 39.7562L30.6164 28.8187C29.3419 25.7936 27.3365 23.1036 24.8141 21.0057V16.9418L26.3268 15.0515C27.3717 13.745 27.9474 12.1041 27.9474 10.4307C27.9474 9.82602 27.8732 9.22208 27.7267 8.63765C27.4 7.32878 27.6012 5.97211 28.2954 4.8151L29.9279 2.09372L22.5987 0L22.4721 0.888894C22.3914 1.45535 22.2755 2.01378 22.1439 2.56685H14.9506C14.819 2.01378 14.7038 1.45535 14.6224 0.888894L14.4954 0L7.16661 2.09372L8.79906 4.8151C9.49288 5.97211 9.69522 7.32878 9.36781 8.63688C9.22208 9.22208 9.1475 9.82602 9.1475 10.4307C9.1475 12.1041 9.72314 13.7442 10.7685 15.0508L12.2808 16.9418V21.0057C9.75871 23.1036 7.75334 25.7936 6.4789 28.8194L1.84855 39.8159L2.59018 40.1111C2.81356 40.2003 3.01971 40.3196 3.21555 40.4527L0 44.4726L1.98012 45.1316C2.80514 45.407 3.56552 45.8771 4.18056 46.4914C5.15321 47.4633 6.44831 47.9999 7.82448 47.9999C8.84534 47.9999 9.83291 47.7008 10.6843 47.1343L10.8331 47.0341C11.8823 46.3353 13.2906 46.2477 14.4178 46.8115L15.2294 47.2166C17.2803 48.242 19.8142 48.242 21.8659 47.2166L22.6764 46.8107C23.8043 46.247 25.2138 46.3361 26.2595 47.0326L26.4113 47.1343C27.262 47.7008 28.2499 47.9999 29.2704 47.9999C30.6469 47.9999 31.9417 47.4633 32.9147 46.4906C33.5286 45.8763 34.2893 45.4055 35.114 45.1316L37.0953 44.4718L33.8866 40.4611ZM21.6995 4.13351C21.0026 6.23756 19.9435 8.21156 18.5474 9.9553C17.151 8.21156 16.0927 6.23756 15.3954 4.13351H21.6995ZM11.9909 14.0724C11.1678 13.0423 10.7142 11.7492 10.7142 10.4307C10.7142 9.95454 10.7731 9.47835 10.8882 9.01707C11.3166 7.30316 11.0519 5.52384 10.1423 4.00844L9.56135 3.03922L13.2179 1.99427C13.857 5.39418 15.3529 8.57339 17.5748 11.2408L18.5474 12.407L19.5197 11.2416C21.7412 8.57492 23.2375 5.39494 23.8766 1.99504L27.5331 3.03999L26.9518 4.0092C26.0422 5.52499 25.7775 7.30316 26.2059 9.0186C26.3222 9.47835 26.3807 9.95454 26.3807 10.4307C26.3807 11.7492 25.9271 13.0423 25.104 14.0716L23.2474 16.3918V17.4501H13.8475V16.3918L11.9909 14.0724ZM13.8475 20.5834V19.0167H18.5474C18.9793 19.0167 19.3308 19.3679 19.3308 19.8001C19.3308 20.2327 18.9793 20.5834 18.5474 20.5834H13.8475ZM20.7532 19.0167H23.2474V20.5834H20.7532C20.8412 20.3375 20.8974 20.0758 20.8974 19.8001C20.8974 19.5243 20.8412 19.2627 20.7532 19.0167ZM7.92317 29.4264C9.11231 26.6041 10.9892 24.0961 13.3525 22.1501H15.7362C14.5038 24.8431 13.8475 27.8051 13.8475 30.7667H15.4141C15.4141 27.8127 16.1122 24.855 17.4336 22.2135L17.465 22.1501H18.8546C20.1871 24.681 20.8974 27.4769 20.8974 30.2702H22.4641C22.4641 27.4911 21.8257 24.7085 20.6132 22.1501H23.7427C26.1057 24.0961 27.9833 26.6041 29.1717 29.4264L33.213 39.0245C32.406 39.511 31.7428 40.2255 31.3205 41.0685C30.8741 41.962 29.9765 42.5166 28.9774 42.5166C28.458 42.5166 27.9562 42.3647 27.5243 42.0763L26.9629 41.7011C25.4253 40.6749 23.2726 40.7354 21.7921 41.8453L20.8974 42.5166C19.5511 43.5263 17.5442 43.5263 16.1975 42.5166L15.3028 41.8461C13.8226 40.7361 11.67 40.6768 10.1332 41.7019L9.57588 42.0733C9.14061 42.3632 8.63382 42.5166 8.11135 42.5166C7.11421 42.5166 6.21231 41.9643 5.75907 41.0739L5.70093 40.9633C5.28747 40.1517 4.65675 39.4781 3.88757 39.013L7.92317 29.4264ZM31.807 45.3829C31.1293 46.0595 30.2285 46.4332 29.2704 46.4332C28.5601 46.4332 27.8724 46.2252 27.2822 45.8316L27.1304 45.7298C25.6211 44.7235 23.5978 44.5996 21.976 45.4097L21.1655 45.8151C19.5461 46.6245 17.548 46.6245 15.9297 45.8151L15.1188 45.4097C13.4967 44.5996 11.4749 44.7224 9.96296 45.7306L9.81417 45.8308C9.22285 46.2252 8.53514 46.4332 7.82448 46.4332C6.86636 46.4332 5.96561 46.0595 5.28823 45.3829C4.54009 44.6348 3.62366 44.0546 2.62652 43.6973L4.27847 41.6323C4.28689 41.648 4.29874 41.6614 4.30678 41.677L4.36377 41.7883C5.0859 43.2035 6.52174 44.0832 8.11135 44.0832C8.94402 44.0832 9.75144 43.8388 10.4449 43.3768L11.0025 43.0054C12.0012 42.3387 13.4011 42.3766 14.3638 43.0987L15.2577 43.77C16.2005 44.4772 17.3686 44.8666 18.5474 44.8666C19.7263 44.8666 20.8951 44.4772 21.8376 43.77L22.7322 43.0995C23.6941 42.3774 25.0937 42.3395 26.0935 43.0062L26.6557 43.3814C27.3457 43.8396 28.1489 44.0832 28.9774 44.0832C30.5731 44.0832 32.0082 43.1966 32.7219 41.7696C32.7468 41.7183 32.782 41.674 32.8095 41.6246L34.468 43.6973C33.4724 44.0546 32.554 44.6348 31.807 45.3829Z" fill="#2A2349"/>
<path d="M13.8475 32.3333H15.4141V33.8999H13.8475V32.3333Z" fill="#2A2349"/>
<path d="M20.8975 31.55H22.4641V33.1167H20.8975V31.55Z" fill="#2A2349"/>
</svg>
