<svg width="48" height="48" viewBox="0 0 48 48" fill="none" xmlns="http://www.w3.org/2000/svg">
<path d="M41.8065 38.7097C38.3915 38.7097 35.6129 35.9311 35.6129 32.5162C35.6129 29.1012 38.3915 26.3226 41.8065 26.3226C45.2214 26.3226 48 29.1012 48 32.5162C48 35.9311 45.2214 38.7097 41.8065 38.7097Z" fill="#00CCDB"/>
<path d="M23.2258 38.7097C19.8108 38.7097 17.0322 35.9311 17.0322 32.5162C17.0322 29.1012 19.8108 26.3226 23.2258 26.3226C26.6407 26.3226 29.4193 29.1012 29.4193 32.5162C29.4193 35.9311 26.6407 38.7097 23.2258 38.7097Z" fill="#00CCDB"/>
<path d="M47.7701 34.1652C47.5107 35.1012 47.0385 35.9458 46.4067 36.6488C46.3649 37.1055 46.2937 37.5585 46.159 37.9982L44.1639 44.4813C43.8008 45.6596 42.7277 46.4516 41.4944 46.4516C40.2108 46.4516 39.096 45.5814 38.7848 44.3365L38.671 43.8797C39.1711 43.3301 39.4839 42.607 39.4839 41.8064C39.4839 40.0986 38.095 38.7097 36.3871 38.7097C35.2459 38.7097 34.2581 39.3368 33.7208 40.2581H31.3107C30.7734 39.3368 29.7855 38.7097 28.6444 38.7097C26.9365 38.7097 25.5476 40.0986 25.5476 41.8064C25.5476 42.607 25.8604 43.3301 26.3605 43.8797L26.2467 44.3365C25.9355 45.5814 24.8214 46.4516 23.5378 46.4516C22.3045 46.4516 21.2315 45.6596 20.8684 44.4805L18.8733 37.9974C18.7378 37.5577 18.6666 37.1048 18.6255 36.648C17.9938 35.945 17.5208 35.1004 17.2622 34.1644C17.1166 34.7806 17.0323 35.4108 17.0323 36.0488C17.0323 36.864 17.1538 37.673 17.3938 38.4526L18.4258 41.8064H6.19355V24.7742H17.0323V32.5161C17.0323 30.9515 17.6199 29.5246 18.5806 28.433V24.7742H20.129V27.1603C20.6083 26.8815 21.1277 26.6686 21.6774 26.5262V1.54839H30.1935C31.4741 1.54839 32.5161 2.59045 32.5161 3.87097V13.9517H34.0645V3.87097C34.0645 1.73652 32.328 0 30.1935 0H5.41935C3.2849 0 1.54839 1.73652 1.54839 3.87097V42.4312L0 46.303V48H23.5378C25.5197 48 27.2377 46.6653 27.7355 44.7515C28.025 44.8413 28.3262 44.9032 28.6452 44.9032C30.353 44.9032 31.7419 43.5143 31.7419 41.8064H33.2903C33.2903 43.5143 34.6792 44.9032 36.3871 44.9032C36.7061 44.9032 37.0072 44.8413 37.2968 44.7515C37.7946 46.6653 39.5133 48 41.4944 48C43.4121 48 45.079 46.7683 45.6434 44.9357L47.6385 38.4526C47.8785 37.6723 48 36.8632 48 36.0488C48 35.4108 47.9156 34.7806 47.7701 34.1652ZM4.64516 41.8064H3.09677V24.7742H4.64516V41.8064ZM6.19355 23.2258V1.54839H17.0323V23.2258H6.19355ZM20.129 23.2258H18.5806V1.54839H20.129V23.2258ZM4.64516 1.69084V23.2258H3.09677V3.87097C3.09677 2.86297 3.74632 2.01135 4.64516 1.69084ZM2.84671 43.3548H18.9019L19.3881 44.9357C19.5646 45.5094 19.8596 46.015 20.2258 46.4516H1.608L2.84671 43.3548ZM28.6452 43.3548C27.7912 43.3548 27.0968 42.6604 27.0968 41.8064C27.0968 40.9525 27.7912 40.2581 28.6452 40.2581C29.4991 40.2581 30.1935 40.9525 30.1935 41.8064C30.1935 42.6604 29.4991 43.3548 28.6452 43.3548ZM36.3871 43.3548C35.5332 43.3548 34.8387 42.6604 34.8387 41.8064C34.8387 40.9525 35.5332 40.2581 36.3871 40.2581C37.241 40.2581 37.9355 40.9525 37.9355 41.8064C37.9355 42.6604 37.241 43.3548 36.3871 43.3548Z" fill="#2A2349"/>
<path d="M31.7419 37.1613H33.2903V38.7096H31.7419V37.1613Z" fill="#2A2349"/>
<path d="M31.7419 34.0646H33.2903V35.613H31.7419V34.0646Z" fill="#2A2349"/>
<path d="M31.7419 30.9678H33.2903V32.5162H31.7419V30.9678Z" fill="#2A2349"/>
<path d="M37.7233 27.871H27.3088C27.8121 28.3138 28.2425 28.8364 28.5816 29.4194H36.4513C36.7896 28.8364 37.2201 28.3138 37.7233 27.871Z" fill="#2A2349"/>
<path d="M30.1935 23.9999C30.1935 25.2805 31.2356 26.3225 32.5161 26.3225C33.7966 26.3225 34.8387 25.2805 34.8387 23.9999C34.8387 22.7194 33.7966 21.6774 32.5161 21.6774C31.2356 21.6774 30.1935 22.7194 30.1935 23.9999ZM33.2903 23.9999C33.2903 24.4273 32.9427 24.7741 32.5161 24.7741C32.0895 24.7741 31.7419 24.4273 31.7419 23.9999C31.7419 23.5726 32.0895 23.2258 32.5161 23.2258C32.9427 23.2258 33.2903 23.5726 33.2903 23.9999Z" fill="#2A2349"/>
<path d="M36.3484 20.1686C35.3241 19.1451 33.9638 18.5807 32.5161 18.5807C31.0684 18.5807 29.7081 19.1451 28.6838 20.1686L29.7785 21.2633C30.5102 20.5324 31.4825 20.1291 32.5161 20.1291C33.5496 20.1291 34.522 20.5324 35.2536 21.2633L36.3484 20.1686Z" fill="#2A2349"/>
<path d="M26.4944 17.9783L27.5892 19.073C30.3066 16.3556 34.7264 16.3556 37.4439 19.073L38.5386 17.9783C35.2173 14.6578 29.815 14.6578 26.4944 17.9783Z" fill="#2A2349"/>
<path d="M11.6129 40.258C13.7474 40.258 15.4839 38.5215 15.4839 36.3871C15.4839 34.2526 13.7474 32.5161 11.6129 32.5161C9.47846 32.5161 7.74194 34.2526 7.74194 36.3871C7.74194 38.5215 9.47846 40.258 11.6129 40.258ZM11.6129 34.0645C12.8934 34.0645 13.9355 35.1066 13.9355 36.3871C13.9355 37.3951 13.2859 38.2467 12.3871 38.5672V35.6129H10.8387V38.5672C9.93988 38.2467 9.29033 37.3951 9.29033 36.3871C9.29033 35.1066 10.3324 34.0645 11.6129 34.0645Z" fill="#2A2349"/>
<path d="M10.8387 26.3226H12.3871V27.871H10.8387V26.3226Z" fill="#2A2349"/>
<path d="M13.9355 26.3226H15.4839V27.871H13.9355V26.3226Z" fill="#2A2349"/>
<path d="M7.74194 26.3226H9.29033V27.871H7.74194V26.3226Z" fill="#2A2349"/>
<path d="M13.9355 29.4193H15.4839V30.9677H13.9355V29.4193Z" fill="#2A2349"/>
<path d="M7.74194 29.4193H9.29033V30.9677H7.74194V29.4193Z" fill="#2A2349"/>
<path d="M10.8387 29.4193H12.3871V30.9677H10.8387V29.4193Z" fill="#2A2349"/>
<path d="M41.0323 29.4193H42.5806V30.9677H41.0323V29.4193Z" fill="#2A2349"/>
<path d="M38.7097 31.7419H40.2581V33.2903H38.7097V31.7419Z" fill="#2A2349"/>
<path d="M41.0323 34.0646H42.5806V35.613H41.0323V34.0646Z" fill="#2A2349"/>
<path d="M43.3548 31.7419H44.9032V33.2903H43.3548V31.7419Z" fill="#2A2349"/>
<path d="M24 35.6129V33.2903H26.3226V31.7419H24V29.4193H22.4516V31.7419H20.129V33.2903H22.4516V35.6129H24Z" fill="#2A2349"/>
<path d="M12.3871 21.6774H10.8387C9.98473 21.6774 9.29028 20.983 9.29028 20.1291V4.64519C9.29028 3.79125 9.98473 3.0968 10.8387 3.0968H12.3871C13.241 3.0968 13.9354 3.79125 13.9354 4.64519V20.1291C13.9354 20.983 13.241 21.6774 12.3871 21.6774Z" fill="#00CCDB"/>
</svg>
