<svg width="48" height="48" viewBox="0 0 48 48" fill="none" xmlns="http://www.w3.org/2000/svg">
<path d="M46.5 22C46.1 24 42.3333 24.8333 40.5 25C39.5 24.8333 37.4 24.5 37 24.5C36.6 24.5 35.1667 23.5 34.5 23L33 20.5L32.5 17.5L34 14L35.5 11.5V9.5L37.5 8L40.5 7L42.5 8L44 10.5C44.3333 11.1667 45.3 12.8 46.5 14C48 15.5 47 19.5 46.5 22Z" fill="#00CCDB"/>
<path d="M15.5213 26H9.3728C8.85502 26 8.4353 26.4197 8.4353 26.9375V32.5312C8.4353 33.049 8.85502 33.4688 9.3728 33.4688H15.5214C16.0391 33.4688 16.4589 33.049 16.4588 32.5312V26.9375C16.4588 26.4197 16.0391 26 15.5213 26ZM14.5838 31.5938H10.3103V27.875H14.5838V31.5938Z" fill="#2A2349"/>
<path d="M26.7063 26H20.5577C20.04 26 19.6202 26.4197 19.6202 26.9375V32.5312C19.6202 33.049 20.04 33.4688 20.5577 33.4688H26.7063C27.2241 33.4688 27.6438 33.049 27.6438 32.5312V26.9375C27.6438 26.4197 27.2241 26 26.7063 26ZM25.7688 31.5938H21.4952V27.875H25.7688V31.5938Z" fill="#2A2349"/>
<path d="M45.6569 35.4253L43.099 33.8027C42.7922 33.608 42.4004 33.6083 42.0935 33.8033L40.9835 34.5094V25.6168C44.9292 25.1515 48 21.7865 48 17.7179C48 15.5963 47.153 13.5711 45.6593 12.0828C45.6838 11.8684 45.6962 11.6522 45.6962 11.4359C45.6962 8.32054 43.1616 5.78601 40.0462 5.78601C36.9308 5.78601 34.3963 8.32054 34.3963 11.4359C34.3963 11.6522 34.4086 11.8684 34.4331 12.0828C32.9395 13.5711 32.0925 15.5962 32.0925 17.7179C32.0925 18.2174 32.1388 18.7063 32.2273 19.1804L31.7093 18.6779V10.5306C31.7093 10.0128 31.2896 9.5931 30.7718 9.5931H26.4C25.8822 9.5931 25.4625 10.0128 25.4625 10.5306V12.6179L18.6925 6.05047C18.3289 5.69769 17.7506 5.69769 17.3869 6.05047L0.298199 22.6279C0.113699 22.8069 0.0107615 23.0537 0.0134803 23.3108C0.016199 23.5678 0.124387 23.8125 0.312636 23.9875L3.36148 26.8214C3.72842 27.1625 4.2986 27.1548 4.65617 26.8041L5.33389 26.1396V34.5119L4.21582 33.8026C3.90917 33.6081 3.51804 33.6081 3.21139 33.8026L0.653605 35.4253C0.382574 35.5972 0.218324 35.896 0.218324 36.2169V47.0491C0.218324 47.5668 0.638043 47.9866 1.15582 47.9866L45.1289 48.0001C45.6467 48.0001 46.0922 47.5668 46.0922 47.0491V36.2169C46.0922 35.8959 45.9279 35.5972 45.6569 35.4253ZM5.33389 46.1117H2.09332V36.7324L3.71361 35.7046L5.33389 36.7324V46.1117ZM27.3373 11.4681H29.8341V16.8591L27.3373 14.4369V11.4681ZM5.61336 23.2397L3.98248 24.8387L2.31232 23.2863L18.0395 8.02954L33.7669 23.2863L32.0967 24.8387L18.696 11.6981C18.3314 11.3406 17.7478 11.3406 17.3832 11.6981L5.61504 23.2379L5.61336 23.2397ZM30.7453 36.7324L32.3657 35.7046L33.986 36.7324V41.6808C33.8475 41.7293 33.7129 41.7884 33.5836 41.8573C33.0517 41.2687 32.2837 40.9076 31.4569 40.9076C31.2145 40.9076 30.9756 40.9391 30.7453 40.9988V36.7324ZM20.193 46.1116H15.8863V39.2446C15.8863 38.0572 16.8523 37.0912 18.0396 37.0912C19.227 37.0912 20.193 38.0572 20.193 39.2446V46.1116ZM28.8703 46.1116H22.068V39.2446C22.068 37.0233 20.2609 35.2162 18.0396 35.2162C15.8184 35.2162 14.0113 37.0233 14.0113 39.2446V46.1116H7.20889V24.301L18.0395 13.6804L28.8703 24.301V46.1116ZM39.1087 46.1251H30.7453V43.0849C30.9292 42.8927 31.1829 42.7826 31.4569 42.7826C31.8951 42.7826 32.2853 43.0762 32.4058 43.4967C32.5062 43.8472 32.8008 44.1078 33.161 44.1647C33.1725 44.1664 33.1837 44.1684 33.195 44.1706C33.5524 44.2398 33.9169 44.0958 34.1309 43.8018C34.318 43.5447 34.6065 43.3966 34.9233 43.3947H34.9244H34.9294C35.1376 43.3947 35.3364 43.4586 35.5043 43.5796C35.8437 43.8239 36.3039 43.814 36.6324 43.5551C37.2738 43.0497 38.0455 42.7826 38.8643 42.7826C38.9465 42.7826 39.0279 42.7854 39.1087 42.7908V46.1251ZM35.861 41.6745V36.7323L37.482 35.704L39.1087 36.7331V40.9128C39.0277 40.9093 38.9463 40.9075 38.8643 40.9075C37.8323 40.9075 36.849 41.1872 35.987 41.7213C35.9453 41.7047 35.9033 41.6891 35.861 41.6745ZM39.1087 34.5146L37.9825 33.8021C37.6761 33.6081 37.2853 33.6085 36.9791 33.8027L34.9235 35.1067L32.868 33.8027C32.5614 33.6082 32.1701 33.6082 31.8635 33.8027L30.7454 34.512V26.1396L31.423 26.8042C31.6051 26.9827 31.8422 27.0723 32.0794 27.0723C32.3084 27.0723 32.5375 26.9889 32.7177 26.8215L35.4964 24.2387C36.5446 24.9722 37.7768 25.4597 39.1087 25.6168V34.5146ZM40.0462 12.0156C39.5285 12.0156 39.1087 12.4353 39.1087 12.9531V18.0118L37.7296 16.6327C37.3635 16.2667 36.7699 16.2667 36.4037 16.6327C36.0376 16.9988 36.0376 17.5924 36.4037 17.9586L38.9255 20.4805C38.9818 20.5367 39.0434 20.5843 39.1087 20.6233V23.7248C36.2004 23.2726 33.9675 20.7513 33.9675 17.7181C33.9674 15.9604 34.728 14.2895 36.0542 13.1336C36.311 12.9096 36.4263 12.5639 36.3549 12.2307C36.2994 11.9713 36.2713 11.7039 36.2713 11.4358C36.2713 9.35432 37.9647 7.66091 40.0462 7.66091C42.1278 7.66091 43.8212 9.35432 43.8212 11.4358C43.8212 11.704 43.793 11.9714 43.7375 12.2307C43.6662 12.5639 43.7813 12.9096 44.0383 13.1336C45.3645 14.2896 46.1251 15.9605 46.1251 17.7179C46.1251 20.751 43.8921 23.2724 40.9837 23.7246V20.6231C41.0491 20.5841 41.1108 20.5365 41.167 20.4803L43.6889 17.9584C44.055 17.5923 44.055 16.9987 43.6889 16.6325C43.3228 16.2665 42.7292 16.2665 42.363 16.6325L40.9837 18.0118V16.756C41.0035 16.7392 41.0228 16.7215 41.0416 16.7028L42.8729 14.8716C43.239 14.5055 43.2391 13.9119 42.8729 13.5458C42.5067 13.1796 41.9132 13.1797 41.5471 13.5458L40.9837 14.1091V12.9531C40.9837 12.4353 40.564 12.0156 40.0462 12.0156ZM40.9836 46.1251V43.4719C41.8185 44.0795 42.384 45.0359 42.464 46.1251H40.9836ZM44.2172 45.195C43.8269 43.4487 42.6015 42.0139 40.9836 41.3335V36.7315L42.5975 35.7049L44.2172 36.7323V45.195Z" fill="#2A2349"/>
<circle cx="6" cy="6" r="5" fill="#00CCDB" stroke="#2A2349" stroke-width="2"/>
</svg>
