<svg width="48" height="48" viewBox="0 0 48 48" fill="none" xmlns="http://www.w3.org/2000/svg">
<path d="M2.48281 17.6897C3.39315 17.6897 4.13798 16.9448 4.13798 16.0345C4.13798 15.1241 4.88281 14.3793 5.79315 14.3793C6.7035 14.3793 7.44833 15.1241 7.44833 16.0345V17.6897C7.44833 19.5103 8.93798 21 10.7587 21C12.5794 21 14.069 19.5103 14.069 17.6897V11.069H2.48281C1.57246 11.069 0.827637 11.8138 0.827637 12.7241V16.0345C0.827637 16.9448 1.57246 17.6897 2.48281 17.6897Z" fill="#00CCDB"/>
<path d="M17.3794 11.069V16.0345C17.3794 16.9448 18.1242 17.6897 19.0346 17.6897C19.9449 17.6897 20.6897 16.9448 20.6897 16.0345V12.7241C20.6897 11.8138 19.9449 11.069 19.0346 11.069H17.3794Z" fill="#00CCDB"/>
<path d="M24 24.3103C24 26.131 25.4897 27.6207 27.3103 27.6207C29.131 27.6207 30.6207 26.131 30.6207 24.3103V21H24V24.3103Z" fill="#00CCDB"/>
<path d="M42.2069 30.931C43.1172 30.931 43.8621 30.1862 43.8621 29.2759V21H33.931V25.9655C33.931 26.8759 34.6759 27.6207 35.5862 27.6207C36 27.6207 36.4138 27.4552 36.7448 27.1241C37.0759 26.7931 37.2414 26.3793 37.2414 25.9655C37.2414 25.0552 37.9862 24.3103 38.8965 24.3103C39.8069 24.3103 40.5517 25.0552 40.5517 25.9655V29.2759C40.5517 30.1862 41.2965 30.931 42.2069 30.931Z" fill="#00CCDB"/>
<path d="M10.7586 38.8965C11.6727 38.8965 12.4137 38.1555 12.4137 37.2414C12.4137 36.3272 11.6727 35.5862 10.7586 35.5862C9.84444 35.5862 9.10339 36.3272 9.10339 37.2414C9.10339 38.1555 9.84444 38.8965 10.7586 38.8965Z" fill="#2A2349"/>
<path d="M30.6207 0C23.9172 0 17.7931 3.88966 14.8966 9.93104H2.48276C1.07586 9.93104 0 11.0069 0 12.4138V15.7241V24V27.3103C0 29.6276 1.82069 31.4483 4.13793 31.4483H6.62069V37.2414C6.62069 39.5586 8.44138 41.3793 10.7586 41.3793C13.0759 41.3793 14.8966 39.5586 14.8966 37.2414V31.4483H16.5517V43.8621C16.5517 46.1793 18.3724 48 20.6897 48H40.5517C42.869 48 44.6897 46.1793 44.6897 43.8621V28.9655V21.5172H47.1724C47.669 21.5172 48 21.1862 48 20.6897V17.3793C48 7.77931 40.2207 0 30.6207 0ZM18.0414 11.5862H19.0345C19.531 11.5862 19.8621 11.9172 19.8621 12.4138V15.7241C19.8621 16.2207 19.531 16.5517 19.0345 16.5517C18.5379 16.5517 18.2069 16.2207 18.2069 15.7241V12.4138C18.2069 12.2483 18.2069 12.0828 18.1241 11.9172C18.1241 11.8345 18.1241 11.8345 18.1241 11.7517C18.1241 11.7517 18.1241 11.669 18.0414 11.5862ZM4.13793 19.8621C3.64138 19.8621 3.31034 20.1931 3.31034 20.6897V23.1724H1.65517V18.0414C1.73793 18.0414 1.82069 18.0414 1.90345 18.1241C1.98621 18.1241 1.98621 18.1241 2.06897 18.1241C2.15172 18.2069 2.31724 18.2069 2.48276 18.2069C3.88966 18.2069 4.96552 17.131 4.96552 15.7241C4.96552 15.2276 5.29655 14.8966 5.7931 14.8966C6.28966 14.8966 6.62069 15.2276 6.62069 15.7241V17.3793C6.62069 19.6966 8.44138 21.5172 10.7586 21.5172C13.0759 21.5172 14.8966 19.6966 14.8966 17.3793V12.4138C14.8966 11.9172 15.2276 11.5862 15.7241 11.5862C16.2207 11.5862 16.5517 11.9172 16.5517 12.4138V15.7241C16.5517 17.131 17.6276 18.2069 19.0345 18.2069C19.2 18.2069 19.3655 18.2069 19.531 18.1241C19.6138 18.1241 19.6138 18.1241 19.6966 18.1241C19.7793 18.1241 19.8621 18.1241 19.9448 18.0414V20.6897V23.1724H4.96552V20.6897C4.96552 20.1931 4.63448 19.8621 4.13793 19.8621ZM1.65517 12.4138C1.65517 11.9172 1.98621 11.5862 2.48276 11.5862H13.4069C13.4069 11.669 13.4069 11.7517 13.3241 11.8345C13.3241 11.9172 13.3241 11.9172 13.3241 12C13.3241 12.1655 13.2414 12.331 13.2414 12.4966V17.4621C13.2414 18.869 12.1655 19.9448 10.7586 19.9448C9.35172 19.9448 8.27586 18.869 8.27586 17.4621V15.8069C8.27586 14.4 7.2 13.3241 5.7931 13.3241C4.38621 13.3241 3.31034 14.4 3.31034 15.8069C3.31034 16.3034 2.97931 16.6345 2.48276 16.6345C1.98621 16.6345 1.65517 16.3034 1.65517 15.8069V12.4138ZM13.2414 31.4483V37.2414C13.2414 38.6483 12.1655 39.7241 10.7586 39.7241C9.35172 39.7241 8.27586 38.6483 8.27586 37.2414V31.4483C8.27586 30.5379 7.53103 29.7931 6.62069 29.7931H4.13793C3.06207 29.7931 2.15172 29.131 1.82069 28.1379H14.069C14.5655 28.1379 14.8966 27.8069 14.8966 27.3103C14.8966 26.8138 14.5655 26.4828 14.069 26.4828H1.65517V24.8276H19.8621V27.3103C19.8621 28.7172 18.7862 29.7931 17.3793 29.7931H14.8966C13.9862 29.7931 13.2414 30.5379 13.2414 31.4483ZM40.5517 46.3448H20.6897C19.2828 46.3448 18.2069 45.269 18.2069 43.8621V31.3655C20.1103 30.9517 21.5172 29.2966 21.5172 27.3103V24V21.5172H23.1724V24C23.1724 26.3172 24.9931 28.1379 27.3103 28.1379C29.6276 28.1379 31.4483 26.3172 31.4483 24V21.5172H33.1035V25.6552C33.1035 27.0621 34.1793 28.1379 35.5862 28.1379C36.2483 28.1379 36.9103 27.8897 37.3241 27.3931C37.8207 26.8966 38.069 26.3172 38.069 25.6552C38.069 25.1586 38.4 24.8276 38.8966 24.8276C39.3931 24.8276 39.7241 25.1586 39.7241 25.6552V28.9655C39.7241 30.3724 40.8 31.4483 42.2069 31.4483C42.5379 31.4483 42.7862 31.3655 43.0345 31.2828V43.8621C43.0345 45.269 41.9586 46.3448 40.5517 46.3448ZM24.8276 21.5172H29.7931V24C29.7931 25.4069 28.7172 26.4828 27.3103 26.4828C25.9035 26.4828 24.8276 25.4069 24.8276 24V21.5172ZM43.0345 28.9655C43.0345 29.4621 42.7034 29.7931 42.2069 29.7931C41.7103 29.7931 41.3793 29.4621 41.3793 28.9655V25.6552C41.3793 24.2483 40.3034 23.1724 38.8966 23.1724C37.4897 23.1724 36.4138 24.2483 36.4138 25.6552C36.4138 25.9035 36.331 26.069 36.1655 26.2345C36 26.4 35.8345 26.4828 35.5862 26.4828C35.0897 26.4828 34.7586 26.1517 34.7586 25.6552V21.5172H43.0345V28.9655ZM46.3448 19.8621H43.8621H33.931H30.6207H24H21.5172V18.2069H43.8621H46.3448V19.8621ZM43.8621 16.5517H21.5172V15.7241V12.4138C21.5172 11.0069 20.4414 9.93104 19.0345 9.93104H16.8C19.531 4.88276 24.8276 1.65517 30.6207 1.65517C38.9793 1.65517 45.931 8.27586 46.3448 16.5517H43.8621Z" fill="#2A2349"/>
</svg>
