<svg width="48" height="48" viewBox="0 0 48 48" fill="none" xmlns="http://www.w3.org/2000/svg">
<path d="M15.4838 3.09131V4.779C15.4838 10.0133 12.8672 14.8991 8.51611 17.8026C7.37787 15.9055 6.64262 13.8072 6.34058 11.6314V11.6239L6.67362 10.7952C7.8814 7.77555 9.83995 5.12757 12.3795 3.09887C12.4256 3.09887 12.4721 3.09131 12.5186 3.09131H15.4838Z" fill="#00CCDB"/>
<path d="M27.7238 11.6239V11.6314C27.4218 13.8072 26.6865 15.9055 25.5483 17.8026C21.1972 14.8991 18.5806 10.0133 18.5806 4.779V3.09131H21.5458C21.5923 3.09131 21.6388 3.09887 21.6849 3.09887C24.2245 5.12757 26.183 7.77555 27.3908 10.7952L27.7238 11.6239Z" fill="#00CCDB"/>
<path d="M7.79595 24.5469C9.59988 25.4217 10.8387 27.2724 10.8387 29.4171C10.8387 32.4137 8.41553 34.8371 5.41931 34.8371V32.8934C5.41931 29.9203 6.2555 27.0323 7.79595 24.5469Z" fill="#00CCDB"/>
<path d="M28.6451 34.0629V40.2564L28.2115 41.7738C26.2761 41.5648 24.7742 39.9234 24.7742 37.9338C24.7742 35.7969 26.5085 34.0629 28.6451 34.0629Z" fill="#00CCDB"/>
<path d="M22.4517 10.0601H24V11.6084H22.4517V10.0601Z" fill="black"/>
<path d="M10.0645 10.0601H11.6128V11.6084H10.0645V10.0601Z" fill="black"/>
<path d="M46.4214 40.0444C46.2743 39.2652 45.3043 38.7775 43.1568 38.3998C39.792 37.8081 34.5299 37.8081 31.1658 38.3998C30.4551 38.5242 29.887 38.6637 29.4194 38.8187V32.8898C29.4194 28.7228 27.8812 24.8011 25.1 21.7365C25.8311 20.6719 26.2768 19.3967 26.3196 18.0205C27.051 16.7672 27.5954 15.4353 27.9848 14.0531C28.3371 14.4572 28.8455 14.706 29.4061 14.706C30.2011 14.706 30.9182 14.2043 31.1908 13.4561L33.9088 5.97909C34.012 5.69479 34.0645 5.39763 34.0645 5.0948C34.0645 4.03016 33.4257 3.08613 32.4371 2.69067L26.2923 0.233245C25.074 -0.254839 23.6344 0.0404308 22.7056 0.969339L21.3516 2.32357L12.7077 2.31752L11.3589 0.968583C10.4301 0.0396746 8.99055 -0.254839 7.77218 0.232488L1.62815 2.69067C0.638861 3.08613 0 4.02941 0 5.0948C0 5.39763 0.0525454 5.69479 0.155746 5.97985L2.8745 13.4569C3.1463 14.2043 3.86341 14.706 4.65839 14.706C5.219 14.706 5.72669 14.4572 6.07976 14.0531C6.46913 15.4353 7.01348 16.7672 7.74496 18.0205C7.78768 19.3967 8.23337 20.6719 8.96447 21.7365C6.18334 24.8011 4.64516 28.7228 4.64516 32.8898V40.8485C4.64516 41.6213 4.21535 42.3158 3.52508 42.6613C2.30557 43.2715 1.54839 44.4972 1.54839 45.8598V46.4514C1.54839 47.3055 2.24282 48 3.09677 48H11.6129C12.8933 48 13.9355 46.9577 13.9355 45.6772V44.9029H20.129V45.6772C20.129 46.9577 21.1712 48 22.4516 48H48V45.6772L46.4214 40.0444ZM37.1613 39.4829C40.3904 39.4829 43.1186 39.8769 44.3536 40.2572C43.1186 40.6372 40.3904 41.0315 37.1613 41.0315C33.9322 41.0315 31.204 40.6372 29.969 40.2572C31.204 39.8769 33.9322 39.4829 37.1613 39.4829ZM23.8004 2.06346C24.2964 1.56706 25.0653 1.40827 25.717 1.67027L31.8625 4.12846C32.2591 4.28725 32.5161 4.66645 32.5161 5.0948C32.5161 5.21653 32.4953 5.33638 32.4534 5.45018L29.7354 12.9268C29.636 13.2009 29.1895 13.207 29.081 12.9374L28.108 10.5045C26.9614 7.63691 25.142 5.07249 22.8225 3.04152L23.8004 2.06346ZM4.32913 12.9276L1.61114 5.45093C1.56918 5.33638 1.54839 5.21653 1.54839 5.0948C1.54839 4.66645 1.80544 4.288 2.20275 4.12846L8.34753 1.67027C8.55885 1.58559 8.77999 1.54324 9.00756 1.54324C9.48236 1.54324 9.92918 1.72812 10.2649 2.06346L11.2421 3.04076C8.92175 5.07249 7.10307 7.63691 5.95653 10.5038L4.98425 12.9366C4.875 13.207 4.42931 13.1998 4.32913 12.9276ZM7.14504 11.7026L7.39415 11.08C8.51613 8.27395 10.3409 5.78779 12.6721 3.86608L21.3939 3.86759C23.7237 5.78855 25.5484 8.27395 26.6704 11.08L26.9195 11.7026C26.6182 13.7272 25.9393 15.6466 24.885 17.405L24.7742 17.5887V17.8031C24.7742 19.9974 23.4613 21.8874 21.5814 22.7391C21.6381 22.5214 21.6774 22.2968 21.6774 22.0616V21.6745H20.129V22.0616C20.129 22.7021 19.6081 23.2231 18.9677 23.2231C18.3274 23.2231 17.8065 22.7021 17.8065 22.0616V19.9982C18.2136 19.8734 18.5916 19.6613 18.9012 19.3517L19.5817 18.6711C19.9347 18.318 20.129 17.8489 20.129 17.3494C20.129 16.3188 19.2906 15.4803 18.2601 15.4803H15.8044C14.7739 15.4803 13.9355 16.3188 13.9355 17.3494C13.9355 17.8489 14.1298 18.318 14.4829 18.6711L15.1633 19.3517C15.4729 19.6613 15.8509 19.8734 16.2581 19.9982V22.0616C16.2581 22.7021 15.7371 23.2231 15.0968 23.2231C14.4564 23.2231 13.9355 22.7021 13.9355 22.0616V21.6745H12.3871V22.0616C12.3871 22.2968 12.4264 22.5214 12.4831 22.7391C10.6032 21.8874 9.29032 19.9974 9.29032 17.8031V17.5887L9.17956 17.4042C8.12525 15.6466 7.44708 13.7272 7.14504 11.7026ZM16.2581 18.2568L15.5776 17.5763C15.5179 17.5165 15.4839 17.4337 15.4839 17.3494C15.4839 17.1729 15.6279 17.0288 15.8044 17.0288H18.2601C18.4366 17.0288 18.5806 17.1729 18.5806 17.3494C18.5806 17.4337 18.5466 17.5165 18.4869 17.5763L17.8065 18.2568C17.3993 18.664 16.6652 18.664 16.2581 18.2568ZM18.4102 24.7716L18.1247 26.1984C18.0208 26.7171 17.5619 27.0945 17.0323 27.0945C16.5026 27.0945 16.0437 26.7171 15.939 26.1984L15.6544 24.7716H18.4102ZM13.9355 43.3543V36.3858C13.9355 34.6777 15.3243 33.2887 17.0323 33.2887C18.7402 33.2887 20.129 34.6777 20.129 36.3858V43.3543H13.9355ZM21.6774 45.6772V36.3858C21.6774 33.8237 19.5941 31.7401 17.0323 31.7401C14.4704 31.7401 12.3871 33.8237 12.3871 36.3858V45.6772C12.3871 46.1036 12.0393 46.4514 11.6129 46.4514H3.09677V45.8598C3.09677 45.087 3.52659 44.3925 4.21686 44.0473C5.43637 43.4371 6.19355 42.2114 6.19355 40.8485V32.8898C6.19355 29.1734 7.54309 25.6714 9.98551 22.9127C11.081 23.9266 12.4986 24.5958 14.0685 24.7399L14.4209 26.502C14.6696 27.7425 15.7674 28.643 17.0323 28.643C18.2971 28.643 19.3949 27.7425 19.6436 26.502L19.996 24.7399C21.5659 24.5958 22.9835 23.9266 24.079 22.9127C26.5214 25.6714 27.871 29.1734 27.871 32.8898V40.1487L26.3528 45.4643L26.3358 46.4514H22.4516C22.0252 46.4514 21.6774 46.1036 21.6774 45.6772ZM46.4516 46.4514H27.871V45.7857L29.0735 41.5759C29.5864 41.7823 30.2741 41.9581 31.1651 42.1146C32.8484 42.4103 35.033 42.58 37.1613 42.58C39.2896 42.58 41.4742 42.4103 43.1568 42.1146C44.0478 41.9581 44.7361 41.7823 45.2484 41.5759L46.4516 45.7857V46.4514Z" fill="#2A2349"/>
<path d="M36.3871 44.1284H37.9355V45.6768H36.3871V44.1284Z" fill="black"/>
<path d="M33.2903 44.1284H34.8387V45.6768H33.2903V44.1284Z" fill="black"/>
<path d="M39.4839 44.1284H41.0323V45.6768H39.4839V44.1284Z" fill="black"/>
</svg>
