<svg width="310" height="358" viewBox="0 0 310 358" fill="none" xmlns="http://www.w3.org/2000/svg">
<path d="M162.333 329.333V170" stroke="#DFDFDF" stroke-width="7" stroke-linecap="round" stroke-linejoin="round"/>
<path d="M140.187 247.157C139.72 249.577 180.274 314.224 183.52 314.224C187.684 314.224 197.243 307.13 197.243 305.127C197.243 303.124 178.98 256.56 178.98 248.697C178.98 240.834 144.194 226.334 140.187 247.157Z" fill="black"/>
<path d="M133 347.333V170" stroke="#DFDFDF" stroke-width="7" stroke-linecap="round" stroke-linejoin="round"/>
<path d="M309.138 112.903L298.236 110.334L256.444 287.68L267.346 290.249L309.138 112.903Z" fill="#DFDFDF"/>
<path d="M267.336 290.268L269.905 279.366L167.893 255.327L165.324 266.228L267.336 290.268Z" fill="#DFDFDF"/>
<path d="M188.667 51H133V88.6667H188.667V51Z" fill="#DFDFDF"/>
<path d="M198.833 69.8333L173.833 64V75.6667L198.833 69.8333Z" fill="#DFDFDF"/>
<path d="M148.167 72.6667C149.731 72.6667 151 71.3981 151 69.8333C151 68.2685 149.731 67 148.167 67C146.602 67 145.333 68.2685 145.333 69.8333C145.333 71.3981 146.602 72.6667 148.167 72.6667Z" fill="white"/>
<path d="M160.833 72.6667C162.398 72.6667 163.667 71.3981 163.667 69.8333C163.667 68.2685 162.398 67 160.833 67C159.269 67 158 68.2685 158 69.8333C158 71.3981 159.269 72.6667 160.833 72.6667Z" fill="white"/>
<path d="M173.5 72.6667C175.065 72.6667 176.333 71.3981 176.333 69.8333C176.333 68.2685 175.065 67 173.5 67C171.935 67 170.667 68.2685 170.667 69.8333C170.667 71.3981 171.935 72.6667 173.5 72.6667Z" fill="white"/>
<path d="M206.604 160.033C212.667 132.61 226 101.12 250.397 91.5635" stroke="black" stroke-width="2.5" stroke-linecap="round" stroke-linejoin="round"/>
<path d="M273.177 90C283.333 94.0733 287.667 106.63 287.667 116C287.667 168.333 276.893 220.707 270.667 224.667C259.667 231.667 208.293 215 203.667 204C202.297 200.743 202.027 191.533 203.333 179.647" stroke="black" stroke-width="2.5" stroke-linecap="round" stroke-linejoin="round"/>
<path d="M250.397 91.5632C250.727 87.3489 250.779 83.1176 250.553 78.8965" stroke="black" stroke-width="2.5" stroke-linecap="round" stroke-linejoin="round"/>
<path d="M269.333 63.333C269 65.333 269.667 82.333 274.333 92.9997C273.31 94.6363 267.14 97.5263 260.833 98.1297" stroke="black" stroke-width="2.5" stroke-linecap="round" stroke-linejoin="round"/>
<path d="M262.467 62.8503C259.727 72.7637 253.61 79.667 246.5 79.667C236.833 79.667 229 66.907 229 51.167C228.998 48.6544 229.203 46.1458 229.613 43.667" stroke="black" stroke-width="2.5" stroke-linecap="round" stroke-linejoin="round"/>
<path d="M223.167 42.9633C210.307 40.1967 208.333 30 208.333 26C208.333 13.6667 219.333 13.3333 224 10.6667C229.313 7.63 233.333 2 241 2C248.333 2 253.833 9 258.333 11.3333C266 15.3333 284.333 14.6667 284.333 28.6667C284.333 38.6667 280.667 41.3333 280.667 46C280.667 48.6667 281.333 49.6667 281.333 55C281.333 61.1033 276 64.4167 272.22 65.1667" stroke="black" stroke-width="2.5" stroke-linecap="round" stroke-linejoin="round"/>
<path d="M261.167 48C262.802 48 264.371 48.6497 265.527 49.8062C266.684 50.9626 267.333 52.5312 267.333 54.1667C267.333 55.8022 266.684 57.3707 265.527 58.5272C264.371 59.6836 262.802 60.3333 261.167 60.3333" stroke="black" stroke-width="2.5" stroke-linecap="round" stroke-linejoin="round"/>
<path d="M243.833 154C241.97 158.47 239.167 166.333 238.667 173.667C233.667 171.667 185.667 150 176.667 150C159 150 154.333 155.667 154.333 158.333C154.333 163.333 176 162.667 179 164.333C182 166 241.333 204.667 248.667 204.667C255.29 204.667 270.893 179.097 274.333 168.503" stroke="black" stroke-width="2.5" stroke-linecap="round" stroke-linejoin="round"/>
<path d="M282.75 158.167C280.817 164.334 278.443 168.571 276.333 168.667C269 169.001 242.333 155.001 240.333 150.667C239 147.811 249 127.844 260.55 116.777" stroke="black" stroke-width="2.5" stroke-linecap="round" stroke-linejoin="round"/>
<path d="M170.667 165.667H0.666748V172.334H170.667V165.667Z" fill="#DFDFDF"/>
<path d="M11 347.333V170" stroke="#DFDFDF" stroke-width="7" stroke-linecap="round" stroke-linejoin="round"/>
<path d="M41.6667 329.333V170" stroke="#DFDFDF" stroke-width="7" stroke-linecap="round" stroke-linejoin="round"/>
<path d="M163.667 162H125.333V165.667H163.667V162Z" fill="black"/>
<path d="M107.342 115.007L124.898 164.174L125.937 163.803L108.381 114.636L107.342 115.007Z" fill="black"/>
<path d="M249.757 283.867L273.017 353.644" stroke="#DFDFDF" stroke-width="7" stroke-linecap="round" stroke-linejoin="round"/>
<path d="M193.247 321.816L171.15 351.183" stroke="#DFDFDF" stroke-width="7" stroke-linecap="round" stroke-linejoin="round"/>
<path d="M225.21 279.541L200.83 311.941" stroke="#DFDFDF" stroke-width="7" stroke-linecap="round" stroke-linejoin="round"/>
<path d="M189.08 271.026L135.587 342.113" stroke="#DFDFDF" stroke-width="7" stroke-linecap="round" stroke-linejoin="round"/>
<path d="M214.727 277.557L237.987 347.333" stroke="#DFDFDF" stroke-width="7" stroke-linecap="round" stroke-linejoin="round"/>
<path d="M268.03 225.737C253.18 229.52 208 214.277 203.667 204C203.347 203.156 203.123 202.278 203 201.383C183.367 196.333 162.22 192.613 143.823 192.613C113.573 192.613 88.8235 325.08 88.8235 327.363C91.2502 328.077 107.663 330.363 107.663 330.363C107.663 330.363 148.78 246.43 149.923 240.72C154.063 243.573 206.22 270.693 226.357 270.693C248.427 270.693 269.113 248.027 269.113 227.157C269.113 226.803 268.74 226.333 268.03 225.737Z" fill="black"/>
<path d="M107.09 328.864L102.86 354.04L62.6602 347.664L94.4602 341.477L97.1268 327.2" stroke="black" stroke-width="2.5" stroke-linecap="round" stroke-linejoin="round"/>
<path d="M195.1 304.964L209.627 325.961L176.367 349.421L194.847 322.811L186.8 310.721" stroke="black" stroke-width="2.5" stroke-linecap="round" stroke-linejoin="round"/>
</svg>
