<svg width="48" height="48" viewBox="0 0 48 48" fill="none" xmlns="http://www.w3.org/2000/svg">
<path d="M34.0645 11.6129V19.3549H37.9355V44.129H44.9032V11.6129H34.0645Z" fill="#00CCDB"/>
<path d="M12.3871 37.1613H4.64516V46.4516H12.3871V37.1613Z" fill="#00CCDB"/>
<path d="M34.0645 37.1613H26.3226V46.4516H34.0645V37.1613Z" fill="#00CCDB"/>
<path d="M23 17H19V47H23V17Z" fill="#00CCDB"/>
<path d="M13.9355 34.0645H3.09677V35.6128H13.9355V34.0645Z" fill="#2A2349"/>
<path d="M13.9355 30.9678H3.09677V32.5162H13.9355V30.9678Z" fill="#2A2349"/>
<path d="M13.9355 27.871H3.09677V29.4194H13.9355V27.871Z" fill="#2A2349"/>
<path d="M13.9355 24.7742H3.09677V26.3226H13.9355V24.7742Z" fill="#2A2349"/>
<path d="M13.9355 21.6774H3.09677V23.2258H13.9355V21.6774Z" fill="#2A2349"/>
<path d="M44.9032 6.19355V3.09677H43.3548V0H35.6129V3.09677H34.0645V6.19355H30.9677V15.4839H27.871V9.29032H26.3226V6.61626L19.3548 0.519484L12.3871 6.61626V9.29032H10.8387V12.3871H9.29032V7.74194H7.74194V12.3871H4.64516V15.4839H3.09677V18.5806H0V48H16.2581H17.0323H21.6774H23.6129H37.1613H38.7097H48V6.19355H44.9032ZM37.1613 1.54839H41.8064V3.09677H37.1613V1.54839ZM23.4875 6.19355H15.2222L19.3548 2.57729L23.4875 6.19355ZM6.19355 13.9355H10.8387V15.4839H6.19355V13.9355ZM15.4839 46.4516H1.54839V20.129H9.29032V18.5806H4.64516V17.0323H12.3871V18.5806H10.8387V20.129H15.4839V46.4516ZM17.0323 46.4516V18.5806H13.9355V15.4839H12.3871V13.1613V12.3871V10.8387H21.6774V9.29032H13.9355V7.74194H24.7742V9.29032H23.2258V10.8387H26.3226V15.4839H24.7742V18.5806H21.6774V46.4516H17.0323ZM37.1613 46.4516H23.6129H23.2258V20.129H30.9677V18.5806H26.3226V17.0323H34.0645V18.5806H32.5161V20.129H37.1613V46.4516ZM46.4516 46.4516H38.7097V44.9032H44.9032V43.3548H38.7097V40.2581H44.9032V38.7097H38.7097V35.6129H44.9032V34.0645H38.7097V30.9677H44.9032V29.4194H38.7097V26.3226H44.9032V24.7742H38.7097V21.6774H44.9032V20.129H38.7097V18.5806H35.6129V17.0323H44.9032V15.4839H35.6129H34.0645H32.5161V7.74194H40.2581V6.19355H35.6129V4.64516H43.3548V6.19355H41.8064V7.74194H46.4516V46.4516Z" fill="#2A2349"/>
<path d="M35.6129 34.0645H24.7742V35.6128H35.6129V34.0645Z" fill="#2A2349"/>
<path d="M35.6129 30.9678H24.7742V32.5162H35.6129V30.9678Z" fill="#2A2349"/>
<path d="M35.6129 27.871H24.7742V29.4194H35.6129V27.871Z" fill="#2A2349"/>
<path d="M35.6129 24.7742H24.7742V26.3226H35.6129V24.7742Z" fill="#2A2349"/>
<path d="M35.6129 21.6774H24.7742V23.2258H35.6129V21.6774Z" fill="#2A2349"/>
<path d="M44.9032 10.8387H34.0645V12.3871H44.9032V10.8387Z" fill="#2A2349"/>
</svg>
