<svg viewBox="0 0 32 35" fill="none" xmlns="http://www.w3.org/2000/svg">
    <circle cx="16" cy="16" r="14" fill="white" stroke="#00CCDB" stroke-width="4"/>
    <path fill-rule="evenodd" clip-rule="evenodd"
          d="M16.7017 11.2082C17.3824 10.8845 17.9763 10.7778 18.8975 10.7778C21.2551 10.7873 23 12.7193 23 15.1802C23 17.0586 21.9221 18.8731 19.9144 20.6277C18.8605 21.5486 17.515 22.46 16.5513 22.9449L16 23.2223L15.4487 22.9449C14.485 22.46 13.1395 21.5486 12.0856 20.6277C10.0779 18.8731 9 17.0586 9 15.1802C9 12.6929 10.7286 10.7778 13.1074 10.7778C13.9956 10.7778 14.6199 10.8946 15.3139 11.2281C15.5555 11.3442 15.7825 11.4819 15.9936 11.6409C16.2132 11.4725 16.4497 11.3281 16.7017 11.2082Z"
          fill="#00CCDB"/>
</svg>