<svg width="24" height="24" viewBox="0 0 24 24" xmlns="http://www.w3.org/2000/svg">
    <path
          d="M12 24C5.37258 24 0 18.6274 0 12C0 5.37258 5.37258 0 12 0C18.6274 0 24 5.37258 24 12C24 18.6274 18.6274 24 12 24ZM12.0001 21C16.9706 21 21.0001 16.9706 21.0001 12C21.0001 7.02943 16.9706 2.99999 12.0001 2.99999C7.02949 2.99999 3.00006 7.02943 3.00006 12C3.00006 16.9706 7.02949 21 12.0001 21ZM10.6992 6.86499L9.04674 8.3672L12.8943 11.865L9.04674 15.3628L10.6992 16.865L16.1992 11.865L10.6992 6.86499Z "
          fill="#2a2349"/>
</svg>
