<svg width="48" height="48" viewBox="0 0 48 48" fill="none" xmlns="http://www.w3.org/2000/svg">
<path fill-rule="evenodd" clip-rule="evenodd" d="M24 48C10.7452 48 0 37.2548 0 24C0 10.7452 10.7452 0 24 0C37.2548 0 48 10.7452 48 24C48 37.2548 37.2548 48 24 48Z" fill="#00CCDB"/>
<path fill-rule="evenodd" clip-rule="evenodd" d="M24 43.6363C34.8449 43.6363 43.6364 34.8448 43.6364 23.9999C43.6364 13.155 34.8449 4.36353 24 4.36353C13.1551 4.36353 4.36365 13.155 4.36365 23.9999C4.36365 34.8448 13.1551 43.6363 24 43.6363Z" fill="#FAFAFA"/>
<path fill-rule="evenodd" clip-rule="evenodd" d="M26.1817 20.5402V34.9092H21.8181V20.5402L16.8154 25.5429L13.7299 22.4573L23.9999 12.1873L34.27 22.4573L31.1844 25.5429L26.1817 20.5402Z" fill="#00CCDB"/>
</svg>
