<svg width="56" height="44" viewBox="0 0 56 44" fill="none" xmlns="http://www.w3.org/2000/svg">
<path d="M25.3737 0.878906H17.7847C17.354 1.34684 17.0835 1.96043 17.0835 2.63891C17.0835 3.31738 17.354 3.93055 17.7847 4.39891H25.3728C25.8044 3.93055 26.074 3.31738 26.074 2.63891C26.074 1.96043 25.8044 1.34684 25.3737 0.878906Z" fill="#00CCDB"/>
<path d="M14.3861 21.9994V19.3594H6.46997C5.22576 20.431 4.22214 21.7863 3.58028 23.3572L1.61826 28.1594H8.09219C11.5618 28.1594 14.3861 25.3952 14.3861 21.9994Z" fill="#00CCDB"/>
<path d="M27.8731 27.2802H17.0835V23.7602C17.0835 21.8163 18.6939 20.2402 20.6801 20.2402H31.4696V23.7602C31.4696 25.7041 29.8593 27.2802 27.8731 27.2802Z" fill="#00CCDB"/>
<path d="M55.9987 16.72H50.819L47.2225 21.12H35.9017C35.507 18.4271 33.3228 16.2968 30.5705 15.9096V15.84C30.5705 13.8987 28.9575 12.32 26.974 12.32H24.9777L24.0795 8.8H22.4783V5.28H38.6627C41.1415 5.28 43.1584 3.30602 43.1584 0.88V0H4.49566C2.0169 0 0 1.97355 0 4.4V5.28H20.6801V8.8H19.0789L18.1807 12.32H16.9531C15.582 12.32 14.3492 13.0659 13.7359 14.2656L12.9189 15.8645C8.39337 16.1171 4.44693 18.8706 2.74613 23.0312L0.333663 28.9326C0.112392 29.4744 0 30.0459 0 30.6311C0 33.1504 2.09417 35.2 4.6682 35.2H8.99133V38.72H7.19306V36.96H1.79827V38.72C1.79827 41.632 4.21776 44 7.19306 44H28.7723C31.7476 44 34.167 41.632 34.167 38.72V36.96H28.7723V38.72H26.974V35.2H29.757C31.6909 35.2 33.4479 34.0085 34.1284 32.2352L35.6892 28.16H47.2225L50.819 32.56H56L53.977 24.64L55.9987 16.72ZM4.49566 1.76H41.2065C40.835 2.78437 39.8354 3.52 38.6627 3.52H1.95193C2.32335 2.49563 3.32302 1.76 4.49566 1.76ZM20.4829 10.56H22.6754L23.1259 12.32H20.0334L20.4829 10.56ZM16.9523 14.08H26.974C27.9658 14.08 28.7723 14.8693 28.7723 15.84H14.9419L15.3437 15.0524C15.6501 14.453 16.2669 14.08 16.9523 14.08ZM10.7896 35.2H12.5879V38.72H10.7896V35.2ZM14.3861 38.72V35.2H21.5792V38.72H14.3861ZM30.5705 38.72H32.3688C32.3688 40.6613 30.7558 42.24 28.7723 42.24H7.19306C5.20953 42.24 3.59653 40.6613 3.59653 38.72H5.3948C5.3948 39.6907 6.20129 40.48 7.19306 40.48H28.7723C29.764 40.48 30.5705 39.6907 30.5705 38.72ZM25.1757 38.72H23.3775V35.2H25.1757V38.72ZM53.6955 30.8H51.6821L48.0856 26.4H34.4432L32.4443 31.6164C32.0263 32.707 30.9463 33.44 29.757 33.44H4.6682C3.08594 33.44 1.79827 32.1797 1.79827 30.6311C1.79827 30.2702 1.86763 29.92 2.00417 29.5866L4.41664 23.6844C5.92602 19.9882 9.5309 17.6 13.5985 17.6H29.6714C32.1501 17.6 34.167 19.5736 34.167 22V22.88H48.0856L51.6821 18.48H53.6942L52.1207 24.64L53.6955 30.8Z" fill="#2A2349"/>
<path d="M16.1844 23.7604V28.1604H27.8731C30.3519 28.1604 32.3688 26.1864 32.3688 23.7604V19.3604H20.6801C18.2013 19.3604 16.1844 21.3339 16.1844 23.7604ZM17.9827 23.7604C17.9827 22.3046 19.1931 21.1204 20.6801 21.1204H24.6199L21.9225 26.4004H17.9827V23.7604ZM30.5705 23.7604C30.5705 25.2157 29.3601 26.4004 27.8731 26.4004H23.9333L26.6307 21.1204H30.5705V23.7604Z" fill="#2A2349"/>
<path d="M16.1844 29.9199H17.9827V31.6799H16.1844V29.9199Z" fill="#2A2349"/>
<path d="M19.7809 29.9199H21.5792V31.6799H19.7809V29.9199Z" fill="#2A2349"/>
<path d="M23.3774 29.9199H25.1757V31.6799H23.3774V29.9199Z" fill="#2A2349"/>
</svg>
