<svg width="22" height="22" viewBox="0 0 22 22" fill="none" xmlns="http://www.w3.org/2000/svg">
<path fill-rule="evenodd" clip-rule="evenodd" d="M0 11C0 17.0751 4.92487 22 11 22C17.0751 22 22 17.0751 22 11C22 4.92487 17.0751 0 11 0C4.92487 0 0 4.92487 0 11ZM20 11C20 15.9706 15.9706 20 11 20C6.02944 20 2 15.9706 2 11C2 6.02944 6.02944 2 11 2C15.9706 2 20 6.02944 20 11ZM15 8.54132L13.4587 7L11 9.45868L8.54132 7L7 8.54132L9.45868 11L7 13.4587L8.54131 15L11 12.5413L13.4587 15L15 13.4587L12.5413 11L15 8.54132Z" fill="#BDBDBD"/>
</svg>
