<svg width="22" height="22" viewBox="0 0 22 22" fill="none" xmlns="http://www.w3.org/2000/svg">
<path fill-rule="evenodd" clip-rule="evenodd" d="M0 11C0 17.0751 4.92487 22 11 22C17.0751 22 22 17.0751 22 11C22 4.92487 17.0751 0 11 0C4.92487 0 0 4.92487 0 11ZM20 11C20 15.9706 15.9706 20 11 20C6.02944 20 2 15.9706 2 11C2 6.02944 6.02944 2 11 2C15.9706 2 20 6.02944 20 11ZM15.0599 5.49735C14.7448 5.17973 14.3133 5 13.8632 5C13.4135 5 12.9825 5.17932 12.6656 5.49818L6.91196 11.2517C6.39783 11.7047 6.0608 12.3788 6.00223 13.1037L6 15.3141V16.0016H8.84253C9.62236 15.9481 10.3031 15.6077 10.7833 15.0538L16.5043 9.33525C16.8217 9.01785 17 8.58736 17 8.13848C17 7.68961 16.8217 7.25912 16.5043 6.94171L15.0599 5.49735ZM9.77742 14.1173C9.5029 14.4313 9.16102 14.6022 8.79375 14.6282L7.37476 14.6269V13.159C7.40247 12.8438 7.57479 12.4991 7.85333 12.2528L11.8466 8.26081L13.7402 10.1545L9.77742 14.1173ZM14.8009 9.0938L15.5318 8.36291C15.5913 8.30337 15.6248 8.22262 15.6248 8.13842C15.6248 8.05421 15.5913 7.97346 15.5318 7.91392L14.0855 6.46764C14.0266 6.4083 13.9465 6.37493 13.8629 6.37493C13.7793 6.37493 13.6992 6.4083 13.6403 6.46764L12.9074 7.20032L14.8009 9.0938Z" fill="#BDBDBD"/>
</svg>
