<svg width="30" height="30" viewBox="0 0 30 30" fill="none" xmlns="http://www.w3.org/2000/svg">
<path d="M0.00921092 15.0192C-0.284518 7.2856 6.48939 0.138855 14.2307 0.0461325C18.1763 -0.290391 22.0149 1.2418 25.0008 3.74076C23.7759 5.0875 22.5297 6.41868 21.1985 7.66492C18.5699 6.06789 15.405 4.85083 12.3328 5.93172C7.37771 7.34266 4.37688 13.1932 6.21058 18.0407C7.72915 23.1035 13.8871 25.8819 18.7132 23.7551C21.2121 22.8603 22.8597 20.5546 23.5827 18.077C20.7187 18.02 17.854 18.0556 14.99 17.9765C14.9829 16.2725 14.9757 14.575 14.9829 12.871C19.759 12.8638 24.5423 12.8496 29.3256 12.8924C29.6194 17.0675 29.0034 21.5356 26.2892 24.8866C22.5725 29.6699 15.7059 31.0737 10.1198 29.1972C4.19144 27.2501 -0.119822 21.2776 0.00921092 15.0192Z" fill="white"/>
</svg>
