<svg width="18" height="16" viewBox="0 0 18 16" fill="none" xmlns="http://www.w3.org/2000/svg">
<path fill-rule="evenodd" clip-rule="evenodd" d="M12.7254 1.28007e-05C11.5409 0 10.7774 0.137106 9.90217 0.553369C9.57813 0.707482 9.27412 0.893082 8.99179 1.10961C8.72034 0.905221 8.42848 0.728143 8.11785 0.578857C7.22562 0.150074 6.42296 0 5.28099 0C2.22254 0 0 2.46229 0 5.66021C0 8.07528 1.38586 10.4082 3.96723 12.6641C5.32219 13.8481 7.05217 15.0199 8.29113 15.6433L9 16L9.70887 15.6433C10.9478 15.0199 12.6778 13.8481 14.0328 12.6641C16.6141 10.4082 18 8.07528 18 5.66021C18 2.49613 15.7565 0.0122097 12.7254 1.28007e-05ZM16.3636 5.6602C16.3636 7.55229 15.2069 9.49954 12.9385 11.4819C11.7018 12.5626 10.1119 13.6427 8.99999 14.2093C7.88811 13.6427 6.29821 12.5626 5.06149 11.4819C2.79312 9.49954 1.63636 7.55229 1.63636 5.6602C1.63636 3.29737 3.17752 1.58997 5.28098 1.58997C6.18895 1.58997 6.74846 1.69458 7.39238 2.00403C7.77272 2.18682 8.10889 2.42818 8.39988 2.72979L9.0019 3.3538L9.59845 2.72485C9.89599 2.41115 10.2371 2.16429 10.6216 1.98144C11.2466 1.68417 11.7712 1.58997 12.722 1.58997C14.7994 1.59834 16.3636 3.33016 16.3636 5.6602Z" fill="#BDBDBD"/>
</svg>
