<svg width="120" height="32" viewBox="0 0 120 32" fill="none" xmlns="http://www.w3.org/2000/svg">
<rect width="120" height="32" rx="4" fill="#00CCDB"/>
<path d="M41.078 21V11.872H44.2C44.8347 11.872 45.404 11.942 45.908 12.082C46.412 12.2127 46.8133 12.4413 47.112 12.768C47.4107 13.0947 47.56 13.552 47.56 14.14C47.56 14.5413 47.4527 14.938 47.238 15.33C47.0327 15.7127 46.7433 15.974 46.37 16.114V16.17C46.8367 16.2913 47.224 16.5293 47.532 16.884C47.8493 17.2293 48.008 17.7053 48.008 18.312C48.008 18.9373 47.8493 19.446 47.532 19.838C47.2147 20.23 46.79 20.524 46.258 20.72C45.726 20.9067 45.1287 21 44.466 21H41.078ZM43.136 15.526H44.102C44.606 15.526 44.97 15.428 45.194 15.232C45.4273 15.036 45.544 14.7747 45.544 14.448C45.544 14.0933 45.4273 13.8413 45.194 13.692C44.9607 13.5427 44.6013 13.468 44.116 13.468H43.136V15.526ZM43.136 19.404H44.298C45.4273 19.404 45.992 18.9933 45.992 18.172C45.992 17.7707 45.852 17.486 45.572 17.318C45.292 17.1407 44.8673 17.052 44.298 17.052H43.136V19.404ZM49.3866 21V14.056H51.4446V16.268H51.9486C52.5086 16.268 53.0126 16.3427 53.4606 16.492C53.9179 16.6413 54.2772 16.8887 54.5386 17.234C54.7999 17.57 54.9306 18.0273 54.9306 18.606C54.9306 19.2033 54.7999 19.6793 54.5386 20.034C54.2772 20.3793 53.9179 20.6267 53.4606 20.776C53.0126 20.9253 52.5086 21 51.9486 21H49.3866ZM51.4446 19.432H51.8506C52.5879 19.432 52.9566 19.152 52.9566 18.592C52.9566 18.06 52.5879 17.794 51.8506 17.794H51.4446V19.432ZM55.8546 21V14.056H57.9126V21H55.8546ZM62.0042 17.276C61.9575 17.7333 61.8828 18.1347 61.7802 18.48C61.6775 18.8253 61.5608 19.1287 61.4302 19.39H63.6702V15.666H62.1862L62.0042 17.276ZM60.9542 21V23.408H59.1762L58.9802 20.734V19.39H59.4142C59.5262 19.3247 59.6288 19.2173 59.7222 19.068C59.8155 18.9187 59.9042 18.6713 59.9882 18.326C60.0722 17.9713 60.1515 17.4673 60.2262 16.814L60.5482 14.056H65.7282V19.39H66.8342V20.734L66.6382 23.408H64.8742V21H60.9542ZM71.02 21.168C70.3573 21.168 69.76 21.0233 69.228 20.734C68.696 20.4447 68.276 20.0293 67.968 19.488C67.66 18.9467 67.506 18.2933 67.506 17.528C67.506 16.772 67.66 16.1233 67.968 15.582C68.2853 15.0407 68.696 14.6253 69.2 14.336C69.704 14.0373 70.2313 13.888 70.782 13.888C71.4446 13.888 71.9906 14.0373 72.42 14.336C72.8586 14.6253 73.1853 15.022 73.4 15.526C73.624 16.0207 73.736 16.5853 73.736 17.22C73.736 17.3973 73.7266 17.5747 73.708 17.752C73.6893 17.92 73.6706 18.046 73.652 18.13H69.494C69.5873 18.634 69.7973 19.0073 70.124 19.25C70.4506 19.4833 70.8426 19.6 71.3 19.6C71.7946 19.6 72.294 19.446 72.798 19.138L73.484 20.384C73.1293 20.6267 72.7326 20.818 72.294 20.958C71.8553 21.098 71.4306 21.168 71.02 21.168ZM69.48 16.772H71.986C71.986 16.3893 71.8926 16.0767 71.706 15.834C71.5286 15.582 71.2346 15.456 70.824 15.456C70.5066 15.456 70.222 15.568 69.97 15.792C69.718 16.0067 69.5546 16.3333 69.48 16.772ZM75.158 21.168C74.9994 21.168 74.8547 21.154 74.724 21.126C74.5934 21.098 74.4627 21.0607 74.332 21.014L74.668 19.166C74.724 19.1753 74.78 19.1893 74.836 19.208C74.892 19.2173 74.9527 19.222 75.018 19.222C75.2047 19.222 75.3634 19.1427 75.494 18.984C75.634 18.8253 75.7274 18.5593 75.774 18.186C75.8674 17.4953 75.9467 16.8093 76.012 16.128C76.0867 15.4373 76.166 14.7467 76.25 14.056H81.374V21H79.316V15.666H77.874C77.8087 16.1793 77.7434 16.6973 77.678 17.22C77.622 17.7333 77.5567 18.2467 77.482 18.76C77.37 19.5347 77.1227 20.132 76.74 20.552C76.3574 20.9627 75.83 21.168 75.158 21.168ZM86.2914 21.168C85.6288 21.168 85.0314 21.0233 84.4994 20.734C83.9674 20.4447 83.5474 20.0293 83.2394 19.488C82.9314 18.9467 82.7774 18.2933 82.7774 17.528C82.7774 16.772 82.9314 16.1233 83.2394 15.582C83.5568 15.0407 83.9674 14.6253 84.4714 14.336C84.9754 14.0373 85.5028 13.888 86.0534 13.888C86.7161 13.888 87.2621 14.0373 87.6914 14.336C88.1301 14.6253 88.4568 15.022 88.6714 15.526C88.8954 16.0207 89.0074 16.5853 89.0074 17.22C89.0074 17.3973 88.9981 17.5747 88.9794 17.752C88.9608 17.92 88.9421 18.046 88.9234 18.13H84.7654C84.8588 18.634 85.0688 19.0073 85.3954 19.25C85.7221 19.4833 86.1141 19.6 86.5714 19.6C87.0661 19.6 87.5654 19.446 88.0694 19.138L88.7554 20.384C88.4008 20.6267 88.0041 20.818 87.5654 20.958C87.1268 21.098 86.7021 21.168 86.2914 21.168ZM84.7514 16.772H87.2574C87.2574 16.3893 87.1641 16.0767 86.9774 15.834C86.8001 15.582 86.5061 15.456 86.0954 15.456C85.7781 15.456 85.4934 15.568 85.2414 15.792C84.9894 16.0067 84.8261 16.3333 84.7514 16.772ZM90.4295 21V14.056H92.4875V16.562H94.7135V14.056H96.7715V21H94.7135V18.354H92.4875V21H90.4295ZM98.578 21V14.056H100.566V15.988C100.566 16.3333 100.547 16.7253 100.51 17.164C100.473 17.5933 100.435 18.0227 100.398 18.452H100.44C100.552 18.2373 100.687 17.9947 100.846 17.724C101.005 17.444 101.135 17.2013 101.238 16.996L103.044 14.056H104.92V21H102.932V19.068C102.932 18.7133 102.951 18.3213 102.988 17.892C103.035 17.4627 103.077 17.0333 103.114 16.604H103.058C102.946 16.8093 102.811 17.0567 102.652 17.346C102.503 17.626 102.372 17.864 102.26 18.06L100.454 21H98.578ZM109.848 21.168C109.185 21.168 108.588 21.0233 108.056 20.734C107.524 20.4447 107.104 20.0293 106.796 19.488C106.488 18.9467 106.334 18.2933 106.334 17.528C106.334 16.772 106.488 16.1233 106.796 15.582C107.113 15.0407 107.524 14.6253 108.028 14.336C108.532 14.0373 109.059 13.888 109.61 13.888C110.273 13.888 110.819 14.0373 111.248 14.336C111.687 14.6253 112.013 15.022 112.228 15.526C112.452 16.0207 112.564 16.5853 112.564 17.22C112.564 17.3973 112.555 17.5747 112.536 17.752C112.517 17.92 112.499 18.046 112.48 18.13H108.322C108.415 18.634 108.625 19.0073 108.952 19.25C109.279 19.4833 109.671 19.6 110.128 19.6C110.623 19.6 111.122 19.446 111.626 19.138L112.312 20.384C111.957 20.6267 111.561 20.818 111.122 20.958C110.683 21.098 110.259 21.168 109.848 21.168ZM108.308 16.772H110.814C110.814 16.3893 110.721 16.0767 110.534 15.834C110.357 15.582 110.063 15.456 109.652 15.456C109.335 15.456 109.05 15.568 108.798 15.792C108.546 16.0067 108.383 16.3333 108.308 16.772Z" fill="white"/>
<g clip-path="url(#clip0_2142_1623)">
<path fill-rule="evenodd" clip-rule="evenodd" d="M21.4949 17.8513H9.85278C9.62283 17.8513 9.43701 17.6652 9.43701 17.4349V10.7729C9.43701 10.5427 9.62283 10.3566 9.85278 10.3566H21.4949C21.7248 10.3566 21.9107 10.5427 21.9107 10.7729V17.4349C21.9107 17.6652 21.7248 17.8513 21.4949 17.8513Z" fill="#00CCDB"/>
<path fill-rule="evenodd" clip-rule="evenodd" d="M21.1862 23.1114L20.3658 22.8929C20.3329 22.8054 20.2964 22.7184 20.2569 22.6318L20.6826 21.8952C20.7774 21.7321 20.75 21.5255 20.6168 21.3923L19.2053 19.9787C19.0723 19.8454 18.8656 19.818 18.703 19.9128L17.9675 20.3392C17.881 20.2997 17.7941 20.263 17.7068 20.2301L17.4885 19.4085C17.4407 19.227 17.276 19.1 17.0873 19.1H15.0915C14.9032 19.1 14.738 19.2269 14.6899 19.409L14.4716 20.2305C14.3843 20.2634 14.2974 20.3 14.2109 20.3396L13.4754 19.9133C13.3124 19.8183 13.1061 19.8458 12.9731 19.9791L11.5615 21.3926C11.4285 21.5258 11.4011 21.7324 11.4958 21.8956L11.9215 22.6322C11.882 22.7188 11.8454 22.8058 11.8126 22.8933L10.9922 23.1119C10.8109 23.1598 10.6841 23.3247 10.6841 23.5137V25.5123C10.6841 25.7009 10.8108 25.8662 10.9926 25.9145L11.813 26.133C11.8458 26.2205 11.8824 26.3075 11.922 26.3941L11.4962 27.1307C11.4014 27.2939 11.4288 27.5005 11.5619 27.6337L12.9735 29.0473C13.1065 29.1805 13.3128 29.208 13.4758 29.1131L14.2113 28.6867C14.2978 28.7263 14.3846 28.763 14.472 28.7959L14.6903 29.6174C14.7381 29.7989 14.9027 29.926 15.0915 29.926H17.0873C17.2757 29.926 17.4407 29.799 17.4889 29.617L17.7072 28.7955C17.7946 28.7625 17.8814 28.7259 17.9679 28.6863L18.7034 29.1127C18.866 29.2077 19.0727 29.1802 19.2057 29.0469L20.6173 27.6333C20.7503 27.5001 20.7778 27.2935 20.683 27.1303L20.2572 26.3937C20.2968 26.3071 20.3334 26.2201 20.3662 26.1327L21.1866 25.9141C21.3678 25.8662 21.4947 25.7013 21.4947 25.5123V23.5137C21.4947 23.3247 21.3679 23.1597 21.1862 23.1114ZM16.0895 27.0112C14.7116 27.0112 13.5947 25.8929 13.5947 24.513C13.5947 23.1331 14.7115 22.0147 16.0895 22.0147C17.4673 22.0147 18.5842 23.133 18.5842 24.513C18.5842 25.8928 17.4674 27.0112 16.0895 27.0112Z" fill="#00CCDB"/>
<path fill-rule="evenodd" clip-rule="evenodd" d="M16.0895 21.4879C17.7552 21.4879 19.1106 22.8452 19.1106 24.5133C19.1106 26.1813 17.7552 27.5386 16.0895 27.5386C14.4238 27.5386 13.0684 26.1814 13.0684 24.5133C13.0684 22.8451 14.4238 21.4879 16.0895 21.4879ZM28.2579 25.0403V26.3475L25.6527 30L23.0475 26.3475V25.0403H21.3844V23.9862H23.0475V11.6054C23.0475 10.1666 24.2159 8.99656 25.6527 8.99656C27.0895 8.99656 28.2579 10.1666 28.2579 11.6054V23.9862H30.9474V8.38512H7.05258V23.9862H10.7947V25.0403H6V4H32V25.0403H28.2578H28.2579ZM10.9896 12.9653V11.9112H20.3579V12.9653H10.9896ZM10.9896 14.6308V13.5767H20.3579V14.6308H10.9896ZM12.2369 16.2964V15.2422H13.2895V16.2964H12.2369ZM15.1474 16.2964V15.2422H16.2001V16.2964H15.1474ZM18.0579 16.2964V15.2422H19.1106V16.2964H18.0579ZM16.0895 26.4844C17.1749 26.4844 18.0579 25.6001 18.0579 24.5133C18.0579 23.4264 17.1749 22.542 16.0895 22.542C15.0041 22.542 14.1211 23.4263 14.1211 24.5133C14.1211 25.6001 15.0042 26.4844 16.0895 26.4844ZM26.179 25.6517H27.2053V15.4636H26.179V16.2868H25.1263V15.4636H24.1V25.6517H25.1263V16.8981H26.179V25.6517ZM27.2053 14.4094V13.798H24.1V14.4094H27.2053ZM24.1 12.7439H27.2053V11.6055C27.2053 10.748 26.5089 10.0506 25.6526 10.0506C24.7964 10.0506 24.1 10.7479 24.1 11.6054V12.7439H24.1ZM24.5964 26.7058L25.6527 28.1864L26.709 26.7058H24.5965H24.5964ZM7.05265 7.33097H30.9475V5.05407H7.05265V7.33097ZM7.66324 6.71952V5.66545H8.71589V6.71952H7.66324ZM9.3264 6.71952V5.66545H10.3791V6.71952H9.3264ZM10.9896 6.71952V5.66545H12.0422V6.71952H10.9896Z" fill="white"/>
</g>
<defs>
<clipPath id="clip0_2142_1623">
<rect width="26" height="26" fill="white" transform="translate(6 4)"/>
</clipPath>
</defs>
</svg>
