<svg width="20" height="20" viewBox="0 0 20 20" fill="white" xmlns="http://www.w3.org/2000/svg">
<path fill-rule="evenodd" clip-rule="evenodd" d="M11.667 2.49996C11.667 2.03972 12.0401 1.66663 12.5003 1.66663H15.8337C16.4967 1.66663 17.1326 1.93002 17.6014 2.39886C18.0703 2.8677 18.3337 3.50358 18.3337 4.16663V15.8333C18.3337 16.4963 18.0703 17.1322 17.6014 17.6011C17.1326 18.0699 16.4967 18.3333 15.8337 18.3333H12.5003C12.0401 18.3333 11.667 17.9602 11.667 17.5C11.667 17.0397 12.0401 16.6666 12.5003 16.6666H15.8337C16.0547 16.6666 16.2666 16.5788 16.4229 16.4225C16.5792 16.2663 16.667 16.0543 16.667 15.8333V4.16663C16.667 3.94561 16.5792 3.73365 16.4229 3.57737C16.2666 3.42109 16.0547 3.33329 15.8337 3.33329H12.5003C12.0401 3.33329 11.667 2.9602 11.667 2.49996Z" fill="white"/>
<path fill-rule="evenodd" clip-rule="evenodd" d="M7.74408 5.24408C8.06951 4.91864 8.59715 4.91864 8.92259 5.24408L13.0893 9.41074C13.4147 9.73618 13.4147 10.2638 13.0893 10.5893L8.92259 14.7559C8.59715 15.0814 8.06951 15.0814 7.74408 14.7559C7.41864 14.4305 7.41864 13.9028 7.74408 13.5774L11.3215 10L7.74408 6.42259C7.41864 6.09715 7.41864 5.56951 7.74408 5.24408Z" fill="white"/>
<path fill-rule="evenodd" clip-rule="evenodd" d="M1.66699 9.99996C1.66699 9.53972 2.04009 9.16663 2.50033 9.16663H12.5003C12.9606 9.16663 13.3337 9.53972 13.3337 9.99996C13.3337 10.4602 12.9606 10.8333 12.5003 10.8333H2.50033C2.04009 10.8333 1.66699 10.4602 1.66699 9.99996Z" fill="white"/>
</svg>
