<svg width="94" height="32" viewBox="0 0 94 32" fill="none" xmlns="http://www.w3.org/2000/svg">
<rect width="94" height="32" rx="4" fill="#D62C54"/>
<path d="M40.886 21.168C40.3073 21.168 39.7613 21.07 39.248 20.874C38.7347 20.6687 38.282 20.37 37.89 19.978C37.5073 19.586 37.204 19.1007 36.98 18.522C36.756 17.934 36.644 17.2573 36.644 16.492C36.644 15.736 36.7607 15.064 36.994 14.476C37.2273 13.8787 37.54 13.3747 37.932 12.964C38.324 12.5533 38.7813 12.2407 39.304 12.026C39.8267 11.8113 40.3773 11.704 40.956 11.704C41.544 11.704 42.0713 11.8253 42.538 12.068C43.0047 12.3013 43.392 12.5767 43.7 12.894L42.608 14.21C42.3747 13.9953 42.1273 13.8227 41.866 13.692C41.614 13.552 41.3247 13.482 40.998 13.482C40.69 13.482 40.396 13.552 40.116 13.692C39.8453 13.8227 39.6073 14.014 39.402 14.266C39.206 14.518 39.0473 14.826 38.926 15.19C38.814 15.554 38.758 15.9647 38.758 16.422C38.758 17.3647 38.9587 18.0973 39.36 18.62C39.7613 19.1333 40.298 19.39 40.97 19.39C41.3433 19.39 41.6747 19.3107 41.964 19.152C42.2627 18.984 42.524 18.7787 42.748 18.536L43.84 19.824C43.0747 20.72 42.09 21.168 40.886 21.168ZM45.0584 23.576V14.056H46.7384L46.8784 14.742H46.9344C47.2051 14.4993 47.5084 14.2987 47.8444 14.14C48.1898 13.972 48.5444 13.888 48.9084 13.888C49.3284 13.888 49.7064 13.972 50.0424 14.14C50.3784 14.308 50.6631 14.546 50.8964 14.854C51.1298 15.162 51.3071 15.5353 51.4284 15.974C51.5591 16.4033 51.6244 16.884 51.6244 17.416C51.6244 18.0133 51.5404 18.5453 51.3724 19.012C51.2138 19.4693 50.9944 19.8613 50.7144 20.188C50.4438 20.5053 50.1311 20.748 49.7764 20.916C49.4311 21.084 49.0718 21.168 48.6984 21.168C48.3998 21.168 48.1104 21.1073 47.8304 20.986C47.5504 20.8553 47.2891 20.6733 47.0464 20.44L47.1164 21.546V23.576H45.0584ZM48.2224 19.488C48.5771 19.488 48.8804 19.3293 49.1324 19.012C49.3844 18.6853 49.5104 18.1627 49.5104 17.444C49.5104 16.1933 49.1091 15.568 48.3064 15.568C47.9051 15.568 47.5084 15.778 47.1164 16.198V19.04C47.3031 19.208 47.4898 19.3247 47.6764 19.39C47.8631 19.4553 48.0451 19.488 48.2224 19.488ZM56.0658 21.168C55.6272 21.168 55.2025 21.0887 54.7918 20.93C54.3812 20.762 54.0172 20.524 53.6998 20.216C53.3918 19.908 53.1445 19.53 52.9578 19.082C52.7712 18.6247 52.6778 18.1067 52.6778 17.528C52.6778 16.9493 52.7712 16.436 52.9578 15.988C53.1445 15.5307 53.3918 15.148 53.6998 14.84C54.0172 14.532 54.3812 14.2987 54.7918 14.14C55.2025 13.972 55.6272 13.888 56.0658 13.888C56.5045 13.888 56.9245 13.972 57.3258 14.14C57.7365 14.2987 58.0958 14.532 58.4038 14.84C58.7212 15.148 58.9732 15.5307 59.1598 15.988C59.3465 16.436 59.4398 16.9493 59.4398 17.528C59.4398 18.1067 59.3465 18.6247 59.1598 19.082C58.9732 19.53 58.7212 19.908 58.4038 20.216C58.0958 20.524 57.7365 20.762 57.3258 20.93C56.9245 21.0887 56.5045 21.168 56.0658 21.168ZM56.0658 19.502C56.4858 19.502 56.8032 19.3247 57.0178 18.97C57.2325 18.6153 57.3398 18.1347 57.3398 17.528C57.3398 16.9213 57.2325 16.4407 57.0178 16.086C56.8032 15.7313 56.4858 15.554 56.0658 15.554C55.6365 15.554 55.3145 15.7313 55.0998 16.086C54.8945 16.4407 54.7918 16.9213 54.7918 17.528C54.7918 18.1347 54.8945 18.6153 55.0998 18.97C55.3145 19.3247 55.6365 19.502 56.0658 19.502ZM64.6715 21V18.634C64.4848 18.6807 64.3075 18.7133 64.1395 18.732C63.9715 18.7413 63.7428 18.746 63.4535 18.746C63.0428 18.746 62.6601 18.6993 62.3055 18.606C61.9601 18.5033 61.6615 18.3447 61.4095 18.13C61.1575 17.9153 60.9615 17.64 60.8215 17.304C60.6815 16.9587 60.6115 16.5433 60.6115 16.058V14.056H62.6695V16.058C62.6695 16.4127 62.7628 16.6833 62.9495 16.87C63.1455 17.0473 63.4628 17.136 63.9015 17.136C64.0508 17.136 64.1815 17.1313 64.2935 17.122C64.4148 17.1033 64.5408 17.08 64.6715 17.052V14.056H66.7295V21H64.6715ZM68.5467 21V14.056H70.6047V16.562H72.8307V14.056H74.8887V21H72.8307V18.354H70.6047V21H68.5467ZM79.6772 21.168C79.2385 21.168 78.8138 21.0887 78.4032 20.93C77.9925 20.762 77.6285 20.524 77.3112 20.216C77.0032 19.908 76.7558 19.53 76.5692 19.082C76.3825 18.6247 76.2892 18.1067 76.2892 17.528C76.2892 16.9493 76.3825 16.436 76.5692 15.988C76.7558 15.5307 77.0032 15.148 77.3112 14.84C77.6285 14.532 77.9925 14.2987 78.4032 14.14C78.8138 13.972 79.2385 13.888 79.6772 13.888C80.1158 13.888 80.5358 13.972 80.9372 14.14C81.3478 14.2987 81.7072 14.532 82.0152 14.84C82.3325 15.148 82.5845 15.5307 82.7712 15.988C82.9578 16.436 83.0512 16.9493 83.0512 17.528C83.0512 18.1067 82.9578 18.6247 82.7712 19.082C82.5845 19.53 82.3325 19.908 82.0152 20.216C81.7072 20.524 81.3478 20.762 80.9372 20.93C80.5358 21.0887 80.1158 21.168 79.6772 21.168ZM79.6772 19.502C80.0972 19.502 80.4145 19.3247 80.6292 18.97C80.8438 18.6153 80.9512 18.1347 80.9512 17.528C80.9512 16.9213 80.8438 16.4407 80.6292 16.086C80.4145 15.7313 80.0972 15.554 79.6772 15.554C79.2478 15.554 78.9258 15.7313 78.7112 16.086C78.5058 16.4407 78.4032 16.9213 78.4032 17.528C78.4032 18.1347 78.5058 18.6153 78.7112 18.97C78.9258 19.3247 79.2478 19.502 79.6772 19.502Z" fill="white"/>
<path fill-rule="evenodd" clip-rule="evenodd" d="M19.6376 15.8837C20.2174 15.0694 20.1527 14.2118 19.7507 12.6692C18.9556 9.61827 19.2722 7.94606 22.0131 5.96629L23.3509 5L23.6744 6.61896C24.0183 8.33952 24.583 9.40368 26.033 11.4506C26.0906 11.5319 26.0906 11.5319 26.1485 11.6136C28.2371 14.5623 29 16.3399 29 19.5679C29 23.4839 25.0439 27 20.5121 27C15.98 27 12.0242 23.4844 12.0242 19.5679C12.0242 19.4947 12.0243 19.4969 12.0119 19.1734C11.916 16.6713 12.3783 14.713 14.2491 12.5986C14.6444 12.1518 15.0937 11.7225 15.5993 11.3116L16.7155 10.4046L17.2524 11.7393C17.6491 12.7256 18.1139 13.5008 18.639 14.0698C19.0838 14.5516 19.4137 15.1576 19.6376 15.8837ZM15.8378 14.0062C14.3976 15.6339 14.0552 17.0841 14.1322 19.0921C14.1465 19.4659 14.146 19.4527 14.146 19.5679C14.146 22.2518 17.0994 24.8765 20.512 24.8765C23.9243 24.8765 26.8779 22.2514 26.8779 19.5679C26.8779 16.8692 26.275 15.4644 24.4172 12.8415C24.3596 12.7603 24.3596 12.7603 24.3018 12.6786C23.1735 11.0859 22.501 9.97794 22.0561 8.73883C21.3295 9.61014 21.3722 10.4767 21.8039 12.1333C22.599 15.1842 22.2824 16.8564 19.5415 18.8362L17.9786 19.965L17.8615 18.0398C17.7866 16.8098 17.5084 15.9745 17.0801 15.5105C16.6569 15.052 16.2749 14.5153 15.9323 13.9012C15.9003 13.9361 15.8688 13.9711 15.8378 14.0062Z" fill="white"/>
</svg>
