<svg width="70" height="32" viewBox="0 0 70 32" fill="none" xmlns="http://www.w3.org/2000/svg">
<rect width="70" height="32" rx="4" fill="#2A2349"/>
<path d="M42.66 21L39.902 11.872H42.086L43.178 16.128C43.318 16.6227 43.4393 17.108 43.542 17.584C43.654 18.06 43.78 18.55 43.92 19.054H43.976C44.1067 18.55 44.228 18.06 44.34 17.584C44.452 17.108 44.5733 16.6227 44.704 16.128L45.782 11.872H47.882L45.138 21H42.66ZM48.8573 21V11.872H50.9153V21H48.8573ZM53.0682 21V11.872H56.2042C56.8762 11.872 57.4829 11.9653 58.0242 12.152C58.5749 12.3293 59.0136 12.6327 59.3402 13.062C59.6669 13.4913 59.8302 14.0747 59.8302 14.812C59.8302 15.5213 59.6669 16.1047 59.3402 16.562C59.0136 17.0193 58.5796 17.36 58.0382 17.584C57.4969 17.7987 56.9042 17.906 56.2602 17.906H55.1262V21H53.0682ZM55.1262 16.268H56.1342C57.2542 16.268 57.8142 15.7827 57.8142 14.812C57.8142 14.336 57.6649 14 57.3662 13.804C57.0676 13.608 56.6382 13.51 56.0782 13.51H55.1262V16.268Z" fill="white"/>
<g clip-path="url(#clip0_9307_9246)">
<path fill-rule="evenodd" clip-rule="evenodd" d="M19 26.8165C19.2804 26.8165 19.5079 26.5891 19.5079 26.3087C19.5079 26.0284 19.2804 25.8009 19 25.8009C18.7197 25.8009 18.4922 26.0284 18.4922 26.3087C18.4922 26.5891 18.7197 26.8165 19 26.8165Z" fill="white"/>
<path fill-rule="evenodd" clip-rule="evenodd" d="M18.4922 3.50784V6.85936C18.4922 7.13985 18.7196 7.36721 19 7.36721C19.2804 7.36721 19.5079 7.13985 19.5079 6.85936V3.50784C19.5079 3.22743 19.2804 3 19 3C18.7195 3 18.4922 3.22743 18.4922 3.50784Z" fill="white"/>
<path fill-rule="evenodd" clip-rule="evenodd" d="M8.23074 7.77017C8.03246 7.96845 8.03246 8.29 8.23074 8.48836L11.1004 11.358C11.2988 11.5563 11.6202 11.5563 11.8186 11.358C12.0169 11.1597 12.0169 10.8381 11.8186 10.6399L8.94893 7.77017C8.75057 7.57189 8.42902 7.57189 8.23074 7.77017Z" fill="white"/>
<path fill-rule="evenodd" clip-rule="evenodd" d="M29.0541 7.7667L26.1814 10.6394C25.9831 10.8377 25.9831 11.1592 26.1814 11.3576C26.3799 11.5558 26.7013 11.5558 26.8996 11.3576L29.7723 8.48489C29.9706 8.2866 29.9706 7.96505 29.7723 7.7667C29.5739 7.56849 29.2525 7.56849 29.0541 7.7667Z" fill="white"/>
<path fill-rule="evenodd" clip-rule="evenodd" d="M31.4924 12.4452C30.4691 12.4452 29.5158 12.9139 28.8916 13.6975C28.6017 13.5429 28.2763 13.4609 27.9377 13.4609C26.8177 13.4609 25.9064 14.3721 25.9064 15.4922C25.9064 16.3337 26.4209 17.0573 27.1516 17.3652L27.0582 17.4776C26.5303 18.1125 25.56 18.5391 24.6434 18.5391C23.8658 18.5391 22.9635 18.2295 22.4117 17.6779L22.1603 17.4264C22.9775 17.1634 23.5704 16.3958 23.5704 15.4923C23.5704 14.3723 22.6592 13.461 21.5392 13.461H21.4876C21.5606 13.1008 21.5556 12.7235 21.4696 12.3524C21.253 11.4197 20.4752 10.6629 19.534 10.4692C17.9194 10.1367 16.461 11.358 16.461 12.9532C16.461 13.1244 16.4783 13.2946 16.5122 13.4611H16.461C15.341 13.4611 14.4297 14.3723 14.4297 15.4924C14.4297 16.3959 15.0227 17.1635 15.8399 17.4265L15.5885 17.6779C15.0653 18.2012 14.1893 18.5392 13.3567 18.5392C12.4702 18.5392 11.4925 18.1408 10.9421 17.4778L10.8486 17.3652C11.5793 17.0573 12.0937 16.3337 12.0937 15.4923C12.0937 14.3723 11.1825 13.461 10.0624 13.461C9.72384 13.461 9.39847 13.543 9.10855 13.6976C8.48433 12.9139 7.53107 12.4453 6.50782 12.4453C6.3473 12.4453 6.19616 12.5212 6.10039 12.6499C6.00455 12.7787 5.97532 12.9453 6.02141 13.099L9.17689 23.6172H8.84372C8.56324 23.6172 8.33588 23.8446 8.33588 24.125C8.33588 24.4054 8.56324 24.6328 8.84372 24.6328H9.35149V27.4766C9.35149 28.3166 10.0349 29.0001 10.875 29.0001H27.125C27.9651 29.0001 28.6485 28.3166 28.6485 27.4766V24.6328H29.1563C29.4367 24.6328 29.6642 24.4054 29.6642 24.125C29.6642 23.8446 29.4367 23.6172 29.1563 23.6172H28.8232L31.9786 13.099C32.0247 12.9453 31.9955 12.7787 31.8996 12.6499C31.8037 12.5212 31.6527 12.4453 31.4922 12.4453L31.4924 12.4452ZM27.633 25.8008H21.0314C20.751 25.8008 20.5235 26.0282 20.5235 26.3086C20.5235 26.5891 20.751 26.8165 21.0314 26.8165L27.633 26.8164V27.4766C27.633 27.7566 27.4052 27.9844 27.1252 27.9844H10.8752C10.5951 27.9844 10.3673 27.7566 10.3673 27.4766V26.8164H16.9689C17.2494 26.8164 17.4767 26.5891 17.4767 26.3086C17.4767 26.0282 17.2494 25.8008 16.9689 25.8008H10.3673V24.6328H27.6329V25.8008H27.633ZM27.763 23.6172H10.2373L7.22465 13.5746C7.77618 13.7544 8.24888 14.1384 8.53543 14.663C8.6988 14.9622 9.10412 15.0175 9.3422 14.7767C9.53366 14.5832 9.78956 14.4765 10.0628 14.4765C10.6228 14.4765 11.0784 14.9321 11.0784 15.4922C11.0784 16.1054 10.5385 16.5707 9.94903 16.5016C9.74273 16.4778 9.54272 16.5814 9.44373 16.7639C9.34467 16.9464 9.36677 17.1708 9.49956 17.3305L10.161 18.1267C10.9144 19.0341 12.1834 19.5547 13.357 19.5547C14.4617 19.5547 15.5922 19.1108 16.307 18.3961L17.3281 17.3748C17.4733 17.2296 17.5168 17.0112 17.4382 16.8213C17.3597 16.6316 17.1745 16.5078 16.9691 16.5078H16.4613C15.9013 16.5078 15.4457 16.0522 15.4457 15.4922C15.4457 14.9321 15.9013 14.4765 16.4613 14.4765H17.2408C17.4223 14.4765 17.59 14.3797 17.6807 14.2225C17.7714 14.0653 17.7713 13.8716 17.6804 13.7145C17.5474 13.4843 17.4769 13.221 17.4769 12.9531C17.4769 12.0155 18.3287 11.2579 19.3296 11.4639C19.8807 11.5774 20.354 12.0371 20.4805 12.5818C20.5976 13.0867 20.458 13.4763 20.3204 13.7144C20.2295 13.8715 20.2293 14.0652 20.3201 14.2224C20.4108 14.3796 20.5785 14.4765 20.7599 14.4765H21.5394C22.0994 14.4765 22.5551 14.9321 22.5551 15.4921C22.5551 16.0522 22.0994 16.5078 21.5394 16.5078H21.0316C20.8262 16.5078 20.6411 16.6315 20.5624 16.8213C20.4838 17.0111 20.5274 17.2294 20.6726 17.3747L21.6938 18.396C22.4376 19.1398 23.5961 19.5546 24.6437 19.5546C25.864 19.5546 27.1184 18.9942 27.8395 18.1267L28.5012 17.3305C28.6339 17.1708 28.656 16.9464 28.5571 16.7639C28.4581 16.5813 28.2579 16.4774 28.0518 16.5015C28.0157 16.5057 27.9785 16.5077 27.9379 16.5077C27.3779 16.5077 26.9223 16.0521 26.9223 15.4921C26.9223 14.9321 27.3779 14.4764 27.9379 14.4764C28.2112 14.4764 28.4671 14.5832 28.6584 14.7766C28.7714 14.8908 28.9316 14.9449 29.0904 14.9225C29.2493 14.9001 29.3883 14.8038 29.4652 14.663C29.7518 14.1383 30.2244 13.7543 30.776 13.5745L27.7633 23.6171L27.763 23.6172Z" fill="white"/>
<path fill-rule="evenodd" clip-rule="evenodd" d="M19 18.5393C17.88 18.5393 16.9688 19.4505 16.9688 20.5706C16.9688 21.6906 17.88 22.6019 19 22.6019C20.1201 22.6019 21.0313 21.6907 21.0313 20.5706C21.0313 19.4506 20.1201 18.5393 19 18.5393ZM19 21.5861C18.44 21.5861 17.9844 21.1306 17.9844 20.5705C17.9844 20.0105 18.44 19.5549 19 19.5549C19.5601 19.5549 20.0157 20.0105 20.0157 20.5705C20.0157 21.1306 19.5601 21.5861 19 21.5861Z" fill="white"/>
<path fill-rule="evenodd" clip-rule="evenodd" d="M20.0157 20.5703C20.0157 20.0102 19.5601 19.5547 19 19.5547C18.44 19.5547 17.9844 20.0102 17.9844 20.5703C17.9844 21.1304 18.44 21.5859 19 21.5859C19.5601 21.5859 20.0157 21.1304 20.0157 20.5703Z" fill="#2A2349"/>
<path fill-rule="evenodd" clip-rule="evenodd" d="M27.6328 24.6323H10.3672V25.8003H16.9687C17.2492 25.8003 17.4766 26.0276 17.4766 26.3081C17.4766 26.5885 17.2492 26.8159 16.9687 26.8159H10.3672V27.4761C10.3672 27.756 10.595 27.9838 10.875 27.9838H27.125C27.4051 27.9838 27.6329 27.756 27.6329 27.4761V26.8159L21.0313 26.816C20.7508 26.816 20.5234 26.5885 20.5234 26.3081C20.5234 26.0276 20.7508 25.8003 21.0313 25.8003H27.6329V24.6323H27.6328ZM19 25.8003C19.2803 25.8003 19.5078 26.0278 19.5078 26.3081C19.5078 26.5884 19.2803 26.8159 19 26.8159C18.7196 26.8159 18.4922 26.5884 18.4922 26.3081C18.4922 26.0278 18.7196 25.8003 19 25.8003Z" fill="#2A2349"/>
</g>
<defs>
<clipPath id="clip0_9307_9246">
<rect width="26" height="26" fill="white" transform="translate(6 3)"/>
</clipPath>
</defs>
</svg>
