<svg width="64" height="64" viewBox="0 0 64 64" fill="none" xmlns="http://www.w3.org/2000/svg">
<mask id="mask0_48_1102" style="mask-type:alpha" maskUnits="userSpaceOnUse" x="0" y="0" width="64" height="64">
<ellipse cx="32" cy="32" rx="32" ry="32" fill="#C4C4C4"/>
</mask>
<g mask="url(#mask0_48_1102)">
<path d="M43.9206 27.0863C41.4551 27.0863 39.1714 25.793 37.9028 23.6791L36.9671 22.1195C33.7873 25.2993 29.4732 27.0863 24.9762 27.0863H20.08H18.0933V24.1062C18.0933 16.4256 24.3196 10.1992 32.0003 10.1992H32.7155C36.9959 10.1992 40.7577 13.0372 41.9339 17.1527C44.1282 17.1527 45.9073 18.9318 45.9073 21.1262V27.0863H43.9206Z" fill="#00CCDB"/>
<path d="M56.8106 57.6558C56.1441 53.6536 53.3378 50.3696 49.4876 49.0861L40.9407 46.2372V44.9667H38.954V46.8302L37.4709 52.7616L33.4587 47.9468H30.5412L26.5291 52.7616L25.047 46.8302V44.9667H23.0603V46.2372L14.5134 49.0861C10.6641 50.3696 7.85789 53.6536 7.19036 57.6558L5 70.794H59L56.8106 57.6558ZM49.7866 68.8073L48.8826 59.7677L46.9058 59.9654L47.7899 68.8063H16.2111L17.0951 59.9654L15.1184 59.7677L14.2144 68.8073H7.34631L9.15025 57.9837C9.69561 54.7085 11.9923 52.0225 15.1422 50.9715L23.3503 48.2348L25.5516 57.039L31.472 49.9335H32.528L38.4494 57.039L40.6507 48.2348L48.8588 50.9715C52.0087 52.0215 54.3044 54.7085 54.8507 57.9837L56.6547 68.8073H49.7866Z" fill="#2A2349"/>
<path d="M19.5258 35.9709C20.0324 37.7142 20.9681 39.3125 22.2873 40.6317L26.1614 44.5058C27.0992 45.4436 28.3458 45.9601 29.6729 45.9601H34.3288C35.655 45.9601 36.9026 45.4436 37.8403 44.5058L41.7144 40.6317C43.0336 39.3125 43.9694 37.7132 44.476 35.9709C46.9504 35.6908 48.8875 33.6087 48.8875 31.0597C48.8875 29.4296 48.0868 27.9922 46.87 27.0863H46.9008V21.1261C46.9008 18.6397 45.0631 16.5736 42.675 16.215C41.18 12.0548 37.1798 9.20581 32.7156 9.20581H32.0004C23.7843 9.20581 17.1 15.8901 17.1 24.1062V27.0863H17.1308C15.9139 27.9922 15.1133 29.4296 15.1133 31.0597C15.1133 33.6087 17.0503 35.6908 19.5258 35.9709ZM40.3088 39.2271L36.4347 43.1012C35.8805 43.6555 35.1126 43.9734 34.3278 43.9734H29.672C28.8872 43.9734 28.1203 43.6555 27.565 43.1012L23.6909 39.2271C22.0022 37.5384 21.0724 35.2934 21.0724 32.9054V28.0796H24.9754C29.3471 28.0796 33.4805 26.527 36.7467 23.683L37.0506 24.1896C38.3182 26.3025 40.5115 27.7071 42.9273 28.0131V32.9044C42.9273 35.2934 41.9976 37.5384 40.3088 39.2271ZM44.8674 33.8709C44.8952 33.5521 44.9141 33.2302 44.9141 32.9054V28.2624C46.0673 28.6737 46.9008 29.7664 46.9008 31.0597C46.9008 32.37 46.0445 33.4736 44.8674 33.8709ZM19.0867 24.1062C19.0867 16.9858 24.88 11.1925 32.0004 11.1925H32.7156C36.5321 11.1925 39.9304 13.7554 40.9794 17.4259L41.185 18.146H41.934C43.577 18.146 44.9141 19.4831 44.9141 21.1261V26.1932C44.5932 26.1277 44.2604 26.0929 43.9207 26.0929C41.8168 26.0929 39.837 24.9724 38.7542 23.1675L37.1639 20.5172L36.2639 21.4172C33.249 24.432 29.2408 26.0929 24.9763 26.0929H20.0801C19.7403 26.0929 19.4076 26.1277 19.0867 26.1932V24.1062ZM19.0867 28.2624V32.9054C19.0867 33.2302 19.1056 33.5521 19.1334 33.8719C17.9563 33.4736 17.1 32.37 17.1 31.0597C17.1 29.7664 17.9334 28.6737 19.0867 28.2624Z" fill="#2A2349"/>
</g>
</svg>
