<svg width="30" height="30" viewBox="0 0 30 30" fill="none" xmlns="http://www.w3.org/2000/svg">
<g clip-path="url(#clip0_6406_37)">
<path fill-rule="evenodd" clip-rule="evenodd" d="M17.8788 15.9822H4.44556C4.18023 15.9822 3.96582 15.7675 3.96582 15.5018V7.81489C3.96582 7.54918 4.18023 7.33447 4.44556 7.33447H17.8788C18.144 7.33447 18.3585 7.54918 18.3585 7.81489V15.5018C18.3585 15.7675 18.144 15.9822 17.8788 15.9822Z" fill="#00CCDB"/>
<path fill-rule="evenodd" clip-rule="evenodd" d="M17.5226 22.0516L16.576 21.7994C16.5381 21.6985 16.4959 21.5981 16.4503 21.4982L16.9415 20.6483C17.0509 20.46 17.0193 20.2216 16.8657 20.0679L15.237 18.4369C15.0834 18.2831 14.845 18.2514 14.6574 18.3609L13.8088 18.8528C13.7089 18.8072 13.6087 18.7649 13.5079 18.727L13.2561 17.779C13.2009 17.5695 13.0109 17.423 12.7931 17.423H10.4903C10.273 17.423 10.0824 17.5694 10.0268 17.7795L9.77497 18.7274C9.67424 18.7654 9.57402 18.8077 9.47415 18.8533L8.62552 18.3614C8.43743 18.2518 8.19945 18.2835 8.04591 18.4373L6.41715 20.0684C6.2637 20.222 6.23207 20.4604 6.34137 20.6487L6.83259 21.4986C6.78699 21.5986 6.74481 21.6989 6.70692 21.7999L5.7603 22.0521C5.55112 22.1074 5.40479 22.2976 5.40479 22.5157V24.8218C5.40479 25.0394 5.55104 25.2302 5.76073 25.2859L6.70734 25.538C6.74524 25.639 6.7875 25.7394 6.83311 25.8393L6.3418 26.6892C6.23241 26.8775 6.26404 27.1159 6.41767 27.2696L8.04642 28.9006C8.19988 29.0544 8.43795 29.0861 8.62595 28.9766L9.47466 28.4846C9.57445 28.5303 9.67467 28.5726 9.77548 28.6105L10.0274 29.5585C10.0825 29.7679 10.2725 29.9145 10.4903 29.9145H12.7931C13.0104 29.9145 13.2009 29.768 13.2565 29.558L13.5084 28.6101C13.6092 28.5721 13.7094 28.5298 13.8092 28.4842L14.6579 28.9761C14.8455 29.0857 15.084 29.054 15.2374 28.9002L16.8662 27.2691C17.0196 27.1154 17.0513 26.8771 16.942 26.6888L16.4507 25.8389C16.4963 25.7388 16.5386 25.6385 16.5765 25.5376L17.523 25.2854C17.7322 25.2301 17.8786 25.0399 17.8786 24.8218V22.5157C17.8786 22.2976 17.7323 22.1073 17.5226 22.0516ZM11.6418 26.5513C10.0519 26.5513 8.7632 25.2609 8.7632 23.6687C8.7632 22.0766 10.0518 20.7861 11.6418 20.7861C13.2316 20.7861 14.5203 22.0765 14.5203 23.6687C14.5203 25.2608 13.2317 26.5513 11.6418 26.5513Z" fill="#00CCDB"/>
<path fill-rule="evenodd" clip-rule="evenodd" d="M11.6418 20.1784C13.5637 20.1784 15.1276 21.7445 15.1276 23.6691C15.1276 25.5938 13.5637 27.1599 11.6418 27.1599C9.71981 27.1599 8.15587 25.5939 8.15587 23.6691C8.15587 21.7444 9.71981 20.1784 11.6418 20.1784ZM25.6822 24.2773V25.7856L22.6762 30L19.6701 25.7856V24.2773H17.7512V23.061H19.6701V8.77551C19.6701 7.11526 21.0183 5.76527 22.6762 5.76527C24.334 5.76527 25.6822 7.11535 25.6822 8.77551V23.061H28.7855V5.05975H1.21452V23.061H5.5324V24.2773H0V0H30V24.2773H25.6821H25.6822ZM5.75718 10.3446V9.12827H16.5669V10.3446H5.75718ZM5.75718 12.2664V11.05H16.5669V12.2664H5.75718ZM7.19639 14.1881V12.9718H8.41099V14.1881H7.19639ZM10.5547 14.1881V12.9718H11.7693V14.1881H10.5547ZM13.913 14.1881V12.9718H15.1276V14.1881H13.913ZM11.6418 25.9436C12.8941 25.9436 13.913 24.9232 13.913 23.6691C13.913 22.415 12.8941 21.3946 11.6418 21.3946C10.3893 21.3946 9.37047 22.415 9.37047 23.6691C9.37047 24.9232 10.3894 25.9436 11.6418 25.9436ZM23.2834 24.9827H24.4676V13.2272H23.2834V14.177H22.0688V13.2272H20.8846V24.9827H22.0688V14.8825H23.2834V24.9827ZM24.4676 12.0109V11.3053H20.8847V12.0109H24.4676ZM20.8847 10.0891H24.4676V8.7756C24.4676 7.78618 23.6642 6.9815 22.6761 6.9815C21.6881 6.9815 20.8846 7.78609 20.8846 8.77551V10.0891H20.8847ZM21.4574 26.199L22.6762 27.9074L23.895 26.199H21.4575H21.4574ZM1.2146 3.84342H28.7856V1.21624H1.2146V3.84342ZM1.91912 3.13791V1.92167H3.13372V3.13791H1.91912ZM3.83815 3.13791V1.92167H5.05275V3.13791H3.83815ZM5.75718 3.13791V1.92167H6.97178V3.13791H5.75718Z" fill="#2B2A29"/>
</g>
<defs>
<clipPath id="clip0_6406_37">
<rect width="30" height="30" fill="white"/>
</clipPath>
</defs>
</svg>
