<svg width="25" height="30" viewBox="0 0 25 30" fill="none" xmlns="http://www.w3.org/2000/svg">
<g clip-path="url(#clip0_6406_30)">
<path fill-rule="evenodd" clip-rule="evenodd" d="M3.82897 16.5953L3.82291 16.0299C3.80171 14.054 4.00342 12.0416 4.48137 10.1215C5.72256 5.12938 8.74286 1.39325 13.959 0.231321L14.9949 0.000732422L14.7156 1.01352C14.331 2.40903 14.0602 3.85845 14.0214 5.30666C13.9978 6.20685 14.0632 7.13041 14.2867 8.00485C14.5593 9.06975 15.1736 10.367 16.3003 10.7545C16.4947 10.8216 16.6976 10.8564 16.9036 10.8564C18.2017 10.8546 19.1189 9.55668 19.5762 8.49777L20.0111 7.49096L20.675 8.3672C22.2954 10.5066 23.158 13.0694 22.7746 15.7478C22.708 16.2144 22.605 16.6756 22.4669 17.1266L22.224 17.9213L22.8891 17.4146C23.1556 17.211 23.4264 16.9619 23.6317 16.6977L24.6797 15.3501L24.776 17.0475C24.7893 17.2787 24.796 17.5099 24.796 17.7411C24.796 24.4413 19.3254 29.9167 12.55 29.9988C12.4992 29.9994 12.4483 30.0006 12.3968 30.0006C12.3459 30.0006 12.295 29.9994 12.2435 29.9988C5.46754 29.9167 -0.00244141 24.4413 -0.00244141 17.7411C-0.00244141 16.6804 0.135671 15.6209 0.410078 14.5955L0.76808 13.2581L1.55617 14.4026C1.69792 14.6039 1.86389 14.7931 2.02987 14.9758C2.44421 15.4328 2.90034 15.8544 3.38313 16.2401L3.82775 16.5959L3.82897 16.5953ZM15.8714 21.3993L15.6551 21.5551C15.2305 21.8605 14.7199 22.0246 14.1935 21.9665C13.223 21.8593 12.5064 21.0759 12.1339 20.2338C11.7838 19.4408 11.6947 18.5143 11.854 17.6656L11.9558 17.1212L11.4621 17.3823C8.83494 18.7724 7.87905 21.4586 7.87905 24.2688C7.87905 26.7328 9.90591 28.7368 12.398 28.7368C14.8901 28.7368 16.9169 26.7328 16.9169 24.2688C16.9169 23.3129 16.605 22.3804 16.0307 21.612L15.872 21.3993H15.8714ZM17.0914 27.7504L17.8964 27.2958C20.9404 25.5769 23.0072 22.5349 23.4361 19.0917L23.5003 18.5742L23.0387 18.8263C22.4251 19.1611 21.7369 19.3438 21.0349 19.2438L20.0445 19.1024L20.5927 18.2705C20.7465 18.0303 20.8713 17.7566 20.9809 17.4943C21.2487 16.8546 21.431 16.1761 21.5219 15.4897C21.763 13.6683 21.3644 11.9404 20.4606 10.3455L20.2534 9.98012L20.0069 10.3203C19.6362 10.8312 19.1794 11.2894 18.6343 11.6176C17.7971 12.1213 16.8152 12.268 15.8817 11.947C14.3237 11.411 13.432 9.81062 13.0492 8.31389C12.5482 6.35779 12.7178 4.15252 13.1201 2.19102L13.2152 1.72565L12.7639 1.88796C8.83433 3.29964 6.71176 6.48775 5.73467 10.3754C5.31852 12.0303 5.12771 13.7522 5.1059 15.4555C5.09863 16.003 5.10953 16.551 5.14164 17.0972C5.15436 17.311 5.16769 17.5255 5.19313 17.7387L5.34275 19.0066L4.2324 18.3556C3.35102 17.8387 2.52417 17.226 1.7803 16.5288L1.37868 16.1527L1.32659 16.6971C1.29327 17.0433 1.27692 17.3913 1.27692 17.7393C1.27692 21.6958 3.42796 25.3343 6.90015 27.2946L7.70581 27.7492L7.27208 26.9389C6.83049 26.1141 6.60212 25.2002 6.60212 24.267C6.60212 21.4287 7.47683 18.6724 9.84776 16.9109C10.5214 16.4102 11.2834 16.0185 12.0824 15.7538C12.4204 15.6418 12.7887 15.5364 13.1425 15.4927L14.6205 15.3094L13.7361 16.4947C13.0474 17.4176 12.836 18.6616 13.306 19.7259C13.4835 20.1272 13.8579 20.6561 14.3364 20.7094C14.7483 20.7555 15.1057 20.3967 15.3286 20.0973L15.746 19.5367L16.27 20.002C17.493 21.0873 18.1951 22.6427 18.1951 24.2676C18.1951 25.2002 17.9667 26.1141 17.5257 26.9389L17.092 27.7492L17.0914 27.7504Z" fill="#2B2A29"/>
<path fill-rule="evenodd" clip-rule="evenodd" d="M15.1222 23.5787C14.7545 23.6535 14.3747 23.6727 13.9931 23.6308C12.4042 23.4553 11.1897 22.3065 10.57 20.9045C10.5221 20.7954 10.4773 20.6852 10.4361 20.5732C9.794 21.6429 9.55957 22.9534 9.55957 24.2692C9.55957 25.8091 10.828 27.0633 12.3854 27.0633C13.9428 27.0633 15.2107 25.8091 15.2107 24.2692C15.2107 24.0351 15.181 23.8033 15.1222 23.5787Z" fill="#00CCDB"/>
</g>
<defs>
<clipPath id="clip0_6406_30">
<rect width="24.7984" height="30" fill="white"/>
</clipPath>
</defs>
</svg>
