<svg width="30" height="30" viewBox="0 0 30 30" fill="none" xmlns="http://www.w3.org/2000/svg">
<path fill-rule="evenodd" clip-rule="evenodd" d="M15 27.4805C15.3235 27.4805 15.586 27.218 15.586 26.8946C15.586 26.5711 15.3235 26.3086 15 26.3086C14.6766 26.3086 14.4141 26.5711 14.4141 26.8946C14.4141 27.218 14.6766 27.4805 15 27.4805Z" fill="black"/>
<path fill-rule="evenodd" clip-rule="evenodd" d="M14.4141 0.58597V4.4531C14.4141 4.77673 14.6765 5.03907 15 5.03907C15.3236 5.03907 15.586 4.77673 15.586 4.4531V0.58597C15.586 0.26242 15.3236 0 15 0C14.6764 0 14.4141 0.26242 14.4141 0.58597Z" fill="black"/>
<path fill-rule="evenodd" clip-rule="evenodd" d="M2.57393 5.50399C2.34515 5.73277 2.34515 6.10379 2.57393 6.33266L5.88508 9.64383C6.11395 9.87261 6.48488 9.87261 6.71376 9.64383C6.94254 9.41495 6.94254 9.04393 6.71376 8.81515L3.40261 5.50399C3.17373 5.2752 2.80272 5.2752 2.57393 5.50399Z" fill="black"/>
<path fill-rule="evenodd" clip-rule="evenodd" d="M26.6009 5.50002L23.2863 8.81463C23.0575 9.04342 23.0575 9.41444 23.2863 9.64331C23.5153 9.8721 23.8861 9.87201 24.115 9.64331L27.4296 6.32869C27.6584 6.09991 27.6584 5.72889 27.4296 5.50002C27.2007 5.27132 26.8298 5.27132 26.6009 5.50002Z" fill="black"/>
<path fill-rule="evenodd" clip-rule="evenodd" d="M29.4142 10.8983C28.2335 10.8983 27.1335 11.439 26.4133 12.3432C26.0788 12.1648 25.7033 12.0702 25.3127 12.0702C24.0204 12.0702 22.9689 13.1216 22.9689 14.414C22.9689 15.3849 23.5624 16.2199 24.4056 16.5751L24.2978 16.7049C23.6887 17.4374 22.5691 17.9297 21.5116 17.9297C20.6143 17.9297 19.5732 17.5724 18.9365 16.9359L18.6464 16.6458C19.5893 16.3424 20.2735 15.4566 20.2735 14.4141C20.2735 13.1218 19.2221 12.0703 17.9297 12.0703H17.8702C17.9545 11.6547 17.9488 11.2194 17.8495 10.7912C17.5996 9.71502 16.7021 8.84181 15.6161 8.6183C13.7531 8.23457 12.0704 9.64386 12.0704 11.4844C12.0704 11.6819 12.0904 11.8784 12.1294 12.0704H12.0704C10.778 12.0704 9.7266 13.1218 9.7266 14.4142C9.7266 15.4567 10.4108 16.3424 11.3537 16.6459L11.0636 16.936C10.4599 17.5398 9.44914 17.9298 8.48843 17.9298C7.46565 17.9298 6.33746 17.4701 5.70238 16.7051L5.59447 16.5752C6.43767 16.2199 7.03116 15.3849 7.03116 14.4141C7.03116 13.1218 5.97984 12.0703 4.68738 12.0703C4.29673 12.0703 3.9213 12.1649 3.58677 12.3433C2.86652 11.4391 1.76661 10.8984 0.58594 10.8984C0.400734 10.8984 0.226335 10.986 0.115834 11.1345C0.00524591 11.2831 -0.0284752 11.4753 0.0247004 11.6527L3.66563 23.7889H3.28121C2.95757 23.7889 2.69524 24.0514 2.69524 24.3749C2.69524 24.6985 2.95757 24.9609 3.28121 24.9609H3.86709V28.2421C3.86709 29.2114 4.65564 30 5.62499 30H24.375C25.3442 30 26.1328 29.2114 26.1328 28.2421V24.9609H26.7187C27.0423 24.9609 27.3047 24.6985 27.3047 24.3749C27.3047 24.0514 27.0423 23.7889 26.7187 23.7889H26.3343L29.9752 11.6527C30.0284 11.4754 29.9947 11.2831 29.884 11.1345C29.7734 10.986 29.5992 10.8984 29.414 10.8984L29.4142 10.8983ZM24.9611 26.3085H17.3438C17.0203 26.3085 16.7579 26.5709 16.7579 26.8945C16.7579 27.218 17.0203 27.4805 17.3438 27.4805L24.9611 27.4804V28.2421C24.9611 28.5652 24.6982 28.828 24.3751 28.828H5.62517C5.30205 28.828 5.0392 28.5652 5.0392 28.2421V27.4804H12.6564C12.98 27.4804 13.2423 27.218 13.2423 26.8945C13.2423 26.5709 12.98 26.3085 12.6564 26.3085H5.0392V24.9609H24.961V26.3085H24.9611ZM25.111 23.7889H4.88918L1.41306 12.2014C2.04944 12.4088 2.59485 12.852 2.92549 13.4573C3.11398 13.8025 3.58167 13.8663 3.85637 13.5885C4.07728 13.3652 4.37256 13.2421 4.68781 13.2421C5.33396 13.2421 5.85966 13.7678 5.85966 14.414C5.85966 15.1216 5.23677 15.6584 4.55655 15.5787C4.31852 15.5512 4.08775 15.6708 3.97353 15.8814C3.85922 16.092 3.88473 16.3509 4.03794 16.5352L4.80116 17.4538C5.67047 18.5008 7.13466 19.1015 8.48878 19.1015C9.76352 19.1015 11.0678 18.5893 11.8926 17.7646L13.0709 16.5863C13.2384 16.4187 13.2886 16.1667 13.1979 15.9476C13.1073 15.7287 12.8936 15.5859 12.6566 15.5859H12.0707C11.4245 15.5859 10.8988 15.0602 10.8988 14.414C10.8988 13.7678 11.4245 13.2421 12.0707 13.2421H12.9701C13.1796 13.2421 13.3731 13.1304 13.4777 12.949C13.5823 12.7676 13.5822 12.5441 13.4773 12.3628C13.3239 12.0972 13.2426 11.7934 13.2426 11.4843C13.2426 10.4024 14.2254 9.52826 15.3802 9.76603C16.0162 9.89694 16.5623 10.4274 16.7083 11.0558C16.8433 11.6384 16.6823 12.088 16.5235 12.3627C16.4186 12.544 16.4184 12.7675 16.5231 12.9489C16.6278 13.1303 16.8213 13.2421 17.0306 13.2421H17.9301C18.5762 13.2421 19.1019 13.7678 19.1019 14.4139C19.1019 15.0602 18.5762 15.5859 17.9301 15.5859H17.3441C17.1071 15.5859 16.8935 15.7286 16.8028 15.9476C16.7121 16.1666 16.7623 16.4185 16.9299 16.5862L18.1082 17.7645C18.9664 18.6228 20.3032 19.1014 21.5119 19.1014C22.9199 19.1014 24.3673 18.4548 25.1994 17.4539L25.9629 16.5351C26.1159 16.3508 26.1415 16.092 26.0274 15.8813C25.9131 15.6707 25.6821 15.5508 25.4443 15.5786C25.4027 15.5835 25.3598 15.5858 25.3129 15.5858C24.6667 15.5858 24.141 15.0601 24.141 14.4139C24.141 13.7677 24.6667 13.242 25.3129 13.242C25.6282 13.242 25.9234 13.3651 26.1443 13.5884C26.2746 13.7201 26.4594 13.7825 26.6427 13.7566C26.826 13.7308 26.9864 13.6197 27.0751 13.4572C27.4058 12.8519 27.9511 12.4087 28.5876 12.2013L25.1114 23.7889L25.111 23.7889Z" fill="black"/>
<path fill-rule="evenodd" clip-rule="evenodd" d="M15 17.9299C13.7077 17.9299 12.6562 18.9813 12.6562 20.2737C12.6562 21.566 13.7077 22.6175 15 22.6175C16.2924 22.6175 17.3438 21.5661 17.3438 20.2737C17.3438 18.9814 16.2924 17.9299 15 17.9299ZM15 21.4455C14.3539 21.4455 13.8282 20.9199 13.8282 20.2736C13.8282 19.6274 14.3539 19.1018 15 19.1018C15.6463 19.1018 16.172 19.6274 16.172 20.2736C16.172 20.9199 15.6463 21.4455 15 21.4455Z" fill="black"/>
<path fill-rule="evenodd" clip-rule="evenodd" d="M16.1719 20.2734C16.1719 19.6272 15.6462 19.1016 15 19.1016C14.3538 19.1016 13.8281 19.6272 13.8281 20.2734C13.8281 20.9197 14.3538 21.4453 15 21.4453C15.6462 21.4453 16.1719 20.9197 16.1719 20.2734Z" fill="#00CCDB"/>
<path fill-rule="evenodd" clip-rule="evenodd" d="M24.9609 24.9603H5.03906V26.308H12.6562C12.9799 26.308 13.2422 26.5703 13.2422 26.8939C13.2422 27.2175 12.9799 27.4798 12.6562 27.4798H5.03906V28.2416C5.03906 28.5646 5.30191 28.8275 5.62503 28.8275H24.375C24.6981 28.8275 24.961 28.5646 24.961 28.2416V27.4798L17.3437 27.4799C17.0202 27.4799 16.7577 27.2175 16.7577 26.8939C16.7577 26.5703 17.0202 26.308 17.3437 26.308H24.961V24.9603H24.9609ZM14.9999 26.308C15.3234 26.308 15.5859 26.5705 15.5859 26.8939C15.5859 27.2173 15.3234 27.4798 14.9999 27.4798C14.6765 27.4798 14.414 27.2173 14.414 26.8939C14.414 26.5705 14.6765 26.308 14.9999 26.308Z" fill="#00CCDB"/>
</svg>
