<svg width="16" height="16" viewBox="0 0 16 16" fill="none" xmlns="http://www.w3.org/2000/svg">
<path fill-rule="evenodd" clip-rule="evenodd" d="M11.3089 10.8466L11.3087 10.8462L11.3082 10.8449C11.2476 10.6851 11.1853 10.5209 11.1631 10.4609L11.1409 10.4004H13.5991C15.0947 10.4004 15.999 9.34641 15.999 8.00051C15.999 3.24595 15.0032 0.00101626 12.7992 0.00101626C12.7992 0.00101626 7.21805 0.0011963 7.19868 0.0007864C6.67225 -0.00865457 6.00397 0.0653702 5.33016 0.306453C5.03567 0.411818 4.76475 0.542919 4.52195 0.70001C4.23387 0.278167 3.74917 0.00127041 3.1998 0.00127041H1.5999C0.716299 0.00127041 0 0.717569 0 1.60117V8.80071C0 9.68431 0.716299 10.4006 1.5999 10.4006H3.1998C3.35853 10.4006 3.51185 10.3775 3.6566 10.3344C4.21419 11.1463 5.62423 12.7575 6.75718 14.0521C7.37153 14.7541 7.9044 15.363 8.1757 15.7009L8.41586 16H8.8056C9.29125 16.0001 9.71321 15.9632 10.198 15.822C11.2728 15.5091 11.9992 14.7777 11.9992 13.6002C11.9992 13.1841 11.9256 12.7405 11.7898 12.2481C11.7 11.9224 11.589 11.5934 11.4369 11.1852C11.4152 11.1268 11.3628 10.9886 11.3089 10.8467L11.3089 10.8466ZM10.3994 13.6001C10.3994 13.9609 10.2092 14.1524 9.75078 14.2859C9.55818 14.342 9.36861 14.3729 9.16748 14.3879C8.74661 13.8848 8.14392 13.1972 7.52358 12.4895L7.52337 12.4893L7.52335 12.4892L7.52334 12.4892C6.32123 11.1177 5.05293 9.67075 4.91315 9.34439C4.83533 9.1627 4.79978 8.99255 4.79978 8.80041V3.20076C4.79978 2.47903 5.16133 2.06606 5.86922 1.81279C6.32819 1.64857 6.81996 1.5941 7.17211 1.60039L11.6264 1.60085L12.7993 1.60087C13.6113 1.60087 14.3992 4.16811 14.3992 8.00046C14.3992 8.51251 14.1522 8.80041 13.5992 8.80041H10.3994C9.44385 8.80041 9.24393 9.53928 9.44321 10.3393C9.49009 10.5274 9.55862 10.7345 9.66264 11.0158C9.6875 11.083 9.75448 11.2596 9.81716 11.4248L9.8181 11.4273L9.81812 11.4273L9.81824 11.4276L9.81889 11.4293C9.87025 11.5647 9.91843 11.6917 9.9378 11.7437C10.075 12.1119 10.1724 12.4005 10.2476 12.6733C10.3482 13.0383 10.3994 13.3469 10.3994 13.6001ZM1.59985 8.80062V1.60107H3.19975V8.80062H1.59985Z" fill="#D62C54"/>
</svg>
