<svg width="13" height="16" viewBox="0 0 13 16" fill="none" xmlns="http://www.w3.org/2000/svg">
<path fill-rule="evenodd" clip-rule="evenodd" d="M6.4 16L6.86772 15.5884C10.8008 12.1276 12.8 9.1057 12.8 6.44942C12.8 2.68774 9.88654 0 6.4 0C2.91346 0 0 2.68774 0 6.44942C0 9.1057 1.99915 12.1276 5.93228 15.5884L6.4 16ZM6.39996 14.0909C3.06244 11.0597 1.42218 8.49121 1.42218 6.44945C1.42218 3.50894 3.67222 1.43323 6.39996 1.43323C9.1277 1.43323 11.3777 3.50894 11.3777 6.44945C11.3777 8.49121 9.73748 11.0597 6.39996 14.0909ZM6.40004 2.86639C8.36372 2.86639 9.95559 4.47056 9.95559 6.44941C9.95559 8.42825 8.36372 10.0324 6.40004 10.0324C4.43636 10.0324 2.84448 8.42825 2.84448 6.44941C2.84448 4.47056 4.43636 2.86639 6.40004 2.86639ZM4.26666 6.44943C4.26666 5.26212 5.22179 4.29962 6.4 4.29962C7.5782 4.29962 8.53333 5.26212 8.53333 6.44943C8.53333 7.63674 7.5782 8.59924 6.4 8.59924C5.22179 8.59924 4.26666 7.63674 4.26666 6.44943Z" fill="#BDBDBD"/>
</svg>
