<svg width="16" height="16" viewBox="0 0 16 16" fill="none" xmlns="http://www.w3.org/2000/svg">
<path fill-rule="evenodd" clip-rule="evenodd" d="M9.6 3.2C9.6 3.42993 9.62425 3.6542 9.67033 3.87038L5.61354 5.89878C5.02689 5.2255 4.16314 4.8 3.2 4.8C1.43269 4.8 0 6.23269 0 8C0 9.76731 1.43269 11.2 3.2 11.2C4.16315 11.2 5.02691 10.7745 5.61356 10.1012L9.67034 12.1296C9.62425 12.3458 9.6 12.5701 9.6 12.8C9.6 14.5673 11.0327 16 12.8 16C14.5673 16 16 14.5673 16 12.8C16 11.0327 14.5673 9.6 12.8 9.6C11.8369 9.6 10.9731 10.0255 10.3865 10.6988L6.32966 8.67039C6.37575 8.4542 6.4 8.22993 6.4 8C6.4 7.77005 6.37575 7.54577 6.32966 7.32957L10.3864 5.30119C10.9731 5.97448 11.8368 6.4 12.8 6.4C14.5673 6.4 16 4.96731 16 3.2C16 1.43269 14.5673 0 12.8 0C11.0327 0 9.6 1.43269 9.6 3.2ZM4.79998 8.00002C4.79998 8.88368 4.08363 9.60003 3.19998 9.60003C2.31632 9.60003 1.59998 8.88368 1.59998 8.00002C1.59998 7.11637 2.31632 6.40002 3.19998 6.40002C4.08363 6.40002 4.79998 7.11637 4.79998 8.00002ZM12.8 4.79998C13.6836 4.79998 14.4 4.08363 14.4 3.19998C14.4 2.31632 13.6836 1.59998 12.8 1.59998C11.9163 1.59998 11.2 2.31632 11.2 3.19998C11.2 4.08363 11.9163 4.79998 12.8 4.79998ZM14.4 12.8C14.4 13.6837 13.6836 14.4 12.8 14.4C11.9163 14.4 11.2 13.6837 11.2 12.8C11.2 11.9164 11.9163 11.2 12.8 11.2C13.6836 11.2 14.4 11.9164 14.4 12.8Z" fill="#00CCDB"/>
</svg>
