<svg width="24" height="24" viewBox="0 0 24 24" fill="none" xmlns="http://www.w3.org/2000/svg">
<path d="M21.955 3.59832L18.5095 20.9695C18.5095 20.9695 18.0277 22.1742 16.7026 21.5959L8.75196 15.5004L5.86091 14.1031L0.994179 12.4647C0.994179 12.4647 0.247306 12.1997 0.174969 11.6215C0.102633 11.0432 1.01829 10.7301 1.01829 10.7301L20.3647 3.1408C20.3647 3.1408 21.9549 2.44215 21.9549 3.59863" fill="#40B3E0"/>
<path d="M8.14192 20.7744C8.14192 20.7744 7.90984 20.7527 7.6205 19.8371C7.3316 18.9216 5.86182 14.103 5.86182 14.103L17.5469 6.68253C17.5469 6.68253 18.2215 6.27293 18.1974 6.68253C18.1974 6.68253 18.3178 6.75487 17.9563 7.09214C17.5951 7.42956 8.77712 15.356 8.77712 15.356" fill="white"/>
<path d="M11.8001 17.8374L8.65542 20.7046C8.65542 20.7046 8.40948 20.8912 8.14062 20.7743L8.74283 15.4485" fill="#B5CFE4"/>
</svg>
