<svg width="21" height="22" viewBox="0 0 21 22" fill="none" xmlns="http://www.w3.org/2000/svg">
<g clip-path="url(#clip0_11329_5983)">
<path d="M10.2753 16.9404H11.5301C11.5301 16.9404 11.9095 16.8984 12.1024 16.6897C12.281 16.4981 12.2744 16.1384 12.2744 16.1384C12.2744 16.1384 12.2495 14.4544 13.0318 14.2063C13.8023 13.9621 14.792 15.8339 15.8407 16.5545C16.6335 17.0992 17.236 16.9798 17.236 16.9798L20.041 16.9404C20.041 16.9404 21.5085 16.8498 20.8128 15.6961C20.7564 15.6016 20.4072 14.8429 18.7271 13.2835C16.9682 11.6506 17.2045 11.9158 19.323 9.09239C20.6133 7.37289 21.1292 6.32281 20.9677 5.8739C20.8141 5.446 19.8651 5.55888 19.8651 5.55888L16.7097 5.57725C16.7097 5.57725 16.476 5.54575 16.3014 5.64945C16.1321 5.75183 16.0232 5.9881 16.0232 5.9881C16.0232 5.9881 15.5231 7.31907 14.8563 8.45053C13.4505 10.8381 12.8874 10.9642 12.6577 10.8158C12.1234 10.4706 12.2573 9.4271 12.2573 8.6868C12.2573 6.37269 12.6078 5.40793 11.5735 5.15854C11.2296 5.07584 10.9775 5.02071 10.0994 5.01153C8.97321 4.99971 8.01895 5.01546 7.47947 5.2793C7.11982 5.45518 6.84286 5.84765 7.01219 5.86996C7.22089 5.89753 7.69343 5.99729 7.94413 6.33856C8.26834 6.77828 8.25653 7.76798 8.25653 7.76798C8.25653 7.76798 8.44292 10.4916 7.82206 10.8303C7.39547 11.0626 6.81136 10.5888 5.55783 8.42165C4.91597 7.31251 4.43031 6.08523 4.43031 6.08523C4.43031 6.08523 4.33711 5.85684 4.17041 5.73477C3.96827 5.58644 3.68475 5.53919 3.68475 5.53919L0.684156 5.55757C0.684156 5.55757 0.233935 5.57069 0.0685481 5.76627C-0.0784628 5.94084 0.0567347 6.3005 0.0567347 6.3005C0.0567347 6.3005 2.40628 11.7963 5.06561 14.5672C7.50572 17.1071 10.2753 16.9404 10.2753 16.9404Z" fill="#2787F5"/>
</g>
<defs>
<clipPath id="clip0_11329_5983">
<rect width="21" height="21" fill="white" transform="translate(0 0.5)"/>
</clipPath>
</defs>
</svg>
