<svg width="24" height="24" viewBox="0 0 24 24" fill="none" xmlns="http://www.w3.org/2000/svg">
<path fill-rule="evenodd" clip-rule="evenodd" d="M20.5514 4.83938C18.466 2.7516 15.6927 1.60132 12.7382 1.6001C6.65004 1.6001 1.69519 6.55481 1.69275 12.6446C1.69193 14.5913 2.20047 16.4916 3.16709 18.1666L1.6001 23.8901L7.45544 22.3541C9.06882 23.2342 10.8852 23.698 12.7337 23.6985H12.7383C18.8257 23.6985 23.7811 18.7434 23.7834 12.6534C23.7847 9.70199 22.6368 6.92703 20.5514 4.83938ZM12.7382 21.8332H12.7343C11.0871 21.8325 9.47152 21.3898 8.0618 20.5535L7.72672 20.3545L4.25207 21.266L5.1795 17.8783L4.96115 17.531C4.04215 16.0693 3.55687 14.3798 3.55768 12.6452C3.55959 7.5836 7.67801 3.46558 12.7418 3.46558C15.1939 3.4664 17.499 4.42254 19.2322 6.15782C20.9655 7.8931 21.9194 10.1996 21.9186 12.6527C21.9165 17.7148 17.7983 21.8332 12.7382 21.8332ZM17.7738 14.9575C17.4979 14.8193 16.141 14.1518 15.8879 14.0596C15.6351 13.9675 15.4509 13.9216 15.2671 14.1978C15.0831 14.474 14.5543 15.0957 14.3932 15.2798C14.2321 15.464 14.0713 15.4871 13.7952 15.3489C13.5192 15.2108 12.63 14.9193 11.5758 13.979C10.7554 13.2472 10.2016 12.3435 10.0405 12.0673C9.87967 11.7909 10.0391 11.6559 10.1616 11.5041C10.4603 11.1331 10.7595 10.7441 10.8515 10.56C10.9436 10.3758 10.8974 10.2146 10.8283 10.0765C10.7595 9.93844 10.2075 8.58001 9.97762 8.02725C9.75342 7.48932 9.52608 7.56196 9.35656 7.55353C9.19576 7.5455 9.01168 7.54387 8.82761 7.54387C8.64368 7.54387 8.34464 7.61285 8.0916 7.88929C7.83868 8.16561 7.1258 8.83319 7.1258 10.1916C7.1258 11.5501 8.11472 12.8624 8.25268 13.0466C8.39063 13.2308 10.1988 16.0184 12.9673 17.2137C13.6257 17.4983 14.1397 17.668 14.5406 17.7952C15.2018 18.0052 15.8033 17.9756 16.2789 17.9046C16.8092 17.8252 17.9116 17.2368 18.1418 16.5922C18.3717 15.9475 18.3717 15.395 18.3026 15.2798C18.2338 15.1647 18.0497 15.0957 17.7738 14.9575Z" fill="#26AD5C"/>
</svg>
