<svg width="21" height="21" viewBox="0 0 21 21" fill="none" xmlns="http://www.w3.org/2000/svg">
<path d="M17.1463 3.76023C15.3085 1.86834 12.7679 0.841309 10.1733 0.841309C4.65983 0.841309 0.227394 5.3278 0.281448 10.7873C0.281448 12.517 0.767934 14.1927 1.57875 15.7062L0.17334 20.8413L5.41658 19.49C6.87604 20.3008 8.49766 20.6791 10.1193 20.6791C15.5787 20.6791 20.0112 16.1927 20.0112 10.7332C20.0112 8.08455 18.9842 5.59807 17.1463 3.76023ZM10.1733 19.0035C8.71388 19.0035 7.25442 18.6251 6.01118 17.8683L5.68685 17.7062L2.55172 18.517L3.36253 15.4359L3.14631 15.1116C0.767934 11.2737 1.90307 6.19266 5.79496 3.81428C9.68685 1.4359 14.7139 2.57104 17.0923 6.46293C19.4706 10.3548 18.3355 15.3818 14.4436 17.7602C13.2004 18.571 11.6869 19.0035 10.1733 19.0035ZM14.9301 13.0035L14.3355 12.7332C14.3355 12.7332 13.4706 12.3548 12.9301 12.0846C12.876 12.0846 12.822 12.0305 12.7679 12.0305C12.6058 12.0305 12.4977 12.0846 12.3896 12.1386C12.3896 12.1386 12.3355 12.1927 11.5787 13.0575C11.5247 13.1656 11.4166 13.2197 11.3085 13.2197H11.2544C11.2004 13.2197 11.0923 13.1656 11.0382 13.1116L10.7679 13.0035C10.1733 12.7332 9.6328 12.4089 9.20037 11.9764C9.09226 11.8683 8.9301 11.7602 8.82199 11.6521C8.44361 11.2737 8.06523 10.8413 7.79496 10.3548L7.74091 10.2467C7.68685 10.1927 7.68685 10.1386 7.6328 10.0305C7.6328 9.92239 7.6328 9.81428 7.68685 9.76023C7.68685 9.76023 7.90307 9.48996 8.06523 9.3278C8.17334 9.21969 8.22739 9.05752 8.3355 8.94942C8.44361 8.78725 8.49766 8.57104 8.44361 8.40888C8.38956 8.13861 7.74091 6.67915 7.57875 6.35482C7.47064 6.19266 7.36253 6.13861 7.20037 6.08455H7.03821C6.9301 6.08455 6.76793 6.08455 6.60577 6.08455C6.49766 6.08455 6.38956 6.13861 6.28145 6.13861L6.22739 6.19266C6.11929 6.24671 6.01118 6.35482 5.90307 6.40888C5.79496 6.51698 5.74091 6.62509 5.6328 6.7332C5.25442 7.21969 5.03821 7.81428 5.03821 8.40888C5.03821 8.84131 5.14631 9.27374 5.30848 9.65212L5.36253 9.81428C5.84902 10.8413 6.49766 11.7602 7.36253 12.571L7.57875 12.7873C7.74091 12.9494 7.90307 13.0575 8.01118 13.2197C9.14631 14.1927 10.4436 14.8954 11.9031 15.2737C12.0652 15.3278 12.2814 15.3278 12.4436 15.3818C12.6058 15.3818 12.822 15.3818 12.9842 15.3818C13.2544 15.3818 13.5787 15.2737 13.795 15.1656C13.9571 15.0575 14.0652 15.0575 14.1733 14.9494L14.2814 14.8413C14.3896 14.7332 14.4977 14.6791 14.6058 14.571C14.7139 14.4629 14.822 14.3548 14.876 14.2467C14.9842 14.0305 15.0382 13.7602 15.0923 13.49C15.0923 13.3818 15.0923 13.2197 15.0923 13.1116C15.0923 13.1116 15.0382 13.0575 14.9301 13.0035Z" fill="white"/>
</svg>
