<svg width="24" height="24" viewBox="0 0 24 24" fill="none" xmlns="http://www.w3.org/2000/svg">
<g id="24 / basic / paperclip">
<path id="icon" fill-rule="evenodd" clip-rule="evenodd" d="M13.3429 6.54368L14.7679 7.94702L8.44974 14.3628C8.1327 14.6863 8.1327 15.2071 8.44974 15.5307C8.75058 15.8378 9.25315 15.8364 9.55079 15.529L16.5022 8.46741C17.517 7.43179 17.517 5.76857 16.5022 4.73294C15.5339 3.74484 13.8208 3.76682 12.8718 4.73482L5.28454 12.437C3.57154 14.1844 3.57154 16.9904 5.28454 18.7378C6.94795 20.4346 9.80544 20.407 11.4429 18.7362L20.2919 9.74899L21.717 11.1522L12.8696 20.1378C10.4557 22.6008 6.31008 22.6409 3.85633 20.1379C1.38094 17.6127 1.38094 13.562 3.85804 11.0352L11.4453 3.33301C13.1687 1.57494 16.1701 1.53644 17.9307 3.33316C19.7075 5.14642 19.7075 8.05393 17.9291 9.86883L10.9819 16.9262C9.90719 18.0361 8.10934 18.0411 7.02113 16.9304C5.94224 15.8292 5.94224 14.0643 7.02293 12.9612L13.3429 6.54368Z" fill="#706D7A"/>
</g>
</svg>
