<svg width="25" height="24" viewBox="0 0 25 24" fill="none" xmlns="http://www.w3.org/2000/svg">
<path fill-rule="evenodd" clip-rule="evenodd" d="M11.6277 7.6049C12.2494 6.76714 12.4723 5.88421 11.7692 5.10485C10.1914 2.8971 9.13033 1.53183 8.46475 0.874351C7.19941 -0.375602 5.1179 -0.206526 4.02202 0.873283C3.43341 1.45326 3.23414 1.65243 2.62977 2.2663C-0.736669 5.63454 1.31636 12.7549 6.77406 18.218C12.2305 23.6798 19.3502 25.7339 22.7237 22.3585C23.2814 21.8209 23.7536 21.3485 24.126 20.9548C25.1999 19.8198 25.363 17.83 24.1189 16.5374C23.4811 15.8747 22.1792 14.8648 19.8786 13.2192C19.174 12.5891 18.3385 12.7257 17.5725 13.2282C17.2041 13.4699 16.936 13.7144 16.4297 14.2212L15.5103 15.1411C15.3892 15.2623 13.7449 14.4388 12.1487 12.8411C10.5517 11.2425 9.72877 9.59809 9.84929 9.47757C10.0978 9.22905 10.4045 8.92221 10.7693 8.55703C10.93 8.39624 11.0068 8.3184 11.1052 8.21489C11.3104 7.99923 11.4803 7.80353 11.6277 7.6049ZM17.2062 16.8379L18.1258 15.9178C18.4044 15.6389 18.585 15.4674 18.7319 15.3491C20.7473 16.7964 21.9145 17.7065 22.3913 18.2019C22.6775 18.4993 22.633 19.042 22.3842 19.305C22.0398 19.6689 21.5924 20.1166 21.0434 20.6461C18.862 22.8285 13.1148 21.1703 8.47036 16.5213C3.82446 11.8708 2.16711 6.1228 4.33206 3.95665C4.934 3.3453 5.12471 3.15468 5.70492 2.58299C5.92246 2.36863 6.51503 2.3205 6.77967 2.58192C7.2921 3.08812 8.24264 4.30522 9.64094 6.25303C9.56855 6.3429 9.47814 6.44446 9.36812 6.56009C9.28736 6.64496 9.22008 6.71316 9.073 6.86039C8.70847 7.22528 8.40209 7.53183 8.15387 7.78002C6.59025 9.34351 7.92189 12.0045 10.4524 14.5375C12.9811 17.0687 15.6431 18.4018 17.2062 16.8379Z" fill="#BDBDBD"/>
</svg>
