<svg width="24" height="24" viewBox="0 0 24 24" fill="none" xmlns="http://www.w3.org/2000/svg">
<path d="M20.5341 3.5027C18.3106 1.23243 15.2371 0 12.0981 0C5.42779 0 0.0653951 5.38378 0.13079 11.9351C0.13079 14.0108 0.719346 16.0216 1.70027 17.8378L0 24L6.34332 22.3784C8.10899 23.3514 10.0708 23.8054 12.0327 23.8054C18.6376 23.8054 24 18.4216 24 11.8703C24 8.69189 22.7575 5.70811 20.5341 3.5027ZM12.0981 21.7946C10.3324 21.7946 8.56676 21.3405 7.06267 20.4324L6.6703 20.2378L2.87738 21.2108L3.85831 17.5135L3.59673 17.1243C0.719346 12.5189 2.09264 6.42162 6.80109 3.56757C11.5095 0.713513 17.5913 2.07568 20.4687 6.74595C23.346 11.4162 21.9728 17.4486 17.2643 20.3027C15.7602 21.2757 13.9292 21.7946 12.0981 21.7946ZM17.8529 14.5946L17.1335 14.2703C17.1335 14.2703 16.0872 13.8162 15.4332 13.4919C15.3678 13.4919 15.3025 13.427 15.2371 13.427C15.0409 13.427 14.9101 13.4919 14.7793 13.5568C14.7793 13.5568 14.7139 13.6216 13.7984 14.6595C13.733 14.7892 13.6022 14.8541 13.4714 14.8541H13.406C13.3406 14.8541 13.2098 14.7892 13.1444 14.7243L12.8174 14.5946C12.0981 14.2703 11.4441 13.8811 10.921 13.3622C10.7902 13.2324 10.594 13.1027 10.4632 12.973C10.0054 12.5189 9.54768 12 9.22071 11.4162L9.15531 11.2865C9.08992 11.2216 9.08992 11.1568 9.02452 11.027C9.02452 10.8973 9.02452 10.7676 9.08992 10.7027C9.08992 10.7027 9.3515 10.3784 9.54768 10.1838C9.67847 10.0541 9.74387 9.85946 9.87466 9.72973C10.0054 9.53513 10.0708 9.27567 10.0054 9.08108C9.94005 8.75676 9.15531 7.0054 8.95913 6.61622C8.82834 6.42162 8.69755 6.35676 8.50136 6.29189H8.30518C8.17439 6.29189 7.9782 6.29189 7.78202 6.29189C7.65123 6.29189 7.52044 6.35676 7.38965 6.35676L7.32425 6.42162C7.19346 6.48649 7.06267 6.61622 6.93188 6.68108C6.80109 6.81081 6.73569 6.94054 6.6049 7.07027C6.14714 7.65405 5.88556 8.36757 5.88556 9.08108C5.88556 9.6 6.01635 10.1189 6.21253 10.573L6.27793 10.7676C6.86649 12 7.65123 13.1027 8.69755 14.0757L8.95913 14.3351C9.15531 14.5297 9.3515 14.6595 9.48229 14.8541C10.8556 16.0216 12.4251 16.8649 14.1907 17.3189C14.3869 17.3838 14.6485 17.3838 14.8447 17.4486C15.0409 17.4486 15.3025 17.4486 15.4986 17.4486C15.8256 17.4486 16.218 17.3189 16.4796 17.1892C16.6757 17.0595 16.8065 17.0595 16.9373 16.9297L17.0681 16.8C17.1989 16.6703 17.3297 16.6054 17.4605 16.4757C17.5913 16.3459 17.7221 16.2162 17.7875 16.0865C17.9183 15.827 17.9837 15.5027 18.049 15.1784C18.049 15.0486 18.049 14.8541 18.049 14.7243C18.049 14.7243 17.9837 14.6595 17.8529 14.5946Z" fill="#BDBDBD"/>
</svg>
