<svg width="40" height="40" viewBox="0 0 40 40" fill="none" xmlns="http://www.w3.org/2000/svg">
<g filter="url(#filter0_d_13484_1625)">
<circle cx="20" cy="18" r="16" fill="white"/>
</g>
<path fill-rule="evenodd" clip-rule="evenodd" d="M23.7254 10C22.5409 10 21.7774 10.1371 20.9022 10.5534C20.5781 10.7075 20.2741 10.8931 19.9918 11.1096C19.7203 10.9052 19.4285 10.7281 19.1178 10.5789C18.2256 10.1501 17.423 10 16.281 10C13.2225 10 11 12.4623 11 15.6602C11 18.0753 12.3859 20.4082 14.9672 22.6641C16.3222 23.8481 18.0522 25.0199 19.2911 25.6433L20 26L20.7089 25.6433C21.9478 25.0199 23.6778 23.8481 25.0328 22.6641C27.6141 20.4082 29 18.0753 29 15.6602C29 12.4961 26.7565 10.0122 23.7254 10ZM27.3636 15.6602C27.3636 17.5523 26.2069 19.4995 23.9385 21.4819C22.7018 22.5626 21.1119 23.6427 20 24.2093C18.8881 23.6427 17.2982 22.5626 16.0615 21.4819C13.7931 19.4995 12.6364 17.5523 12.6364 15.6602C12.6364 13.2974 14.1775 11.59 16.281 11.59C17.189 11.59 17.7485 11.6946 18.3924 12.004C18.7727 12.1868 19.1089 12.4282 19.3999 12.7298L20.0019 13.3538L20.5985 12.7248C20.896 12.4111 21.2371 12.1643 21.6216 11.9814C22.2466 11.6842 22.7712 11.59 23.722 11.59C25.7994 11.5983 27.3636 13.3302 27.3636 15.6602Z" fill="#BDBDBD"/>
<defs>
<filter id="filter0_d_13484_1625" x="0" y="0" width="40" height="40" filterUnits="userSpaceOnUse" color-interpolation-filters="sRGB">
<feFlood flood-opacity="0" result="BackgroundImageFix"/>
<feColorMatrix in="SourceAlpha" type="matrix" values="0 0 0 0 0 0 0 0 0 0 0 0 0 0 0 0 0 0 127 0" result="hardAlpha"/>
<feOffset dy="2"/>
<feGaussianBlur stdDeviation="2"/>
<feColorMatrix type="matrix" values="0 0 0 0 0 0 0 0 0 0 0 0 0 0 0 0 0 0 0.1 0"/>
<feBlend mode="normal" in2="BackgroundImageFix" result="effect1_dropShadow_13484_1625"/>
<feBlend mode="normal" in="SourceGraphic" in2="effect1_dropShadow_13484_1625" result="shape"/>
</filter>
</defs>
</svg>
